skinny.ufo
<glyph name="exclamation" format="2">
  <advance width="145.8"/>
  <unicode hex="0021"/>
  <outline>
    <contour>
      <point x="117.9" y="33.75" type="curve" smooth="yes"/>
      <point x="117.9" y="58.58618"/>
      <point x="97.73617999999999" y="78.75"/>
      <point x="72.9" y="78.75" type="curve" smooth="yes"/>
      <point x="48.06382" y="78.75"/>
      <point x="27.9" y="58.58618"/>
      <point x="27.9" y="33.75" type="curve" smooth="yes"/>
      <point x="27.9" y="8.91382"/>
      <point x="48.06382" y="-11.25"/>
      <point x="72.9" y="-11.25" type="curve" smooth="yes"/>
      <point x="97.73617999999999" y="-11.25"/>
      <point x="117.9" y="8.91382"/>
    </contour>
    <contour>
      <point x="32.9" y="187.5" type="line"/>
      <point x="112.9" y="187.5" type="line"/>
      <point x="112.9" y="400.0" type="line"/>
      <point x="32.9" y="400.0" type="line"/>
    </contour>
    <contour>
      <point x="32.9" y="400" type="line"/>
      <point x="112.9" y="400" type="line"/>
      <point x="112.9" y="600" type="line"/>
      <point x="32.9" y="600" type="line"/>
    </contour>
    <contour>
      <point x="32.9" y="600" type="line"/>
      <point x="112.9" y="600" type="line"/>
      <point x="112.9" y="800" type="line"/>
      <point x="32.9" y="800" type="line"/>
    </contour>
  </outline>
</glyph>
<glyph name="quotedouble" format="2">
  <advance width="260.8"/>
  <unicode hex="0022"/>
  <outline>
    <contour>
      <point x="32.9" y="700.0" type="line"/>
      <point x="77.0532" y="700.0"/>
      <point x="112.9" y="735.8468"/>
      <point x="112.9" y="780.0" type="curve"/>
      <point x="32.9" y="780.0" type="line"/>
    </contour>
    <contour>
      <point x="32.9" y="780.0" type="line"/>
      <point x="112.9" y="780.0" type="line"/>
      <point x="112.9" y="900.0" type="line"/>
      <point x="32.9" y="900.0" type="line"/>
    </contour>
    <contour>
      <point x="147.9" y="700.0" type="line"/>
      <point x="192.0532" y="700.0"/>
      <point x="227.9" y="735.8468"/>
      <point x="227.9" y="780.0" type="curve"/>
      <point x="147.9" y="780.0" type="line"/>
    </contour>
    <contour>
      <point x="147.9" y="780.0" type="line"/>
      <point x="227.9" y="780.0" type="line"/>
      <point x="227.9" y="900.0" type="line"/>
      <point x="147.9" y="900.0" type="line"/>
    </contour>
  </outline>
</glyph>
<glyph name="numbersign" format="2">
  <advance width="486.7863075134336"/>
  <unicode hex="0023"/>
  <outline>
    <contour>
      <point x="126.79185421335444" y="290.0" type="line"/>
      <point x="82.63865421335444" y="290.0"/>
      <point x="40.56712271816351" y="254.1532"/>
      <point x="32.9" y="210.0" type="curve"/>
      <point x="112.9" y="210.0" type="line"/>
    </contour>
    <contour>
      <point x="178.88630751343356" y="590.0" type="line"/>
      <point x="134.73310751343357" y="590.0"/>
      <point x="92.66157601824264" y="554.1532"/>
      <point x="84.99445330007913" y="510.0" type="curve"/>
      <point x="164.99445330007913" y="510.0" type="line"/>
    </contour>
    <contour>
      <point x="75.56564180160996" y="-5.0" type="line"/>
      <point x="119.71884180160998" y="-5.0"/>
      <point x="161.79037329680088" y="30.8468"/>
      <point x="169.4574960149644" y="75.0" type="curve"/>
      <point x="89.45749601496439" y="75.0" type="line"/>
    </contour>
    <contour>
      <point x="89.45749601496439" y="75.0" type="line"/>
      <point x="169.4574960149644" y="75.0" type="line"/>
      <point x="191.1635182233307" y="200.0" type="line"/>
      <point x="111.1635182233307" y="200.0" type="line"/>
    </contour>
    <contour>
      <point x="111.1635182233307" y="200" type="line"/>
      <point x="191.1635182233307" y="200" type="line"/>
      <point x="225.89315375671677" y="400" type="line"/>
      <point x="145.89315375671677" y="400" type="line"/>
    </contour>
    <contour>
      <point x="145.89315375671677" y="400" type="line"/>
      <point x="225.89315375671677" y="400" type="line"/>
      <point x="260.62278929010284" y="600" type="line"/>
      <point x="180.62278929010287" y="600" type="line"/>
    </contour>
    <contour>
      <point x="296.2206657118236" y="805.0" type="line"/>
      <point x="252.0674657118236" y="805.0"/>
      <point x="209.9959342166327" y="769.1532"/>
      <point x="202.32881149846918" y="725.0" type="curve"/>
      <point x="282.3288114984692" y="725.0" type="line"/>
    </contour>
    <contour>
      <point x="180.62278929010287" y="600" type="line"/>
      <point x="260.62278929010284" y="600" type="line"/>
      <point x="282.3288114984692" y="725.0" type="line"/>
      <point x="202.32881149846918" y="725.0" type="line"/>
    </contour>
    <contour>
      <point x="152.9" y="210.0" type="line"/>
      <point x="232.9" y="210.0" type="line"/>
      <point x="246.79185421335447" y="290.0" type="line"/>
      <point x="166.79185421335444" y="290.0" type="line"/>
    </contour>
    <contour>
      <point x="190.56564180160998" y="-5.0" type="line"/>
      <point x="234.71884180161" y="-5.0"/>
      <point x="276.79037329680085" y="30.8468"/>
      <point x="284.45749601496436" y="75.0" type="curve"/>
      <point x="204.4574960149644" y="75.0" type="line"/>
    </contour>
    <contour>
      <point x="204.4574960149644" y="75.0" type="line"/>
      <point x="284.45749601496436" y="75.0" type="line"/>
      <point x="306.1635182233307" y="200.0" type="line"/>
      <point x="226.16351822333073" y="200.0" type="line"/>
    </contour>
    <contour>
      <point x="226.16351822333073" y="200" type="line"/>
      <point x="306.1635182233307" y="200" type="line"/>
      <point x="340.89315375671674" y="400" type="line"/>
      <point x="260.89315375671674" y="400" type="line"/>
    </contour>
    <contour>
      <point x="260.89315375671674" y="400" type="line"/>
      <point x="340.89315375671674" y="400" type="line"/>
      <point x="375.62278929010284" y="600" type="line"/>
      <point x="295.62278929010284" y="600" type="line"/>
    </contour>
    <contour>
      <point x="411.2206657118236" y="805.0" type="line"/>
      <point x="367.06746571182356" y="805.0"/>
      <point x="324.99593421663263" y="769.1532"/>
      <point x="317.3288114984692" y="725.0" type="curve"/>
      <point x="397.3288114984692" y="725.0" type="line"/>
    </contour>
    <contour>
      <point x="295.62278929010284" y="600" type="line"/>
      <point x="375.62278929010284" y="600" type="line"/>
      <point x="397.3288114984692" y="725.0" type="line"/>
      <point x="317.3288114984692" y="725.0" type="line"/>
    </contour>
    <contour>
      <point x="239.99445330007913" y="510.0" type="line"/>
      <point x="319.9944533000791" y="510.0" type="line"/>
      <point x="333.88630751343356" y="590.0" type="line"/>
      <point x="253.8863075134336" y="590.0" type="line"/>
    </contour>
    <contour>
      <point x="307.9" y="210.0" type="line"/>
      <point x="352.0532" y="210.0"/>
      <point x="394.12473149519093" y="245.8468"/>
      <point x="401.79185421335444" y="290.0" type="curve"/>
      <point x="321.79185421335444" y="290.0" type="line"/>
    </contour>
    <contour>
      <point x="359.9944533000791" y="510.0" type="line"/>
      <point x="404.1476533000791" y="510.0"/>
      <point x="446.21918479527005" y="545.8468"/>
      <point x="453.88630751343356" y="590.0" type="curve"/>
      <point x="373.88630751343356" y="590.0" type="line"/>
    </contour>
  </outline>
</glyph>
<glyph name="dollar" format="2">
  <advance width="260.8"/>
  <unicode hex="0024"/>
  <outline>
    <contour>
      <point x="72.9" y="0" type="line"/>
      <point x="112.9" y="0" type="line"/>
      <point x="112.9" y="100.0" type="line"/>
      <point x="72.9" y="100.0" type="line"/>
    </contour>
    <contour>
      <point x="112.9" y="100.0" type="line"/>
      <point x="112.9" y="144.1532"/>
      <point x="77.0532" y="180.0"/>
      <point x="32.9" y="180.0" type="curve"/>
      <point x="32.9" y="100.0" type="line"/>
    </contour>
    <contour>
      <point x="32.9" y="440.0" type="line"/>
      <point x="32.9" y="395.8468"/>
      <point x="68.74680000000001" y="360.0"/>
      <point x="112.9" y="360.0" type="curve"/>
      <point x="112.9" y="440.0" type="line"/>
    </contour>
    <contour>
      <point x="32.9" y="440.0" type="line"/>
      <point x="112.9" y="440.0" type="line"/>
      <point x="112.9" y="500.0" type="line"/>
      <point x="32.9" y="500.0" type="line"/>
    </contour>
    <contour>
      <point x="112.9" y="700.0" type="line"/>
      <point x="68.74680000000001" y="700.0"/>
      <point x="32.9" y="664.1532"/>
      <point x="32.9" y="620.0" type="curve"/>
      <point x="112.9" y="620.0" type="line"/>
    </contour>
    <contour>
      <point x="32.9" y="500.0" type="line"/>
      <point x="112.9" y="500.0" type="line"/>
      <point x="112.9" y="620.0" type="line"/>
      <point x="32.9" y="620.0" type="line"/>
    </contour>
    <contour>
      <point x="72.9" y="600" type="line"/>
      <point x="112.9" y="600" type="line"/>
      <point x="112.9" y="700.0" type="line"/>
      <point x="72.9" y="700.0" type="line"/>
    </contour>
    <contour>
      <point x="72.9" y="700.0" type="line"/>
      <point x="112.9" y="700.0" type="line"/>
      <point x="112.9" y="800.0" type="line"/>
      <point x="72.9" y="800.0" type="line"/>
    </contour>
    <contour>
      <point x="147.9" y="0" type="line"/>
      <point x="187.9" y="0" type="line"/>
      <point x="187.9" y="100.0" type="line"/>
      <point x="147.9" y="100.0" type="line"/>
    </contour>
    <contour>
      <point x="147.9" y="100.0" type="line"/>
      <point x="187.9" y="100.0" type="line"/>
      <point x="187.9" y="200.0" type="line"/>
      <point x="147.9" y="200.0" type="line"/>
    </contour>
    <contour>
      <point x="147.9" y="100.0" type="line"/>
      <point x="192.0532" y="100.0"/>
      <point x="227.9" y="135.8468"/>
      <point x="227.9" y="180.0" type="curve"/>
      <point x="147.9" y="180.0" type="line"/>
    </contour>
    <contour>
      <point x="147.9" y="180.0" type="line"/>
      <point x="227.9" y="180.0" type="line"/>
      <point x="227.9" y="300.0" type="line"/>
      <point x="147.9" y="300.0" type="line"/>
    </contour>
    <contour>
      <point x="227.9" y="360.0" type="line"/>
      <point x="227.9" y="404.1532"/>
      <point x="192.0532" y="440.0"/>
      <point x="147.9" y="440.0" type="curve"/>
      <point x="147.9" y="360.0" type="line"/>
    </contour>
    <contour>
      <point x="147.9" y="300.0" type="line"/>
      <point x="227.9" y="300.0" type="line"/>
      <point x="227.9" y="360.0" type="line"/>
      <point x="147.9" y="360.0" type="line"/>
    </contour>
    <contour>
      <point x="145.4" y="700.0" type="line"/>
      <point x="145.4" y="655.8468"/>
      <point x="181.2468" y="620.0"/>
      <point x="225.4" y="620.0" type="curve"/>
      <point x="225.4" y="700.0" type="line"/>
    </contour>
    <contour>
      <point x="145.4" y="700.0" type="line"/>
      <point x="185.4" y="700.0" type="line"/>
      <point x="185.4" y="800.0" type="line"/>
      <point x="145.4" y="800.0" type="line"/>
    </contour>
  </outline>
</glyph>
<glyph name="ampersand" format="2">
  <advance width="340.8"/>
  <unicode hex="0026"/>
  <outline>
    <contour>
      <point x="32.9" y="75.0" type="line"/>
      <point x="32.9" y="30.8468"/>
      <point x="68.74680000000001" y="-5.0"/>
      <point x="112.9" y="-5.0" type="curve"/>
      <point x="112.9" y="75.0" type="line"/>
    </contour>
    <contour>
      <point x="32.9" y="75.0" type="line"/>
      <point x="112.9" y="75.0" type="line"/>
      <point x="112.9" y="200.0" type="line"/>
      <point x="32.9" y="200.0" type="line"/>
    </contour>
    <contour>
      <point x="112.9" y="400.0" type="line"/>
      <point x="68.74680000000001" y="400.0"/>
      <point x="32.9" y="364.1532"/>
      <point x="32.9" y="320.0" type="curve"/>
      <point x="112.9" y="320.0" type="line"/>
    </contour>
    <contour>
      <point x="32.9" y="200" type="line"/>
      <point x="112.9" y="200" type="line"/>
      <point x="112.9" y="320.0" type="line"/>
      <point x="32.9" y="320.0" type="line"/>
    </contour>
    <contour>
      <point x="32.9" y="480.0" type="line"/>
      <point x="32.9" y="435.8468"/>
      <point x="68.74680000000001" y="400.0"/>
      <point x="112.9" y="400.0" type="curve"/>
      <point x="112.9" y="480.0" type="line"/>
    </contour>
    <contour>
      <point x="32.9" y="480.0" type="line"/>
      <point x="112.9" y="480.0" type="line"/>
      <point x="112.9" y="600.0" type="line"/>
      <point x="32.9" y="600.0" type="line"/>
    </contour>
    <contour>
      <point x="112.9" y="800.0" type="line"/>
      <point x="68.74680000000001" y="800.0"/>
      <point x="32.9" y="764.1532"/>
      <point x="32.9" y="720.0" type="curve"/>
      <point x="112.9" y="720.0" type="line"/>
    </contour>
    <contour>
      <point x="32.9" y="600" type="line"/>
      <point x="112.9" y="600" type="line"/>
      <point x="112.9" y="720.0" type="line"/>
      <point x="32.9" y="720.0" type="line"/>
    </contour>
    <contour>
      <point x="147.9" y="-5.0" type="line"/>
      <point x="192.0532" y="-5.0"/>
      <point x="227.9" y="30.8468"/>
      <point x="227.9" y="75.0" type="curve"/>
      <point x="147.9" y="75.0" type="line"/>
    </contour>
    <contour>
      <point x="147.9" y="75.0" type="line"/>
      <point x="227.9" y="75.0" type="line"/>
      <point x="227.9" y="200.0" type="line"/>
      <point x="147.9" y="200.0" type="line"/>
    </contour>
    <contour>
      <point x="147.9" y="200" type="line"/>
      <point x="227.9" y="200" type="line"/>
      <point x="227.9" y="300.0" type="line"/>
      <point x="147.9" y="300.0" type="line"/>
    </contour>
    <contour>
      <point x="227.9" y="500.0" type="line"/>
      <point x="183.7468" y="500.0"/>
      <point x="147.9" y="464.1532"/>
      <point x="147.9" y="420.0" type="curve"/>
      <point x="227.9" y="420.0" type="line"/>
    </contour>
    <contour>
      <point x="147.9" y="300.0" type="line"/>
      <point x="227.9" y="300.0" type="line"/>
      <point x="227.9" y="420.0" type="line"/>
      <point x="147.9" y="420.0" type="line"/>
    </contour>
    <contour>
      <point x="142.9" y="800.0" type="line"/>
      <point x="142.9" y="755.8468"/>
      <point x="178.7468" y="720.0"/>
      <point x="222.9" y="720.0" type="curve"/>
      <point x="222.9" y="800.0" type="line"/>
    </contour>
    <contour>
      <point x="227.9" y="420.0" type="line"/>
      <point x="272.0532" y="420.0"/>
      <point x="307.9" y="455.8468"/>
      <point x="307.9" y="500.0" type="curve"/>
      <point x="227.9" y="500.0" type="line"/>
    </contour>
  </outline>
</glyph>
<glyph name="parenright" format="2">
  <advance width="145.8"/>
  <unicode hex="0029"/>
  <outline>
    <contour>
      <point x="32.9" y="-100.0" type="line"/>
      <point x="77.0532" y="-100.0"/>
      <point x="112.9" y="-64.1532"/>
      <point x="112.9" y="-20.0" type="curve"/>
      <point x="32.9" y="-20.0" type="line"/>
    </contour>
    <contour>
      <point x="32.9" y="-20.0" type="line"/>
      <point x="112.9" y="-20.0" type="line"/>
      <point x="112.9" y="100.0" type="line"/>
      <point x="32.9" y="100.0" type="line"/>
    </contour>
    <contour>
      <point x="32.9" y="100.0" type="line"/>
      <point x="112.9" y="100.0" type="line"/>
      <point x="112.9" y="300.0" type="line"/>
      <point x="32.9" y="300.0" type="line"/>
    </contour>
    <contour>
      <point x="32.9" y="300.0" type="line"/>
      <point x="112.9" y="300.0" type="line"/>
      <point x="112.9" y="500.0" type="line"/>
      <point x="32.9" y="500.0" type="line"/>
    </contour>
    <contour>
      <point x="32.9" y="500.0" type="line"/>
      <point x="112.9" y="500.0" type="line"/>
      <point x="112.9" y="700.0" type="line"/>
      <point x="32.9" y="700.0" type="line"/>
    </contour>
    <contour>
      <point x="112.9" y="820.0" type="line"/>
      <point x="112.9" y="864.1532"/>
      <point x="77.0532" y="900.0"/>
      <point x="32.9" y="900.0" type="curve"/>
      <point x="32.9" y="820.0" type="line"/>
    </contour>
    <contour>
      <point x="32.9" y="700.0" type="line"/>
      <point x="112.9" y="700.0" type="line"/>
      <point x="112.9" y="820.0" type="line"/>
      <point x="32.9" y="820.0" type="line"/>
    </contour>
  </outline>
</glyph>
<glyph name="asterisk" format="2">
  <advance width="277.2187528073469"/>
  <unicode hex="002A"/>
  <outline>
    <contour>
      <point x="244.31875280734693" y="723.5726558990816" type="line"/>
      <point x="217.65208614068027" y="769.7606774342516" type="line"/>
      <point x="32.9" y="663.0940107675851" type="line"/>
      <point x="59.566666666666684" y="616.905989232415" type="line"/>
    </contour>
    <contour>
      <point x="217.65208614068027" y="616.905989232415" type="line"/>
      <point x="244.31875280734693" y="663.094010767585" type="line"/>
      <point x="59.5666666666667" y="769.7606774342518" type="line"/>
      <point x="32.90000000000003" y="723.5726558990817" type="line"/>
    </contour>
    <contour>
      <point x="111.94270973700682" y="586.6666666666667" type="line"/>
      <point x="165.27604307034014" y="586.6666666666667" type="line"/>
      <point x="165.27604307034014" y="800.0" type="line"/>
      <point x="111.94270973700682" y="800.0" type="line"/>
    </contour>
  </outline>
</glyph>
<glyph name="plus" format="2">
  <advance width="375.8"/>
  <unicode hex="002B"/>
  <outline>
    <contour>
      <point x="67.9" y="360.0" type="line"/>
      <point x="147.9" y="360.0" type="line"/>
      <point x="147.9" y="440.0" type="line"/>
      <point x="67.9" y="440.0" type="line"/>
    </contour>
    <contour>
      <point x="147.9" y="220.0" type="line"/>
      <point x="227.9" y="220.0" type="line"/>
      <point x="227.9" y="300.0" type="line"/>
      <point x="147.9" y="300.0" type="line"/>
    </contour>
    <contour>
      <point x="147.9" y="300.0" type="line"/>
      <point x="227.9" y="300.0" type="line"/>
      <point x="227.9" y="500.0" type="line"/>
      <point x="147.9" y="500.0" type="line"/>
    </contour>
    <contour>
      <point x="147.9" y="500.0" type="line"/>
      <point x="227.9" y="500.0" type="line"/>
      <point x="227.9" y="580.0" type="line"/>
      <point x="147.9" y="580.0" type="line"/>
    </contour>
    <contour>
      <point x="227.9" y="360.0" type="line"/>
      <point x="307.9" y="360.0" type="line"/>
      <point x="307.9" y="440.0" type="line"/>
      <point x="227.9" y="440.0" type="line"/>
    </contour>
  </outline>
</glyph>
<glyph name="hyphen" format="2">
  <advance width="260.8"/>
  <unicode hex="002D"/>
  <outline>
    <contour>
      <point x="32.9" y="360.0" type="line"/>
      <point x="112.9" y="360.0" type="line"/>
      <point x="112.9" y="440.0" type="line"/>
      <point x="32.9" y="440.0" type="line"/>
    </contour>
    <contour>
      <point x="112.9" y="360.0" type="line"/>
      <point x="147.9" y="360.0" type="line"/>
      <point x="147.9" y="440.0" type="line"/>
      <point x="112.9" y="440.0" type="line"/>
    </contour>
    <contour>
      <point x="147.9" y="360.0" type="line"/>
      <point x="227.9" y="360.0" type="line"/>
      <point x="227.9" y="440.0" type="line"/>
      <point x="147.9" y="440.0" type="line"/>
    </contour>
  </outline>
</glyph>
<glyph name="period" format="2">
  <advance width="145.8"/>
  <unicode hex="002E"/>
  <outline>
    <contour>
      <point x="117.9" y="33.75" type="curve" smooth="yes"/>
      <point x="117.9" y="58.58618"/>
      <point x="97.73617999999999" y="78.75"/>
      <point x="72.9" y="78.75" type="curve" smooth="yes"/>
      <point x="48.06382" y="78.75"/>
      <point x="27.9" y="58.58618"/>
      <point x="27.9" y="33.75" type="curve" smooth="yes"/>
      <point x="27.9" y="8.91382"/>
      <point x="48.06382" y="-11.25"/>
      <point x="72.9" y="-11.25" type="curve" smooth="yes"/>
      <point x="97.73617999999999" y="-11.25"/>
      <point x="117.9" y="8.91382"/>
    </contour>
  </outline>
</glyph>
<glyph name="slash" format="2">
  <advance width="318.232797907907"/>
  <unicode hex="002F"/>
  <outline>
    <contour>
      <point x="32.9" y="-85.45794939942675" type="line"/>
      <point x="76.38241368029861" y="-93.12507211759026"/>
      <point x="117.90935173616757" y="-64.04759705210319"/>
      <point x="125.57647445433108" y="-20.565183371804608" type="curve"/>
      <point x="46.79185421335443" y="-6.673329158450144" type="line"/>
    </contour>
    <contour>
      <point x="46.79185421335443" y="-6.673329158450144" type="line"/>
      <point x="125.57647445433108" y="-20.565183371804608" type="line"/>
      <point x="146.41425577436272" y="97.61174698966039" type="line"/>
      <point x="67.62963553338605" y="111.50360120301485" type="line"/>
    </contour>
    <contour>
      <point x="67.62963553338605" y="111.50360120301485" type="line"/>
      <point x="146.41425577436272" y="97.61174698966039" type="line"/>
      <point x="181.14389130774876" y="294.573297592102" type="line"/>
      <point x="102.35927106677212" y="308.4651518054564" type="line"/>
    </contour>
    <contour>
      <point x="102.35927106677212" y="308.4651518054564" type="line"/>
      <point x="181.14389130774876" y="294.573297592102" type="line"/>
      <point x="215.87352684113486" y="491.5348481945436" type="line"/>
      <point x="137.0889066001582" y="505.426702407898" type="line"/>
    </contour>
    <contour>
      <point x="137.0889066001582" y="505.426702407898" type="line"/>
      <point x="215.87352684113486" y="491.5348481945436" type="line"/>
      <point x="250.6031623745209" y="688.4963987969852" type="line"/>
      <point x="171.81854213354427" y="702.3882530103397" type="line"/>
    </contour>
    <contour>
      <point x="285.332797907907" y="885.4579493994268" type="line"/>
      <point x="241.85038422760837" y="893.1250721175902"/>
      <point x="200.32344617173942" y="864.0475970521031"/>
      <point x="192.6563234535759" y="820.5651833718046" type="curve"/>
      <point x="271.4409436945525" y="806.6733291584501" type="line"/>
    </contour>
    <contour>
      <point x="171.81854213354427" y="702.3882530103397" type="line"/>
      <point x="250.6031623745209" y="688.4963987969852" type="line"/>
      <point x="271.4409436945525" y="806.6733291584501" type="line"/>
      <point x="192.6563234535759" y="820.5651833718046" type="line"/>
    </contour>
  </outline>
</glyph>
<glyph name="three" format="2">
  <advance width="260.8"/>
  <unicode hex="0033"/>
  <outline>
    <contour>
      <point x="117.9" y="40.0" type="curve" smooth="yes"/>
      <point x="117.9" y="64.83618"/>
      <point x="97.73617999999999" y="85.0"/>
      <point x="72.9" y="85.0" type="curve" smooth="yes"/>
      <point x="48.06382" y="85.0"/>
      <point x="27.9" y="64.83618"/>
      <point x="27.9" y="40.0" type="curve" smooth="yes"/>
      <point x="27.9" y="15.16382"/>
      <point x="48.06382" y="-5.0"/>
      <point x="72.9" y="-5.0" type="curve" smooth="yes"/>
      <point x="97.73617999999999" y="-5.0"/>
      <point x="117.9" y="15.16382"/>
    </contour>
    <contour>
      <point x="117.9" y="760.0" type="curve" smooth="yes"/>
      <point x="117.9" y="784.83618"/>
      <point x="97.73617999999999" y="805.0"/>
      <point x="72.9" y="805.0" type="curve" smooth="yes"/>
      <point x="48.06382" y="805.0"/>
      <point x="27.9" y="784.83618"/>
      <point x="27.9" y="760.0" type="curve" smooth="yes"/>
      <point x="27.9" y="735.16382"/>
      <point x="48.06382" y="715.0"/>
      <point x="72.9" y="715.0" type="curve" smooth="yes"/>
      <point x="97.73617999999999" y="715.0"/>
      <point x="117.9" y="735.16382"/>
    </contour>
    <contour>
      <point x="147.9" y="-5.0" type="line"/>
      <point x="192.0532" y="-5.0"/>
      <point x="227.9" y="30.8468"/>
      <point x="227.9" y="75.0" type="curve"/>
      <point x="147.9" y="75.0" type="line"/>
    </contour>
    <contour>
      <point x="147.9" y="75.0" type="line"/>
      <point x="227.9" y="75.0" type="line"/>
      <point x="227.9" y="200.0" type="line"/>
      <point x="147.9" y="200.0" type="line"/>
    </contour>
    <contour>
      <point x="227.9" y="320.0" type="line"/>
      <point x="227.9" y="364.1532"/>
      <point x="192.0532" y="400.0"/>
      <point x="147.9" y="400.0" type="curve"/>
      <point x="147.9" y="320.0" type="line"/>
    </contour>
    <contour>
      <point x="147.9" y="200" type="line"/>
      <point x="227.9" y="200" type="line"/>
      <point x="227.9" y="320.0" type="line"/>
      <point x="147.9" y="320.0" type="line"/>
    </contour>
    <contour>
      <point x="147.9" y="400.0" type="line"/>
      <point x="192.0532" y="400.0"/>
      <point x="227.9" y="435.8468"/>
      <point x="227.9" y="480.0" type="curve"/>
      <point x="147.9" y="480.0" type="line"/>
    </contour>
    <contour>
      <point x="147.9" y="480.0" type="line"/>
      <point x="227.9" y="480.0" type="line"/>
      <point x="227.9" y="600.0" type="line"/>
      <point x="147.9" y="600.0" type="line"/>
    </contour>
    <contour>
      <point x="227.9" y="725.0" type="line"/>
      <point x="227.9" y="769.1532"/>
      <point x="192.0532" y="805.0"/>
      <point x="147.9" y="805.0" type="curve"/>
      <point x="147.9" y="725.0" type="line"/>
    </contour>
    <contour>
      <point x="147.9" y="600" type="line"/>
      <point x="227.9" y="600" type="line"/>
      <point x="227.9" y="725.0" type="line"/>
      <point x="147.9" y="725.0" type="line"/>
    </contour>
  </outline>
</glyph>
<glyph name="five" format="2">
  <advance width="260.8"/>
  <unicode hex="0035"/>
  <outline>
    <contour>
      <point x="117.9" y="35.0" type="curve" smooth="yes"/>
      <point x="117.9" y="59.83618"/>
      <point x="97.73617999999999" y="80.0"/>
      <point x="72.9" y="80.0" type="curve" smooth="yes"/>
      <point x="48.06382" y="80.0"/>
      <point x="27.9" y="59.83618"/>
      <point x="27.9" y="35.0" type="curve" smooth="yes"/>
      <point x="27.9" y="10.16382"/>
      <point x="48.06382" y="-10.0"/>
      <point x="72.9" y="-10.0" type="curve" smooth="yes"/>
      <point x="97.73617999999999" y="-10.0"/>
      <point x="117.9" y="10.16382"/>
    </contour>
    <contour>
      <point x="35.4" y="440.0" type="line"/>
      <point x="35.4" y="395.8468"/>
      <point x="71.24680000000001" y="360.0"/>
      <point x="115.4" y="360.0" type="curve"/>
      <point x="115.4" y="440.0" type="line"/>
    </contour>
    <contour>
      <point x="35.4" y="440.0" type="line"/>
      <point x="115.4" y="440.0" type="line"/>
      <point x="115.4" y="500.0" type="line"/>
      <point x="35.4" y="500.0" type="line"/>
    </contour>
    <contour>
      <point x="35.4" y="500.0" type="line"/>
      <point x="115.4" y="500.0" type="line"/>
      <point x="115.4" y="600.0" type="line"/>
      <point x="35.4" y="600.0" type="line"/>
    </contour>
    <contour>
      <point x="35.4" y="600" type="line"/>
      <point x="115.4" y="600" type="line"/>
      <point x="115.4" y="800" type="line"/>
      <point x="35.4" y="800" type="line"/>
    </contour>
    <contour>
      <point x="147.9" y="-5.0" type="line"/>
      <point x="192.0532" y="-5.0"/>
      <point x="227.9" y="30.8468"/>
      <point x="227.9" y="75.0" type="curve"/>
      <point x="147.9" y="75.0" type="line"/>
    </contour>
    <contour>
      <point x="147.9" y="75.0" type="line"/>
      <point x="227.9" y="75.0" type="line"/>
      <point x="227.9" y="200.0" type="line"/>
      <point x="147.9" y="200.0" type="line"/>
    </contour>
    <contour>
      <point x="147.9" y="200" type="line"/>
      <point x="227.9" y="200" type="line"/>
      <point x="227.9" y="300.0" type="line"/>
      <point x="147.9" y="300.0" type="line"/>
    </contour>
    <contour>
      <point x="227.9" y="360.0" type="line"/>
      <point x="227.9" y="404.1532"/>
      <point x="192.0532" y="440.0"/>
      <point x="147.9" y="440.0" type="curve"/>
      <point x="147.9" y="360.0" type="line"/>
    </contour>
    <contour>
      <point x="147.9" y="300.0" type="line"/>
      <point x="227.9" y="300.0" type="line"/>
      <point x="227.9" y="360.0" type="line"/>
      <point x="147.9" y="360.0" type="line"/>
    </contour>
    <contour>
      <point x="145.4" y="800.0" type="line"/>
      <point x="145.4" y="755.8468"/>
      <point x="181.2468" y="720.0"/>
      <point x="225.4" y="720.0" type="curve"/>
      <point x="225.4" y="800.0" type="line"/>
    </contour>
  </outline>
</glyph>
<glyph name="six" format="2">
  <advance width="260.8"/>
  <unicode hex="0036"/>
  <outline>
    <contour>
      <point x="32.9" y="75.0" type="line"/>
      <point x="32.9" y="30.8468"/>
      <point x="68.74680000000001" y="-5.0"/>
      <point x="112.9" y="-5.0" type="curve"/>
      <point x="112.9" y="75.0" type="line"/>
    </contour>
    <contour>
      <point x="32.9" y="75.0" type="line"/>
      <point x="112.9" y="75.0" type="line"/>
      <point x="112.9" y="200.0" type="line"/>
      <point x="32.9" y="200.0" type="line"/>
    </contour>
    <contour>
      <point x="32.9" y="200" type="line"/>
      <point x="112.9" y="200" type="line"/>
      <point x="112.9" y="400" type="line"/>
      <point x="32.9" y="400" type="line"/>
    </contour>
    <contour>
      <point x="32.9" y="400" type="line"/>
      <point x="112.9" y="400" type="line"/>
      <point x="112.9" y="600" type="line"/>
      <point x="32.9" y="600" type="line"/>
    </contour>
    <contour>
      <point x="112.9" y="805.0" type="line"/>
      <point x="68.74680000000001" y="805.0"/>
      <point x="32.9" y="769.1532"/>
      <point x="32.9" y="725.0" type="curve"/>
      <point x="112.9" y="725.0" type="line"/>
    </contour>
    <contour>
      <point x="32.9" y="600" type="line"/>
      <point x="112.9" y="600" type="line"/>
      <point x="112.9" y="725.0" type="line"/>
      <point x="32.9" y="725.0" type="line"/>
    </contour>
    <contour>
      <point x="147.9" y="-5.0" type="line"/>
      <point x="192.0532" y="-5.0"/>
      <point x="227.9" y="30.8468"/>
      <point x="227.9" y="75.0" type="curve"/>
      <point x="147.9" y="75.0" type="line"/>
    </contour>
    <contour>
      <point x="147.9" y="75.0" type="line"/>
      <point x="227.9" y="75.0" type="line"/>
      <point x="227.9" y="200.0" type="line"/>
      <point x="147.9" y="200.0" type="line"/>
    </contour>
    <contour>
      <point x="147.9" y="200" type="line"/>
      <point x="227.9" y="200" type="line"/>
      <point x="227.9" y="300.0" type="line"/>
      <point x="147.9" y="300.0" type="line"/>
    </contour>
    <contour>
      <point x="227.9" y="420.0" type="line"/>
      <point x="227.9" y="464.1532"/>
      <point x="192.0532" y="500.0"/>
      <point x="147.9" y="500.0" type="curve"/>
      <point x="147.9" y="420.0" type="line"/>
    </contour>
    <contour>
      <point x="147.9" y="300.0" type="line"/>
      <point x="227.9" y="300.0" type="line"/>
      <point x="227.9" y="420.0" type="line"/>
      <point x="147.9" y="420.0" type="line"/>
    </contour>
    <contour>
      <point x="225.4" y="765.0" type="curve" smooth="yes"/>
      <point x="225.4" y="787.0766"/>
      <point x="207.47660000000002" y="805.0"/>
      <point x="185.4" y="805.0" type="curve" smooth="yes"/>
      <point x="163.3234" y="805.0"/>
      <point x="145.4" y="787.0766"/>
      <point x="145.4" y="765.0" type="curve" smooth="yes"/>
      <point x="145.4" y="742.9234"/>
      <point x="163.3234" y="725.0"/>
      <point x="185.4" y="725.0" type="curve" smooth="yes"/>
      <point x="207.47660000000002" y="725.0"/>
      <point x="225.4" y="742.9234"/>
    </contour>
  </outline>
</glyph>
<glyph name="nine" format="2">
  <advance width="260.8"/>
  <unicode hex="0039"/>
  <outline>
    <contour>
      <point x="120.4" y="35.0" type="curve" smooth="yes"/>
      <point x="120.4" y="59.83618"/>
      <point x="100.23617999999999" y="80.0"/>
      <point x="75.4" y="80.0" type="curve" smooth="yes"/>
      <point x="50.56382" y="80.0"/>
      <point x="30.4" y="59.83618"/>
      <point x="30.4" y="35.0" type="curve" smooth="yes"/>
      <point x="30.4" y="10.16382"/>
      <point x="50.56382" y="-10.0"/>
      <point x="75.4" y="-10.0" type="curve" smooth="yes"/>
      <point x="100.23617999999999" y="-10.0"/>
      <point x="120.4" y="10.16382"/>
    </contour>
    <contour>
      <point x="32.9" y="380.0" type="line"/>
      <point x="32.9" y="335.8468"/>
      <point x="68.74680000000001" y="300.0"/>
      <point x="112.9" y="300.0" type="curve"/>
      <point x="112.9" y="380.0" type="line"/>
    </contour>
    <contour>
      <point x="32.9" y="380.0" type="line"/>
      <point x="112.9" y="380.0" type="line"/>
      <point x="112.9" y="500.0" type="line"/>
      <point x="32.9" y="500.0" type="line"/>
    </contour>
    <contour>
      <point x="32.9" y="500.0" type="line"/>
      <point x="112.9" y="500.0" type="line"/>
      <point x="112.9" y="600.0" type="line"/>
      <point x="32.9" y="600.0" type="line"/>
    </contour>
    <contour>
      <point x="112.9" y="805.0" type="line"/>
      <point x="68.74680000000001" y="805.0"/>
      <point x="32.9" y="769.1532"/>
      <point x="32.9" y="725.0" type="curve"/>
      <point x="112.9" y="725.0" type="line"/>
    </contour>
    <contour>
      <point x="32.9" y="600" type="line"/>
      <point x="112.9" y="600" type="line"/>
      <point x="112.9" y="725.0" type="line"/>
      <point x="32.9" y="725.0" type="line"/>
    </contour>
    <contour>
      <point x="147.9" y="-5.0" type="line"/>
      <point x="192.0532" y="-5.0"/>
      <point x="227.9" y="30.8468"/>
      <point x="227.9" y="75.0" type="curve"/>
      <point x="147.9" y="75.0" type="line"/>
    </contour>
    <contour>
      <point x="147.9" y="75.0" type="line"/>
      <point x="227.9" y="75.0" type="line"/>
      <point x="227.9" y="200.0" type="line"/>
      <point x="147.9" y="200.0" type="line"/>
    </contour>
    <contour>
      <point x="147.9" y="200" type="line"/>
      <point x="227.9" y="200" type="line"/>
      <point x="227.9" y="400" type="line"/>
      <point x="147.9" y="400" type="line"/>
    </contour>
    <contour>
      <point x="147.9" y="400" type="line"/>
      <point x="227.9" y="400" type="line"/>
      <point x="227.9" y="600" type="line"/>
      <point x="147.9" y="600" type="line"/>
    </contour>
    <contour>
      <point x="227.9" y="725.0" type="line"/>
      <point x="227.9" y="769.1532"/>
      <point x="192.0532" y="805.0"/>
      <point x="147.9" y="805.0" type="curve"/>
      <point x="147.9" y="725.0" type="line"/>
    </contour>
    <contour>
      <point x="147.9" y="600" type="line"/>
      <point x="227.9" y="600" type="line"/>
      <point x="227.9" y="725.0" type="line"/>
      <point x="147.9" y="725.0" type="line"/>
    </contour>
  </outline>
</glyph>
<glyph name="semicolon" format="2">
  <advance width="145.8"/>
  <unicode hex="003B"/>
  <outline>
    <contour>
      <point x="32.9" y="-100.0" type="line"/>
      <point x="77.0532" y="-100.0"/>
      <point x="112.9" y="-64.1532"/>
      <point x="112.9" y="-20.0" type="curve"/>
      <point x="32.9" y="-20.0" type="line"/>
    </contour>
    <contour>
      <point x="32.9" y="-20.0" type="line"/>
      <point x="112.9" y="-20.0" type="line"/>
      <point x="112.9" y="100.0" type="line"/>
      <point x="32.9" y="100.0" type="line"/>
    </contour>
    <contour>
      <point x="117.9" y="560.0" type="curve" smooth="yes"/>
      <point x="117.9" y="584.83618"/>
      <point x="97.73617999999999" y="605.0"/>
      <point x="72.9" y="605.0" type="curve" smooth="yes"/>
      <point x="48.06382" y="605.0"/>
      <point x="27.9" y="584.83618"/>
      <point x="27.9" y="560.0" type="curve" smooth="yes"/>
      <point x="27.9" y="535.16382"/>
      <point x="48.06382" y="515.0"/>
      <point x="72.9" y="515.0" type="curve" smooth="yes"/>
      <point x="97.73617999999999" y="515.0"/>
      <point x="117.9" y="535.16382"/>
    </contour>
  </outline>
</glyph>
<glyph name="less" format="2">
  <advance width="225.8"/>
  <unicode hex="003C"/>
  <outline>
    <contour>
      <point x="32.9" y="180.0" type="line"/>
      <point x="32.9" y="135.8468"/>
      <point x="68.74680000000001" y="100.0"/>
      <point x="112.9" y="100.0" type="curve"/>
      <point x="112.9" y="180.0" type="line"/>
    </contour>
    <contour>
      <point x="32.9" y="180.0" type="line"/>
      <point x="112.9" y="180.0" type="line"/>
      <point x="112.9" y="300.0" type="line"/>
      <point x="32.9" y="300.0" type="line"/>
    </contour>
    <contour>
      <point x="32.9" y="300.0" type="line"/>
      <point x="112.9" y="300.0" type="line"/>
      <point x="112.9" y="500.0" type="line"/>
      <point x="32.9" y="500.0" type="line"/>
    </contour>
    <contour>
      <point x="112.9" y="700.0" type="line"/>
      <point x="68.74680000000001" y="700.0"/>
      <point x="32.9" y="664.1532"/>
      <point x="32.9" y="620.0" type="curve"/>
      <point x="112.9" y="620.0" type="line"/>
    </contour>
    <contour>
      <point x="32.9" y="500.0" type="line"/>
      <point x="112.9" y="500.0" type="line"/>
      <point x="112.9" y="620.0" type="line"/>
      <point x="32.9" y="620.0" type="line"/>
    </contour>
    <contour>
      <point x="192.9" y="100.0" type="line"/>
      <point x="192.9" y="144.1532"/>
      <point x="157.0532" y="180.0"/>
      <point x="112.9" y="180.0" type="curve"/>
      <point x="112.9" y="100.0" type="line"/>
    </contour>
    <contour>
      <point x="112.9" y="620.0" type="line"/>
      <point x="157.0532" y="620.0"/>
      <point x="192.9" y="655.8468"/>
      <point x="192.9" y="700.0" type="curve"/>
      <point x="112.9" y="700.0" type="line"/>
    </contour>
  </outline>
</glyph>
<glyph name="equal" format="2">
  <advance width="375.8"/>
  <unicode hex="003D"/>
  <outline>
    <contour>
      <point x="67.9" y="270.0" type="line"/>
      <point x="147.9" y="270.0" type="line"/>
      <point x="147.9" y="350.0" type="line"/>
      <point x="67.9" y="350.0" type="line"/>
    </contour>
    <contour>
      <point x="67.9" y="450.0" type="line"/>
      <point x="147.9" y="450.0" type="line"/>
      <point x="147.9" y="530.0" type="line"/>
      <point x="67.9" y="530.0" type="line"/>
    </contour>
    <contour>
      <point x="147.9" y="270.0" type="line"/>
      <point x="227.9" y="270.0" type="line"/>
      <point x="227.9" y="350.0" type="line"/>
      <point x="147.9" y="350.0" type="line"/>
    </contour>
    <contour>
      <point x="147.9" y="450.0" type="line"/>
      <point x="227.9" y="450.0" type="line"/>
      <point x="227.9" y="530.0" type="line"/>
      <point x="147.9" y="530.0" type="line"/>
    </contour>
    <contour>
      <point x="227.9" y="270.0" type="line"/>
      <point x="307.9" y="270.0" type="line"/>
      <point x="307.9" y="350.0" type="line"/>
      <point x="227.9" y="350.0" type="line"/>
    </contour>
    <contour>
      <point x="227.9" y="450.0" type="line"/>
      <point x="307.9" y="450.0" type="line"/>
      <point x="307.9" y="530.0" type="line"/>
      <point x="227.9" y="530.0" type="line"/>
    </contour>
  </outline>
</glyph>
<glyph name="question" format="2">
  <advance width="260.8"/>
  <unicode hex="003F"/>
  <outline>
    <contour>
      <point x="117.9" y="33.75" type="curve" smooth="yes"/>
      <point x="117.9" y="58.58618"/>
      <point x="97.73617999999999" y="78.75"/>
      <point x="72.9" y="78.75" type="curve" smooth="yes"/>
      <point x="48.06382" y="78.75"/>
      <point x="27.9" y="58.58618"/>
      <point x="27.9" y="33.75" type="curve" smooth="yes"/>
      <point x="27.9" y="8.91382"/>
      <point x="48.06382" y="-11.25"/>
      <point x="72.9" y="-11.25" type="curve" smooth="yes"/>
      <point x="97.73617999999999" y="-11.25"/>
      <point x="117.9" y="8.91382"/>
    </contour>
    <contour>
      <point x="32.9" y="187.5" type="line"/>
      <point x="112.9" y="187.5" type="line"/>
      <point x="112.9" y="400.0" type="line"/>
      <point x="32.9" y="400.0" type="line"/>
    </contour>
    <contour>
      <point x="112.9" y="480.0" type="line"/>
      <point x="68.74680000000001" y="480.0"/>
      <point x="32.9" y="444.1532"/>
      <point x="32.9" y="400.0" type="curve"/>
      <point x="112.9" y="400.0" type="line"/>
    </contour>
    <contour>
      <point x="117.9" y="772.5" type="curve" smooth="yes"/>
      <point x="117.9" y="797.33618"/>
      <point x="97.73617999999999" y="817.5"/>
      <point x="72.9" y="817.5" type="curve" smooth="yes"/>
      <point x="48.06382" y="817.5"/>
      <point x="27.9" y="797.33618"/>
      <point x="27.9" y="772.5" type="curve" smooth="yes"/>
      <point x="27.9" y="747.66382"/>
      <point x="48.06382" y="727.5"/>
      <point x="72.9" y="727.5" type="curve" smooth="yes"/>
      <point x="97.73617999999999" y="727.5"/>
      <point x="117.9" y="747.66382"/>
    </contour>
    <contour>
      <point x="147.9" y="405.0" type="line"/>
      <point x="192.0532" y="405.0"/>
      <point x="227.9" y="440.8468"/>
      <point x="227.9" y="485.0" type="curve"/>
      <point x="147.9" y="485.0" type="line"/>
    </contour>
    <contour>
      <point x="147.9" y="485.0" type="line"/>
      <point x="227.9" y="485.0" type="line"/>
      <point x="227.9" y="605.0" type="line"/>
      <point x="147.9" y="605.0" type="line"/>
    </contour>
    <contour>
      <point x="227.9" y="725.0" type="line"/>
      <point x="227.9" y="769.1532"/>
      <point x="192.0532" y="805.0"/>
      <point x="147.9" y="805.0" type="curve"/>
      <point x="147.9" y="725.0" type="line"/>
    </contour>
    <contour>
      <point x="147.9" y="605.0" type="line"/>
      <point x="227.9" y="605.0" type="line"/>
      <point x="227.9" y="725.0" type="line"/>
      <point x="147.9" y="725.0" type="line"/>
    </contour>
  </outline>
</glyph>
<glyph name="at" format="2">
  <advance width="792.0197800000001"/>
  <unicode hex="0040"/>
  <outline>
    <contour>
      <point x="293.50989000000004" y="280.0" type="curve"/>
      <point x="373.50989000000004" y="280.0" type="line"/>
      <point x="373.50989000000004" y="200.0" type="line"/>
      <point x="329.35668999999996" y="200.0"/>
      <point x="293.50989000000004" y="235.8468"/>
    </contour>
    <contour>
      <point x="293.50989000000004" y="280.0" type="line"/>
      <point x="293.50989000000004" y="400.0" type="line"/>
      <point x="373.50989000000004" y="400.0" type="line"/>
      <point x="373.50989000000004" y="280.0" type="line"/>
    </contour>
    <contour>
      <point x="373.50989000000004" y="600.0" type="curve"/>
      <point x="373.50989000000004" y="520.0" type="line"/>
      <point x="293.50989000000004" y="520.0" type="line"/>
      <point x="293.50989000000004" y="564.1532"/>
      <point x="329.35668999999996" y="600.0"/>
    </contour>
    <contour>
      <point x="293.50989000000004" y="400" type="line"/>
      <point x="293.50989000000004" y="520.0" type="line"/>
      <point x="373.50989000000004" y="520.0" type="line"/>
      <point x="373.50989000000004" y="400" type="line"/>
    </contour>
    <contour>
      <point x="408.50989000000004" y="280.0" type="curve"/>
      <point x="488.50989000000004" y="280.0" type="line"/>
      <point x="488.50989000000004" y="200.0" type="line"/>
      <point x="444.35668999999996" y="200.0"/>
      <point x="408.50989000000004" y="235.8468"/>
    </contour>
    <contour>
      <point x="408.50989000000004" y="280.0" type="line"/>
      <point x="408.50989000000004" y="400.0" type="line"/>
      <point x="488.50989000000004" y="400.0" type="line"/>
      <point x="488.50989000000004" y="280.0" type="line"/>
    </contour>
    <contour>
      <point x="408.50989000000004" y="400" type="line"/>
      <point x="408.50989000000004" y="600" type="line"/>
      <point x="488.50989000000004" y="600" type="line"/>
      <point x="488.50989000000004" y="400" type="line"/>
    </contour>
    <contour>
      <point x="719.11978" y="400.0" type="curve" smooth="yes"/>
      <point x="719.11978" y="578.3292"/>
      <point x="574.33909" y="723.10989"/>
      <point x="396.00989000000004" y="723.10989" type="curve" smooth="yes"/>
      <point x="217.68069" y="723.10989"/>
      <point x="72.9" y="578.3292"/>
      <point x="72.9" y="400.0" type="curve" smooth="yes"/>
      <point x="72.9" y="221.6708"/>
      <point x="217.68069" y="76.89011"/>
      <point x="396.00989000000004" y="76.89011" type="curve" smooth="yes"/>
      <point x="574.33909" y="76.89011"/>
      <point x="719.11978" y="221.6708"/>
    </contour>
  </outline>
</glyph>
<glyph name="C" format="2">
  <advance width="260.8"/>
  <unicode hex="0043"/>
  <outline>
    <contour>
      <point x="32.9" y="80.0" type="line"/>
      <point x="32.9" y="35.8468"/>
      <point x="68.74680000000001" y="0.0"/>
      <point x="112.9" y="0.0" type="curve"/>
      <point x="112.9" y="80.0" type="line"/>
    </contour>
    <contour>
      <point x="32.9" y="80.0" type="line"/>
      <point x="112.9" y="80.0" type="line"/>
      <point x="112.9" y="200.0" type="line"/>
      <point x="32.9" y="200.0" type="line"/>
    </contour>
    <contour>
      <point x="32.9" y="200" type="line"/>
      <point x="112.9" y="200" type="line"/>
      <point x="112.9" y="400" type="line"/>
      <point x="32.9" y="400" type="line"/>
    </contour>
    <contour>
      <point x="32.9" y="400" type="line"/>
      <point x="112.9" y="400" type="line"/>
      <point x="112.9" y="600" type="line"/>
      <point x="32.9" y="600" type="line"/>
    </contour>
    <contour>
      <point x="112.9" y="800.0" type="line"/>
      <point x="68.74680000000001" y="800.0"/>
      <point x="32.9" y="764.1532"/>
      <point x="32.9" y="720.0" type="curve"/>
      <point x="112.9" y="720.0" type="line"/>
    </contour>
    <contour>
      <point x="32.9" y="600" type="line"/>
      <point x="112.9" y="600" type="line"/>
      <point x="112.9" y="720.0" type="line"/>
      <point x="32.9" y="720.0" type="line"/>
    </contour>
    <contour>
      <point x="227.9" y="80.0" type="line"/>
      <point x="183.7468" y="80.0"/>
      <point x="147.9" y="44.1532"/>
      <point x="147.9" y="0.0" type="curve"/>
      <point x="227.9" y="0.0" type="line"/>
    </contour>
    <contour>
      <point x="147.9" y="600.0" type="line"/>
      <point x="147.9" y="555.8468"/>
      <point x="183.7468" y="520.0"/>
      <point x="227.9" y="520.0" type="curve"/>
      <point x="227.9" y="600.0" type="line"/>
    </contour>
    <contour>
      <point x="147.9" y="600" type="line"/>
      <point x="227.9" y="600" type="line"/>
      <point x="227.9" y="800" type="line"/>
      <point x="147.9" y="800" type="line"/>
    </contour>
  </outline>
</glyph>
<glyph name="D" format="2">
  <advance width="260.8"/>
  <unicode hex="0044"/>
  <outline>
    <contour>
      <point x="32.9" y="0" type="line"/>
      <point x="112.9" y="0" type="line"/>
      <point x="112.9" y="200" type="line"/>
      <point x="32.9" y="200" type="line"/>
    </contour>
    <contour>
      <point x="32.9" y="200" type="line"/>
      <point x="112.9" y="200" type="line"/>
      <point x="112.9" y="400" type="line"/>
      <point x="32.9" y="400" type="line"/>
    </contour>
    <contour>
      <point x="32.9" y="400" type="line"/>
      <point x="112.9" y="400" type="line"/>
      <point x="112.9" y="600" type="line"/>
      <point x="32.9" y="600" type="line"/>
    </contour>
    <contour>
      <point x="32.9" y="600" type="line"/>
      <point x="112.9" y="600" type="line"/>
      <point x="112.9" y="800" type="line"/>
      <point x="32.9" y="800" type="line"/>
    </contour>
    <contour>
      <point x="147.9" y="0.0" type="line"/>
      <point x="192.0532" y="0.0"/>
      <point x="227.9" y="35.8468"/>
      <point x="227.9" y="80.0" type="curve"/>
      <point x="147.9" y="80.0" type="line"/>
    </contour>
    <contour>
      <point x="147.9" y="80.0" type="line"/>
      <point x="227.9" y="80.0" type="line"/>
      <point x="227.9" y="200.0" type="line"/>
      <point x="147.9" y="200.0" type="line"/>
    </contour>
    <contour>
      <point x="147.9" y="200" type="line"/>
      <point x="227.9" y="200" type="line"/>
      <point x="227.9" y="400" type="line"/>
      <point x="147.9" y="400" type="line"/>
    </contour>
    <contour>
      <point x="147.9" y="400" type="line"/>
      <point x="227.9" y="400" type="line"/>
      <point x="227.9" y="600" type="line"/>
      <point x="147.9" y="600" type="line"/>
    </contour>
    <contour>
      <point x="227.9" y="720.0" type="line"/>
      <point x="227.9" y="764.1532"/>
      <point x="192.0532" y="800.0"/>
      <point x="147.9" y="800.0" type="curve"/>
      <point x="147.9" y="720.0" type="line"/>
    </contour>
    <contour>
      <point x="147.9" y="600" type="line"/>
      <point x="227.9" y="600" type="line"/>
      <point x="227.9" y="720.0" type="line"/>
      <point x="147.9" y="720.0" type="line"/>
    </contour>
  </outline>
</glyph>
<glyph name="I" format="2">
  <advance width="145.8"/>
  <unicode hex="0049"/>
  <outline>
    <contour>
      <point x="32.9" y="0" type="line"/>
      <point x="112.9" y="0" type="line"/>
      <point x="112.9" y="200" type="line"/>
      <point x="32.9" y="200" type="line"/>
    </contour>
    <contour>
      <point x="32.9" y="200" type="line"/>
      <point x="112.9" y="200" type="line"/>
      <point x="112.9" y="400" type="line"/>
      <point x="32.9" y="400" type="line"/>
    </contour>
    <contour>
      <point x="32.9" y="400" type="line"/>
      <point x="112.9" y="400" type="line"/>
      <point x="112.9" y="600" type="line"/>
      <point x="32.9" y="600" type="line"/>
    </contour>
    <contour>
      <point x="32.9" y="600" type="line"/>
      <point x="112.9" y="600" type="line"/>
      <point x="112.9" y="800" type="line"/>
      <point x="32.9" y="800" type="line"/>
    </contour>
  </outline>
</glyph>
<glyph name="Q" format="2">
  <advance width="260.8"/>
  <unicode hex="0051"/>
  <outline>
    <contour>
      <point x="32.9" y="75.0" type="line"/>
      <point x="32.9" y="30.8468"/>
      <point x="68.74680000000001" y="-5.0"/>
      <point x="112.9" y="-5.0" type="curve"/>
      <point x="112.9" y="75.0" type="line"/>
    </contour>
    <contour>
      <point x="32.9" y="75.0" type="line"/>
      <point x="112.9" y="75.0" type="line"/>
      <point x="112.9" y="195.0" type="line"/>
      <point x="32.9" y="195.0" type="line"/>
    </contour>
    <contour>
      <point x="32.9" y="195.0" type="line"/>
      <point x="112.9" y="195.0" type="line"/>
      <point x="112.9" y="400.0" type="line"/>
      <point x="32.9" y="400.0" type="line"/>
    </contour>
    <contour>
      <point x="32.9" y="400" type="line"/>
      <point x="112.9" y="400" type="line"/>
      <point x="112.9" y="605.0" type="line"/>
      <point x="32.9" y="605.0" type="line"/>
    </contour>
    <contour>
      <point x="112.9" y="805.0" type="line"/>
      <point x="68.74680000000001" y="805.0"/>
      <point x="32.9" y="769.1532"/>
      <point x="32.9" y="725.0" type="curve"/>
      <point x="112.9" y="725.0" type="line"/>
    </contour>
    <contour>
      <point x="32.9" y="605.0" type="line"/>
      <point x="112.9" y="605.0" type="line"/>
      <point x="112.9" y="725.0" type="line"/>
      <point x="32.9" y="725.0" type="line"/>
    </contour>
    <contour>
      <point x="147.9" y="0.0" type="line"/>
      <point x="147.9" y="-44.1532"/>
      <point x="183.7468" y="-80.0"/>
      <point x="227.9" y="-80.0" type="curve"/>
      <point x="227.9" y="0.0" type="line"/>
    </contour>
    <contour>
      <point x="147.9" y="-5.0" type="line"/>
      <point x="192.0532" y="-5.0"/>
      <point x="227.9" y="30.8468"/>
      <point x="227.9" y="75.0" type="curve"/>
      <point x="147.9" y="75.0" type="line"/>
    </contour>
    <contour>
      <point x="147.9" y="75.0" type="line"/>
      <point x="227.9" y="75.0" type="line"/>
      <point x="227.9" y="195.0" type="line"/>
      <point x="147.9" y="195.0" type="line"/>
    </contour>
    <contour>
      <point x="147.9" y="195.0" type="line"/>
      <point x="227.9" y="195.0" type="line"/>
      <point x="227.9" y="400.0" type="line"/>
      <point x="147.9" y="400.0" type="line"/>
    </contour>
    <contour>
      <point x="147.9" y="400" type="line"/>
      <point x="227.9" y="400" type="line"/>
      <point x="227.9" y="605.0" type="line"/>
      <point x="147.9" y="605.0" type="line"/>
    </contour>
    <contour>
      <point x="227.9" y="725.0" type="line"/>
      <point x="227.9" y="769.1532"/>
      <point x="192.0532" y="805.0"/>
      <point x="147.9" y="805.0" type="curve"/>
      <point x="147.9" y="725.0" type="line"/>
    </contour>
    <contour>
      <point x="147.9" y="605.0" type="line"/>
      <point x="227.9" y="605.0" type="line"/>
      <point x="227.9" y="725.0" type="line"/>
      <point x="147.9" y="725.0" type="line"/>
    </contour>
  </outline>
</glyph>
<glyph name="R" format="2">
  <advance width="260.8"/>
  <unicode hex="0052"/>
  <outline>
    <contour>
      <point x="32.9" y="0" type="line"/>
      <point x="112.9" y="0" type="line"/>
      <point x="112.9" y="200" type="line"/>
      <point x="32.9" y="200" type="line"/>
    </contour>
    <contour>
      <point x="32.9" y="200" type="line"/>
      <point x="112.9" y="200" type="line"/>
      <point x="112.9" y="400" type="line"/>
      <point x="32.9" y="400" type="line"/>
    </contour>
    <contour>
      <point x="32.9" y="400" type="line"/>
      <point x="112.9" y="400" type="line"/>
      <point x="112.9" y="600" type="line"/>
      <point x="32.9" y="600" type="line"/>
    </contour>
    <contour>
      <point x="32.9" y="600" type="line"/>
      <point x="112.9" y="600" type="line"/>
      <point x="112.9" y="800" type="line"/>
      <point x="32.9" y="800" type="line"/>
    </contour>
    <contour>
      <point x="227.9" y="120.0" type="line"/>
      <point x="227.9" y="164.1532"/>
      <point x="192.0532" y="200.0"/>
      <point x="147.9" y="200.0" type="curve"/>
      <point x="147.9" y="120.0" type="line"/>
    </contour>
    <contour>
      <point x="147.9" y="0" type="line"/>
      <point x="227.9" y="0" type="line"/>
      <point x="227.9" y="120.0" type="line"/>
      <point x="147.9" y="120.0" type="line"/>
    </contour>
    <contour>
      <point x="147.9" y="200.0" type="line"/>
      <point x="192.0532" y="200.0"/>
      <point x="227.9" y="235.8468"/>
      <point x="227.9" y="280.0" type="curve"/>
      <point x="147.9" y="280.0" type="line"/>
    </contour>
    <contour>
      <point x="147.9" y="280.0" type="line"/>
      <point x="227.9" y="280.0" type="line"/>
      <point x="227.9" y="400.0" type="line"/>
      <point x="147.9" y="400.0" type="line"/>
    </contour>
    <contour>
      <point x="147.9" y="400" type="line"/>
      <point x="227.9" y="400" type="line"/>
      <point x="227.9" y="600" type="line"/>
      <point x="147.9" y="600" type="line"/>
    </contour>
    <contour>
      <point x="227.9" y="720.0" type="line"/>
      <point x="227.9" y="764.1532"/>
      <point x="192.0532" y="800.0"/>
      <point x="147.9" y="800.0" type="curve"/>
      <point x="147.9" y="720.0" type="line"/>
    </contour>
    <contour>
      <point x="147.9" y="600" type="line"/>
      <point x="227.9" y="600" type="line"/>
      <point x="227.9" y="720.0" type="line"/>
      <point x="147.9" y="720.0" type="line"/>
    </contour>
  </outline>
</glyph>
<glyph name="T" format="2">
  <advance width="375.8"/>
  <unicode hex="0054"/>
  <outline>
    <contour>
      <point x="32.9" y="720.0" type="line"/>
      <point x="77.0532" y="720.0"/>
      <point x="112.9" y="755.8468"/>
      <point x="112.9" y="800.0" type="curve"/>
      <point x="32.9" y="800.0" type="line"/>
    </contour>
    <contour>
      <point x="147.9" y="0" type="line"/>
      <point x="227.9" y="0" type="line"/>
      <point x="227.9" y="200" type="line"/>
      <point x="147.9" y="200" type="line"/>
    </contour>
    <contour>
      <point x="147.9" y="200" type="line"/>
      <point x="227.9" y="200" type="line"/>
      <point x="227.9" y="400" type="line"/>
      <point x="147.9" y="400" type="line"/>
    </contour>
    <contour>
      <point x="147.9" y="400" type="line"/>
      <point x="227.9" y="400" type="line"/>
      <point x="227.9" y="600" type="line"/>
      <point x="147.9" y="600" type="line"/>
    </contour>
    <contour>
      <point x="147.9" y="600" type="line"/>
      <point x="227.9" y="600" type="line"/>
      <point x="227.9" y="800" type="line"/>
      <point x="147.9" y="800" type="line"/>
    </contour>
    <contour>
      <point x="262.9" y="800.0" type="line"/>
      <point x="262.9" y="755.8468"/>
      <point x="298.74679999999995" y="720.0"/>
      <point x="342.9" y="720.0" type="curve"/>
      <point x="342.9" y="800.0" type="line"/>
    </contour>
  </outline>
</glyph>
<glyph name="bracketleft" format="2">
  <advance width="225.8"/>
  <unicode hex="005B"/>
  <outline>
    <contour>
      <point x="32.9" y="-100.0" type="line"/>
      <point x="112.9" y="-100.0" type="line"/>
      <point x="112.9" y="100.0" type="line"/>
      <point x="32.9" y="100.0" type="line"/>
    </contour>
    <contour>
      <point x="32.9" y="100.0" type="line"/>
      <point x="112.9" y="100.0" type="line"/>
      <point x="112.9" y="300.0" type="line"/>
      <point x="32.9" y="300.0" type="line"/>
    </contour>
    <contour>
      <point x="32.9" y="300.0" type="line"/>
      <point x="112.9" y="300.0" type="line"/>
      <point x="112.9" y="500.0" type="line"/>
      <point x="32.9" y="500.0" type="line"/>
    </contour>
    <contour>
      <point x="32.9" y="500.0" type="line"/>
      <point x="112.9" y="500.0" type="line"/>
      <point x="112.9" y="700.0" type="line"/>
      <point x="32.9" y="700.0" type="line"/>
    </contour>
    <contour>
      <point x="32.9" y="700.0" type="line"/>
      <point x="112.9" y="700.0" type="line"/>
      <point x="112.9" y="900.0" type="line"/>
      <point x="32.9" y="900.0" type="line"/>
    </contour>
    <contour>
      <point x="192.9" y="-100.0" type="line"/>
      <point x="192.9" y="-55.8468"/>
      <point x="157.0532" y="-20.0"/>
      <point x="112.9" y="-20.0" type="curve"/>
      <point x="112.9" y="-100.0" type="line"/>
    </contour>
    <contour>
      <point x="112.9" y="820.0" type="line"/>
      <point x="157.0532" y="820.0"/>
      <point x="192.9" y="855.8468"/>
      <point x="192.9" y="900.0" type="curve"/>
      <point x="112.9" y="900.0" type="line"/>
    </contour>
  </outline>
</glyph>
<glyph name="asciicircum" format="2">
  <advance width="225.8"/>
  <unicode hex="005E"/>
  <outline>
    <contour>
      <point x="32.9" y="700.0" type="line"/>
      <point x="77.0532" y="700.0"/>
      <point x="112.9" y="735.8468"/>
      <point x="112.9" y="780.0" type="curve"/>
      <point x="32.9" y="780.0" type="line"/>
    </contour>
    <contour>
      <point x="112.9" y="780.0" type="line"/>
      <point x="112.9" y="735.8468"/>
      <point x="148.7468" y="700.0"/>
      <point x="192.9" y="700.0" type="curve"/>
      <point x="192.9" y="780.0" type="line"/>
    </contour>
  </outline>
</glyph>
<glyph name="underscore" format="2">
  <advance width="260.8"/>
  <unicode hex="005F"/>
  <outline>
    <contour>
      <point x="32.9" y="-140.0" type="line"/>
      <point x="112.9" y="-140.0" type="line"/>
      <point x="112.9" y="-60.0" type="line"/>
      <point x="32.9" y="-60.0" type="line"/>
    </contour>
    <contour>
      <point x="112.9" y="-140.0" type="line"/>
      <point x="147.9" y="-140.0" type="line"/>
      <point x="147.9" y="-60.0" type="line"/>
      <point x="112.9" y="-60.0" type="line"/>
    </contour>
    <contour>
      <point x="147.9" y="-140.0" type="line"/>
      <point x="227.9" y="-140.0" type="line"/>
      <point x="227.9" y="-60.0" type="line"/>
      <point x="147.9" y="-60.0" type="line"/>
    </contour>
  </outline>
</glyph>
<glyph name="grave" format="2">
  <advance width="145.8"/>
  <unicode hex="0060"/>
  <outline>
    <contour>
      <point x="-2.1000000000000014" y="880.0" type="line"/>
      <point x="-2.1000000000000014" y="835.8468"/>
      <point x="33.7468" y="800.0"/>
      <point x="77.9" y="800.0" type="curve"/>
      <point x="77.9" y="880.0" type="line"/>
    </contour>
  </outline>
</glyph>
<glyph name="b" format="2">
  <advance width="260.8"/>
  <unicode hex="0062"/>
  <outline>
    <contour>
      <point x="32.9" y="0" type="line"/>
      <point x="112.9" y="0" type="line"/>
      <point x="112.9" y="200" type="line"/>
      <point x="32.9" y="200" type="line"/>
    </contour>
    <contour>
      <point x="32.9" y="200" type="line"/>
      <point x="112.9" y="200" type="line"/>
      <point x="112.9" y="400" type="line"/>
      <point x="32.9" y="400" type="line"/>
    </contour>
    <contour>
      <point x="32.9" y="400" type="line"/>
      <point x="112.9" y="400" type="line"/>
      <point x="112.9" y="600" type="line"/>
      <point x="32.9" y="600" type="line"/>
    </contour>
    <contour>
      <point x="32.9" y="600" type="line"/>
      <point x="112.9" y="600" type="line"/>
      <point x="112.9" y="800" type="line"/>
      <point x="32.9" y="800" type="line"/>
    </contour>
    <contour>
      <point x="147.9" y="0.0" type="line"/>
      <point x="192.0532" y="0.0"/>
      <point x="227.9" y="35.8468"/>
      <point x="227.9" y="80.0" type="curve"/>
      <point x="147.9" y="80.0" type="line"/>
    </contour>
    <contour>
      <point x="147.9" y="80.0" type="line"/>
      <point x="227.9" y="80.0" type="line"/>
      <point x="227.9" y="200.0" type="line"/>
      <point x="147.9" y="200.0" type="line"/>
    </contour>
    <contour>
      <point x="147.9" y="200" type="line"/>
      <point x="227.9" y="200" type="line"/>
      <point x="227.9" y="405.0" type="line"/>
      <point x="147.9" y="405.0" type="line"/>
    </contour>
    <contour>
      <point x="227.9" y="525.0" type="line"/>
      <point x="227.9" y="569.1532"/>
      <point x="192.0532" y="605.0"/>
      <point x="147.9" y="605.0" type="curve"/>
      <point x="147.9" y="525.0" type="line"/>
    </contour>
    <contour>
      <point x="147.9" y="405.0" type="line"/>
      <point x="227.9" y="405.0" type="line"/>
      <point x="227.9" y="525.0" type="line"/>
      <point x="147.9" y="525.0" type="line"/>
    </contour>
  </outline>
</glyph>
<glyph name="f" format="2">
  <advance width="260.8"/>
  <unicode hex="0066"/>
  <outline>
    <contour>
      <point x="32.9" y="0" type="line"/>
      <point x="112.9" y="0" type="line"/>
      <point x="112.9" y="200" type="line"/>
      <point x="32.9" y="200" type="line"/>
    </contour>
    <contour>
      <point x="32.9" y="200" type="line"/>
      <point x="112.9" y="200" type="line"/>
      <point x="112.9" y="400" type="line"/>
      <point x="32.9" y="400" type="line"/>
    </contour>
    <contour>
      <point x="32.9" y="400" type="line"/>
      <point x="112.9" y="400" type="line"/>
      <point x="112.9" y="600" type="line"/>
      <point x="32.9" y="600" type="line"/>
    </contour>
    <contour>
      <point x="112.9" y="800.0" type="line"/>
      <point x="68.74680000000001" y="800.0"/>
      <point x="32.9" y="764.1532"/>
      <point x="32.9" y="720.0" type="curve"/>
      <point x="112.9" y="720.0" type="line"/>
    </contour>
    <contour>
      <point x="32.9" y="600" type="line"/>
      <point x="112.9" y="600" type="line"/>
      <point x="112.9" y="720.0" type="line"/>
      <point x="32.9" y="720.0" type="line"/>
    </contour>
    <contour>
      <point x="147.9" y="587.5" type="line"/>
      <point x="147.9" y="543.3468"/>
      <point x="183.7468" y="507.5"/>
      <point x="227.9" y="507.5" type="curve"/>
      <point x="227.9" y="587.5" type="line"/>
    </contour>
    <contour>
      <point x="147.9" y="800.0" type="line"/>
      <point x="147.9" y="755.8468"/>
      <point x="183.7468" y="720.0"/>
      <point x="227.9" y="720.0" type="curve"/>
      <point x="227.9" y="800.0" type="line"/>
    </contour>
  </outline>
</glyph>
<glyph name="k" format="2">
  <advance width="260.8"/>
  <unicode hex="006B"/>
  <outline>
    <contour>
      <point x="32.9" y="0" type="line"/>
      <point x="112.9" y="0" type="line"/>
      <point x="112.9" y="200" type="line"/>
      <point x="32.9" y="200" type="line"/>
    </contour>
    <contour>
      <point x="32.9" y="200" type="line"/>
      <point x="112.9" y="200" type="line"/>
      <point x="112.9" y="400" type="line"/>
      <point x="32.9" y="400" type="line"/>
    </contour>
    <contour>
      <point x="32.9" y="400" type="line"/>
      <point x="112.9" y="400" type="line"/>
      <point x="112.9" y="600" type="line"/>
      <point x="32.9" y="600" type="line"/>
    </contour>
    <contour>
      <point x="32.9" y="600" type="line"/>
      <point x="112.9" y="600" type="line"/>
      <point x="112.9" y="800" type="line"/>
      <point x="32.9" y="800" type="line"/>
    </contour>
    <contour>
      <point x="147.9" y="0" type="line"/>
      <point x="227.9" y="0" type="line"/>
      <point x="227.9" y="100.0" type="line"/>
      <point x="147.9" y="100.0" type="line"/>
    </contour>
    <contour>
      <point x="227.9" y="220.0" type="line"/>
      <point x="227.9" y="264.1532"/>
      <point x="192.0532" y="300.0"/>
      <point x="147.9" y="300.0" type="curve"/>
      <point x="147.9" y="220.0" type="line"/>
    </contour>
    <contour>
      <point x="147.9" y="100.0" type="line"/>
      <point x="227.9" y="100.0" type="line"/>
      <point x="227.9" y="220.0" type="line"/>
      <point x="147.9" y="220.0" type="line"/>
    </contour>
    <contour>
      <point x="147.9" y="300.0" type="line"/>
      <point x="192.0532" y="300.0"/>
      <point x="227.9" y="335.8468"/>
      <point x="227.9" y="380.0" type="curve"/>
      <point x="147.9" y="380.0" type="line"/>
    </contour>
    <contour>
      <point x="147.9" y="380.0" type="line"/>
      <point x="227.9" y="380.0" type="line"/>
      <point x="227.9" y="500.0" type="line"/>
      <point x="147.9" y="500.0" type="line"/>
    </contour>
    <contour>
      <point x="147.9" y="500.0" type="line"/>
      <point x="227.9" y="500.0" type="line"/>
      <point x="227.9" y="600.0" type="line"/>
      <point x="147.9" y="600.0" type="line"/>
    </contour>
  </outline>
</glyph>
<glyph name="l" format="2">
  <advance width="145.8"/>
  <unicode hex="006C"/>
  <outline>
    <contour>
      <point x="32.9" y="75.0" type="line"/>
      <point x="32.9" y="30.8468"/>
      <point x="68.74680000000001" y="-5.0"/>
      <point x="112.9" y="-5.0" type="curve"/>
      <point x="112.9" y="75.0" type="line"/>
    </contour>
    <contour>
      <point x="32.9" y="75.0" type="line"/>
      <point x="112.9" y="75.0" type="line"/>
      <point x="112.9" y="195.0" type="line"/>
      <point x="32.9" y="195.0" type="line"/>
    </contour>
    <contour>
      <point x="32.9" y="195.0" type="line"/>
      <point x="112.9" y="195.0" type="line"/>
      <point x="112.9" y="400.0" type="line"/>
      <point x="32.9" y="400.0" type="line"/>
    </contour>
    <contour>
      <point x="32.9" y="400" type="line"/>
      <point x="112.9" y="400" type="line"/>
      <point x="112.9" y="600" type="line"/>
      <point x="32.9" y="600" type="line"/>
    </contour>
    <contour>
      <point x="32.9" y="600" type="line"/>
      <point x="112.9" y="600" type="line"/>
      <point x="112.9" y="800" type="line"/>
      <point x="32.9" y="800" type="line"/>
    </contour>
  </outline>
</glyph>
<glyph name="m" format="2">
  <advance width="375.8"/>
  <unicode hex="006D"/>
  <outline>
    <contour>
      <point x="32.9" y="0" type="line"/>
      <point x="112.9" y="0" type="line"/>
      <point x="112.9" y="200" type="line"/>
      <point x="32.9" y="200" type="line"/>
    </contour>
    <contour>
      <point x="32.9" y="200" type="line"/>
      <point x="112.9" y="200" type="line"/>
      <point x="112.9" y="400" type="line"/>
      <point x="32.9" y="400" type="line"/>
    </contour>
    <contour>
      <point x="32.9" y="400" type="line"/>
      <point x="112.9" y="400" type="line"/>
      <point x="112.9" y="600" type="line"/>
      <point x="32.9" y="600" type="line"/>
    </contour>
    <contour>
      <point x="147.9" y="0" type="line"/>
      <point x="227.9" y="0" type="line"/>
      <point x="227.9" y="200" type="line"/>
      <point x="147.9" y="200" type="line"/>
    </contour>
    <contour>
      <point x="147.9" y="200" type="line"/>
      <point x="227.9" y="200" type="line"/>
      <point x="227.9" y="400" type="line"/>
      <point x="147.9" y="400" type="line"/>
    </contour>
    <contour>
      <point x="147.9" y="400" type="line"/>
      <point x="227.9" y="400" type="line"/>
      <point x="227.9" y="600" type="line"/>
      <point x="147.9" y="600" type="line"/>
    </contour>
    <contour>
      <point x="262.9" y="0" type="line"/>
      <point x="342.9" y="0" type="line"/>
      <point x="342.9" y="200" type="line"/>
      <point x="262.9" y="200" type="line"/>
    </contour>
    <contour>
      <point x="262.9" y="200" type="line"/>
      <point x="342.9" y="200" type="line"/>
      <point x="342.9" y="400" type="line"/>
      <point x="262.9" y="400" type="line"/>
    </contour>
    <contour>
      <point x="342.9" y="520.0" type="line"/>
      <point x="342.9" y="564.1532"/>
      <point x="307.0532" y="600.0"/>
      <point x="262.9" y="600.0" type="curve"/>
      <point x="262.9" y="520.0" type="line"/>
    </contour>
    <contour>
      <point x="262.9" y="400" type="line"/>
      <point x="342.9" y="400" type="line"/>
      <point x="342.9" y="520.0" type="line"/>
      <point x="262.9" y="520.0" type="line"/>
    </contour>
  </outline>
</glyph>
<glyph name="n" format="2">
  <advance width="260.8"/>
  <unicode hex="006E"/>
  <outline>
    <contour>
      <point x="32.9" y="0" type="line"/>
      <point x="112.9" y="0" type="line"/>
      <point x="112.9" y="200" type="line"/>
      <point x="32.9" y="200" type="line"/>
    </contour>
    <contour>
      <point x="32.9" y="200" type="line"/>
      <point x="112.9" y="200" type="line"/>
      <point x="112.9" y="400" type="line"/>
      <point x="32.9" y="400" type="line"/>
    </contour>
    <contour>
      <point x="32.9" y="400" type="line"/>
      <point x="112.9" y="400" type="line"/>
      <point x="112.9" y="600" type="line"/>
      <point x="32.9" y="600" type="line"/>
    </contour>
    <contour>
      <point x="147.9" y="0" type="line"/>
      <point x="227.9" y="0" type="line"/>
      <point x="227.9" y="200" type="line"/>
      <point x="147.9" y="200" type="line"/>
    </contour>
    <contour>
      <point x="147.9" y="200" type="line"/>
      <point x="227.9" y="200" type="line"/>
      <point x="227.9" y="400" type="line"/>
      <point x="147.9" y="400" type="line"/>
    </contour>
    <contour>
      <point x="227.9" y="520.0" type="line"/>
      <point x="227.9" y="564.1532"/>
      <point x="192.0532" y="600.0"/>
      <point x="147.9" y="600.0" type="curve"/>
      <point x="147.9" y="520.0" type="line"/>
    </contour>
    <contour>
      <point x="147.9" y="400" type="line"/>
      <point x="227.9" y="400" type="line"/>
      <point x="227.9" y="520.0" type="line"/>
      <point x="147.9" y="520.0" type="line"/>
    </contour>
  </outline>
</glyph>
<glyph name="r" format="2">
  <advance width="260.8"/>
  <unicode hex="0072"/>
  <outline>
    <contour>
      <point x="32.9" y="0" type="line"/>
      <point x="112.9" y="0" type="line"/>
      <point x="112.9" y="200" type="line"/>
      <point x="32.9" y="200" type="line"/>
    </contour>
    <contour>
      <point x="32.9" y="200" type="line"/>
      <point x="112.9" y="200" type="line"/>
      <point x="112.9" y="400" type="line"/>
      <point x="32.9" y="400" type="line"/>
    </contour>
    <contour>
      <point x="32.9" y="400" type="line"/>
      <point x="112.9" y="400" type="line"/>
      <point x="112.9" y="600" type="line"/>
      <point x="32.9" y="600" type="line"/>
    </contour>
    <contour>
      <point x="232.9" y="560.0" type="curve" smooth="yes"/>
      <point x="232.9" y="584.83618"/>
      <point x="212.73618000000002" y="605.0"/>
      <point x="187.9" y="605.0" type="curve" smooth="yes"/>
      <point x="163.06382" y="605.0"/>
      <point x="142.9" y="584.83618"/>
      <point x="142.9" y="560.0" type="curve" smooth="yes"/>
      <point x="142.9" y="535.16382"/>
      <point x="163.06382" y="515.0"/>
      <point x="187.9" y="515.0" type="curve" smooth="yes"/>
      <point x="212.73618000000002" y="515.0"/>
      <point x="232.9" y="535.16382"/>
    </contour>
  </outline>
</glyph>
<glyph name="x" format="2">
  <advance width="260.8"/>
  <unicode hex="0078"/>
  <outline>
    <contour>
      <point x="32.9" y="0" type="line"/>
      <point x="112.9" y="0" type="line"/>
      <point x="112.9" y="100.0" type="line"/>
      <point x="32.9" y="100.0" type="line"/>
    </contour>
    <contour>
      <point x="112.9" y="300.0" type="line"/>
      <point x="68.74680000000001" y="300.0"/>
      <point x="32.9" y="264.1532"/>
      <point x="32.9" y="220.0" type="curve"/>
      <point x="112.9" y="220.0" type="line"/>
    </contour>
    <contour>
      <point x="32.9" y="100.0" type="line"/>
      <point x="112.9" y="100.0" type="line"/>
      <point x="112.9" y="220.0" type="line"/>
      <point x="32.9" y="220.0" type="line"/>
    </contour>
    <contour>
      <point x="32.9" y="380.0" type="line"/>
      <point x="32.9" y="335.8468"/>
      <point x="68.74680000000001" y="300.0"/>
      <point x="112.9" y="300.0" type="curve"/>
      <point x="112.9" y="380.0" type="line"/>
    </contour>
    <contour>
      <point x="32.9" y="380.0" type="line"/>
      <point x="112.9" y="380.0" type="line"/>
      <point x="112.9" y="500.0" type="line"/>
      <point x="32.9" y="500.0" type="line"/>
    </contour>
    <contour>
      <point x="32.9" y="500.0" type="line"/>
      <point x="112.9" y="500.0" type="line"/>
      <point x="112.9" y="600.0" type="line"/>
      <point x="32.9" y="600.0" type="line"/>
    </contour>
    <contour>
      <point x="147.9" y="0" type="line"/>
      <point x="227.9" y="0" type="line"/>
      <point x="227.9" y="100.0" type="line"/>
      <point x="147.9" y="100.0" type="line"/>
    </contour>
    <contour>
      <point x="227.9" y="220.0" type="line"/>
      <point x="227.9" y="264.1532"/>
      <point x="192.0532" y="300.0"/>
      <point x="147.9" y="300.0" type="curve"/>
      <point x="147.9" y="220.0" type="line"/>
    </contour>
    <contour>
      <point x="147.9" y="100.0" type="line"/>
      <point x="227.9" y="100.0" type="line"/>
      <point x="227.9" y="220.0" type="line"/>
      <point x="147.9" y="220.0" type="line"/>
    </contour>
    <contour>
      <point x="147.9" y="300.0" type="line"/>
      <point x="192.0532" y="300.0"/>
      <point x="227.9" y="335.8468"/>
      <point x="227.9" y="380.0" type="curve"/>
      <point x="147.9" y="380.0" type="line"/>
    </contour>
    <contour>
      <point x="147.9" y="380.0" type="line"/>
      <point x="227.9" y="380.0" type="line"/>
      <point x="227.9" y="500.0" type="line"/>
      <point x="147.9" y="500.0" type="line"/>
    </contour>
    <contour>
      <point x="147.9" y="500.0" type="line"/>
      <point x="227.9" y="500.0" type="line"/>
      <point x="227.9" y="600.0" type="line"/>
      <point x="147.9" y="600.0" type="line"/>
    </contour>
  </outline>
</glyph>
<glyph name="braceleft" format="2">
  <advance width="145.8"/>
  <unicode hex="007B"/>
  <outline>
    <contour>
      <point x="32.9" y="-20.0" type="line"/>
      <point x="32.9" y="-64.1532"/>
      <point x="68.74680000000001" y="-100.0"/>
      <point x="112.9" y="-100.0" type="curve"/>
      <point x="112.9" y="-20.0" type="line"/>
    </contour>
    <contour>
      <point x="32.9" y="-20.0" type="line"/>
      <point x="112.9" y="-20.0" type="line"/>
      <point x="112.9" y="100.0" type="line"/>
      <point x="32.9" y="100.0" type="line"/>
    </contour>
    <contour>
      <point x="32.9" y="100.0" type="line"/>
      <point x="112.9" y="100.0" type="line"/>
      <point x="112.9" y="200.0" type="line"/>
      <point x="32.9" y="200.0" type="line"/>
    </contour>
    <contour>
      <point x="112.9" y="320.0" type="line"/>
      <point x="112.9" y="364.1532"/>
      <point x="77.0532" y="400.0"/>
      <point x="32.9" y="400.0" type="curve"/>
      <point x="32.9" y="320.0" type="line"/>
    </contour>
    <contour>
      <point x="32.9" y="200" type="line"/>
      <point x="112.9" y="200" type="line"/>
      <point x="112.9" y="320.0" type="line"/>
      <point x="32.9" y="320.0" type="line"/>
    </contour>
    <contour>
      <point x="32.9" y="400.0" type="line"/>
      <point x="77.0532" y="400.0"/>
      <point x="112.9" y="435.8468"/>
      <point x="112.9" y="480.0" type="curve"/>
      <point x="32.9" y="480.0" type="line"/>
    </contour>
    <contour>
      <point x="32.9" y="480.0" type="line"/>
      <point x="112.9" y="480.0" type="line"/>
      <point x="112.9" y="600.0" type="line"/>
      <point x="32.9" y="600.0" type="line"/>
    </contour>
    <contour>
      <point x="32.9" y="600" type="line"/>
      <point x="112.9" y="600" type="line"/>
      <point x="112.9" y="700.0" type="line"/>
      <point x="32.9" y="700.0" type="line"/>
    </contour>
    <contour>
      <point x="112.9" y="900.0" type="line"/>
      <point x="68.74680000000001" y="900.0"/>
      <point x="32.9" y="864.1532"/>
      <point x="32.9" y="820.0" type="curve"/>
      <point x="112.9" y="820.0" type="line"/>
    </contour>
    <contour>
      <point x="32.9" y="700.0" type="line"/>
      <point x="112.9" y="700.0" type="line"/>
      <point x="112.9" y="820.0" type="line"/>
      <point x="32.9" y="820.0" type="line"/>
    </contour>
  </outline>
</glyph>
<glyph name="tilde" format="2">
  <advance width="260.8"/>
  <unicode hex="007E"/>
  <outline>
    <contour>
      <point x="112.9" y="440.0" type="line"/>
      <point x="68.74680000000001" y="440.0"/>
      <point x="32.9" y="404.1532"/>
      <point x="32.9" y="360.0" type="curve"/>
      <point x="112.9" y="360.0" type="line"/>
    </contour>
    <contour>
      <point x="112.9" y="360.0" type="line"/>
      <point x="147.9" y="360.0" type="line"/>
      <point x="147.9" y="440.0" type="line"/>
      <point x="112.9" y="440.0" type="line"/>
    </contour>
    <contour>
      <point x="147.9" y="360.0" type="line"/>
      <point x="192.0532" y="360.0"/>
      <point x="227.9" y="395.8468"/>
      <point x="227.9" y="440.0" type="curve"/>
      <point x="147.9" y="440.0" type="line"/>
    </contour>
  </outline>
</glyph>
<glyph name="invexclamation" format="2">
  <advance width="145.8"/>
  <unicode hex="00A1"/>
  <outline>
    <contour>
      <point x="32.9" y="-200" type="line"/>
      <point x="112.9" y="-200" type="line"/>
      <point x="112.9" y="0" type="line"/>
      <point x="32.9" y="0" type="line"/>
    </contour>
    <contour>
      <point x="32.9" y="0" type="line"/>
      <point x="112.9" y="0" type="line"/>
      <point x="112.9" y="200" type="line"/>
      <point x="32.9" y="200" type="line"/>
    </contour>
    <contour>
      <point x="32.9" y="200" type="line"/>
      <point x="112.9" y="200" type="line"/>
      <point x="112.9" y="412.5" type="line"/>
      <point x="32.9" y="412.5" type="line"/>
    </contour>
    <contour>
      <point x="117.9" y="566.25" type="curve" smooth="yes"/>
      <point x="117.9" y="591.08618"/>
      <point x="97.73617999999999" y="611.25"/>
      <point x="72.9" y="611.25" type="curve" smooth="yes"/>
      <point x="48.06382" y="611.25"/>
      <point x="27.9" y="591.08618"/>
      <point x="27.9" y="566.25" type="curve" smooth="yes"/>
      <point x="27.9" y="541.41382"/>
      <point x="48.06382" y="521.25"/>
      <point x="72.9" y="521.25" type="curve" smooth="yes"/>
      <point x="97.73617999999999" y="521.25"/>
      <point x="117.9" y="541.41382"/>
    </contour>
  </outline>
</glyph>
<glyph name="cent" format="2">
  <advance width="260.8"/>
  <unicode hex="00A2"/>
  <outline>
    <contour>
      <point x="72.9" y="0" type="line"/>
      <point x="112.9" y="0" type="line"/>
      <point x="112.9" y="100.0" type="line"/>
      <point x="72.9" y="100.0" type="line"/>
    </contour>
    <contour>
      <point x="72.9" y="100.0" type="line"/>
      <point x="112.9" y="100.0" type="line"/>
      <point x="112.9" y="200.0" type="line"/>
      <point x="72.9" y="200.0" type="line"/>
    </contour>
    <contour>
      <point x="32.9" y="180.0" type="line"/>
      <point x="32.9" y="135.8468"/>
      <point x="68.74680000000001" y="100.0"/>
      <point x="112.9" y="100.0" type="curve"/>
      <point x="112.9" y="180.0" type="line"/>
    </contour>
    <contour>
      <point x="32.9" y="180.0" type="line"/>
      <point x="112.9" y="180.0" type="line"/>
      <point x="112.9" y="300.0" type="line"/>
      <point x="32.9" y="300.0" type="line"/>
    </contour>
    <contour>
      <point x="112.9" y="500.0" type="line"/>
      <point x="68.74680000000001" y="500.0"/>
      <point x="32.9" y="464.1532"/>
      <point x="32.9" y="420.0" type="curve"/>
      <point x="112.9" y="420.0" type="line"/>
    </contour>
    <contour>
      <point x="32.9" y="300.0" type="line"/>
      <point x="112.9" y="300.0" type="line"/>
      <point x="112.9" y="420.0" type="line"/>
      <point x="32.9" y="420.0" type="line"/>
    </contour>
    <contour>
      <point x="72.9" y="400" type="line"/>
      <point x="112.9" y="400" type="line"/>
      <point x="112.9" y="500.0" type="line"/>
      <point x="72.9" y="500.0" type="line"/>
    </contour>
    <contour>
      <point x="72.9" y="500.0" type="line"/>
      <point x="112.9" y="500.0" type="line"/>
      <point x="112.9" y="600.0" type="line"/>
      <point x="72.9" y="600.0" type="line"/>
    </contour>
    <contour>
      <point x="147.9" y="0" type="line"/>
      <point x="187.9" y="0" type="line"/>
      <point x="187.9" y="100.0" type="line"/>
      <point x="147.9" y="100.0" type="line"/>
    </contour>
    <contour>
      <point x="227.9" y="180.0" type="line"/>
      <point x="183.7468" y="180.0"/>
      <point x="147.9" y="144.1532"/>
      <point x="147.9" y="100.0" type="curve"/>
      <point x="227.9" y="100.0" type="line"/>
    </contour>
    <contour>
      <point x="147.9" y="500.0" type="line"/>
      <point x="147.9" y="455.8468"/>
      <point x="183.7468" y="420.0"/>
      <point x="227.9" y="420.0" type="curve"/>
      <point x="227.9" y="500.0" type="line"/>
    </contour>
    <contour>
      <point x="147.9" y="500.0" type="line"/>
      <point x="187.9" y="500.0" type="line"/>
      <point x="187.9" y="600.0" type="line"/>
      <point x="147.9" y="600.0" type="line"/>
    </contour>
  </outline>
</glyph>
<glyph name="pound" format="2">
  <advance width="340.8"/>
  <unicode hex="00A3"/>
  <outline>
    <contour>
      <point x="32.9" y="0" type="line"/>
      <point x="72.9" y="0" type="line"/>
      <point x="72.9" y="40.0" type="line"/>
      <point x="32.9" y="40.0" type="line"/>
    </contour>
    <contour>
      <point x="32.9" y="380.0" type="line"/>
      <point x="72.9" y="380.0" type="line"/>
      <point x="72.9" y="420.0" type="line"/>
      <point x="32.9" y="420.0" type="line"/>
    </contour>
    <contour>
      <point x="107.9" y="0" type="line"/>
      <point x="187.9" y="0" type="line"/>
      <point x="187.9" y="200" type="line"/>
      <point x="107.9" y="200" type="line"/>
    </contour>
    <contour>
      <point x="107.9" y="200" type="line"/>
      <point x="187.9" y="200" type="line"/>
      <point x="187.9" y="400" type="line"/>
      <point x="107.9" y="400" type="line"/>
    </contour>
    <contour>
      <point x="107.9" y="400" type="line"/>
      <point x="187.9" y="400" type="line"/>
      <point x="187.9" y="605.0" type="line"/>
      <point x="107.9" y="605.0" type="line"/>
    </contour>
    <contour>
      <point x="187.9" y="805.0" type="line"/>
      <point x="143.7468" y="805.0"/>
      <point x="107.9" y="769.1532"/>
      <point x="107.9" y="725.0" type="curve"/>
      <point x="187.9" y="725.0" type="line"/>
    </contour>
    <contour>
      <point x="107.9" y="605.0" type="line"/>
      <point x="187.9" y="605.0" type="line"/>
      <point x="187.9" y="725.0" type="line"/>
      <point x="107.9" y="725.0" type="line"/>
    </contour>
    <contour>
      <point x="302.9" y="80.0" type="line"/>
      <point x="258.74679999999995" y="80.0"/>
      <point x="222.9" y="44.1532"/>
      <point x="222.9" y="0.0" type="curve"/>
      <point x="302.9" y="0.0" type="line"/>
    </contour>
    <contour>
      <point x="222.9" y="380.0" type="line"/>
      <point x="262.9" y="380.0" type="line"/>
      <point x="262.9" y="420.0" type="line"/>
      <point x="222.9" y="420.0" type="line"/>
    </contour>
    <contour>
      <point x="242.9" y="380.0" type="line"/>
      <point x="282.9" y="380.0" type="line"/>
      <point x="282.9" y="420.0" type="line"/>
      <point x="242.9" y="420.0" type="line"/>
    </contour>
    <contour>
      <point x="307.9" y="760.0" type="curve" smooth="yes"/>
      <point x="307.9" y="784.83618"/>
      <point x="287.73618" y="805.0"/>
      <point x="262.9" y="805.0" type="curve" smooth="yes"/>
      <point x="238.06382" y="805.0"/>
      <point x="217.9" y="784.83618"/>
      <point x="217.9" y="760.0" type="curve" smooth="yes"/>
      <point x="217.9" y="735.16382"/>
      <point x="238.06382" y="715.0"/>
      <point x="262.9" y="715.0" type="curve" smooth="yes"/>
      <point x="287.73618" y="715.0"/>
      <point x="307.9" y="735.16382"/>
    </contour>
  </outline>
</glyph>
<glyph name="currency" format="2">
  <advance width="260.8"/>
  <unicode hex="00A4"/>
  <outline>
    <contour>
      <point x="32.9" y="340.0" type="line"/>
      <point x="32.9" y="295.8468"/>
      <point x="68.74680000000001" y="260.0"/>
      <point x="112.9" y="260.0" type="curve"/>
      <point x="112.9" y="340.0" type="line"/>
    </contour>
    <contour>
      <point x="32.9" y="340.0" type="line"/>
      <point x="112.9" y="340.0" type="line"/>
      <point x="112.9" y="400.0" type="line"/>
      <point x="32.9" y="400.0" type="line"/>
    </contour>
    <contour>
      <point x="112.9" y="540.0" type="line"/>
      <point x="68.74680000000001" y="540.0"/>
      <point x="32.9" y="504.1532"/>
      <point x="32.9" y="460.0" type="curve"/>
      <point x="112.9" y="460.0" type="line"/>
    </contour>
    <contour>
      <point x="32.9" y="400" type="line"/>
      <point x="112.9" y="400" type="line"/>
      <point x="112.9" y="460.0" type="line"/>
      <point x="32.9" y="460.0" type="line"/>
    </contour>
    <contour>
      <point x="32.9" y="230.0" type="line"/>
      <point x="72.9" y="230.0" type="line"/>
      <point x="72.9" y="270.0" type="line"/>
      <point x="32.9" y="270.0" type="line"/>
    </contour>
    <contour>
      <point x="32.9" y="530.0" type="line"/>
      <point x="72.9" y="530.0" type="line"/>
      <point x="72.9" y="570.0" type="line"/>
      <point x="32.9" y="570.0" type="line"/>
    </contour>
    <contour>
      <point x="147.9" y="260.0" type="line"/>
      <point x="192.0532" y="260.0"/>
      <point x="227.9" y="295.8468"/>
      <point x="227.9" y="340.0" type="curve"/>
      <point x="147.9" y="340.0" type="line"/>
    </contour>
    <contour>
      <point x="147.9" y="340.0" type="line"/>
      <point x="227.9" y="340.0" type="line"/>
      <point x="227.9" y="400.0" type="line"/>
      <point x="147.9" y="400.0" type="line"/>
    </contour>
    <contour>
      <point x="227.9" y="460.0" type="line"/>
      <point x="227.9" y="504.1532"/>
      <point x="192.0532" y="540.0"/>
      <point x="147.9" y="540.0" type="curve"/>
      <point x="147.9" y="460.0" type="line"/>
    </contour>
    <contour>
      <point x="147.9" y="400" type="line"/>
      <point x="227.9" y="400" type="line"/>
      <point x="227.9" y="460.0" type="line"/>
      <point x="147.9" y="460.0" type="line"/>
    </contour>
    <contour>
      <point x="187.9" y="230.0" type="line"/>
      <point x="227.9" y="230.0" type="line"/>
      <point x="227.9" y="270.0" type="line"/>
      <point x="187.9" y="270.0" type="line"/>
    </contour>
    <contour>
      <point x="187.9" y="530.0" type="line"/>
      <point x="227.9" y="530.0" type="line"/>
      <point x="227.9" y="570.0" type="line"/>
      <point x="187.9" y="570.0" type="line"/>
    </contour>
  </outline>
</glyph>
<glyph name="yen" format="2">
  <advance width="410.8"/>
  <unicode hex="00A5"/>
  <outline>
    <contour>
      <point x="32.9" y="405.0" type="line"/>
      <point x="72.9" y="405.0" type="line"/>
      <point x="72.9" y="445.0" type="line"/>
      <point x="32.9" y="445.0" type="line"/>
    </contour>
    <contour>
      <point x="32.9" y="555.0" type="line"/>
      <point x="72.9" y="555.0" type="line"/>
      <point x="72.9" y="595.0" type="line"/>
      <point x="32.9" y="595.0" type="line"/>
    </contour>
    <contour>
      <point x="107.9" y="280.0" type="line"/>
      <point x="107.9" y="235.8468"/>
      <point x="143.7468" y="200.0"/>
      <point x="187.9" y="200.0" type="curve"/>
      <point x="187.9" y="280.0" type="line"/>
    </contour>
    <contour>
      <point x="107.9" y="280.0" type="line"/>
      <point x="187.9" y="280.0" type="line"/>
      <point x="187.9" y="400.0" type="line"/>
      <point x="107.9" y="400.0" type="line"/>
    </contour>
    <contour>
      <point x="107.9" y="400" type="line"/>
      <point x="187.9" y="400" type="line"/>
      <point x="187.9" y="605.0" type="line"/>
      <point x="107.9" y="605.0" type="line"/>
    </contour>
    <contour>
      <point x="187.9" y="725.0" type="line"/>
      <point x="187.9" y="769.1532"/>
      <point x="152.0532" y="805.0"/>
      <point x="107.9" y="805.0" type="curve"/>
      <point x="107.9" y="725.0" type="line"/>
    </contour>
    <contour>
      <point x="107.9" y="605.0" type="line"/>
      <point x="187.9" y="605.0" type="line"/>
      <point x="187.9" y="725.0" type="line"/>
      <point x="107.9" y="725.0" type="line"/>
    </contour>
    <contour>
      <point x="222.9" y="-5.0" type="line"/>
      <point x="267.0532" y="-5.0"/>
      <point x="302.9" y="30.8468"/>
      <point x="302.9" y="75.0" type="curve"/>
      <point x="222.9" y="75.0" type="line"/>
    </contour>
    <contour>
      <point x="222.9" y="75.0" type="line"/>
      <point x="302.9" y="75.0" type="line"/>
      <point x="302.9" y="195.0" type="line"/>
      <point x="222.9" y="195.0" type="line"/>
    </contour>
    <contour>
      <point x="222.9" y="195.0" type="line"/>
      <point x="302.9" y="195.0" type="line"/>
      <point x="302.9" y="400.0" type="line"/>
      <point x="222.9" y="400.0" type="line"/>
    </contour>
    <contour>
      <point x="222.9" y="400" type="line"/>
      <point x="302.9" y="400" type="line"/>
      <point x="302.9" y="600" type="line"/>
      <point x="222.9" y="600" type="line"/>
    </contour>
    <contour>
      <point x="222.9" y="600" type="line"/>
      <point x="302.9" y="600" type="line"/>
      <point x="302.9" y="800" type="line"/>
      <point x="222.9" y="800" type="line"/>
    </contour>
    <contour>
      <point x="337.9" y="405.0" type="line"/>
      <point x="377.9" y="405.0" type="line"/>
      <point x="377.9" y="445.0" type="line"/>
      <point x="337.9" y="445.0" type="line"/>
    </contour>
    <contour>
      <point x="337.9" y="555.0" type="line"/>
      <point x="377.9" y="555.0" type="line"/>
      <point x="377.9" y="595.0" type="line"/>
      <point x="337.9" y="595.0" type="line"/>
    </contour>
  </outline>
</glyph>
<glyph name="brokenbar" format="2">
  <advance width="145.8"/>
  <unicode hex="00A6"/>
  <outline>
    <contour>
      <point x="32.9" y="-100.0" type="line"/>
      <point x="112.9" y="-100.0" type="line"/>
      <point x="112.9" y="100.0" type="line"/>
      <point x="32.9" y="100.0" type="line"/>
    </contour>
    <contour>
      <point x="32.9" y="100.0" type="line"/>
      <point x="112.9" y="100.0" type="line"/>
      <point x="112.9" y="300.0" type="line"/>
      <point x="32.9" y="300.0" type="line"/>
    </contour>
    <contour>
      <point x="32.9" y="500.0" type="line"/>
      <point x="112.9" y="500.0" type="line"/>
      <point x="112.9" y="700.0" type="line"/>
      <point x="32.9" y="700.0" type="line"/>
    </contour>
    <contour>
      <point x="32.9" y="700.0" type="line"/>
      <point x="112.9" y="700.0" type="line"/>
      <point x="112.9" y="900.0" type="line"/>
      <point x="32.9" y="900.0" type="line"/>
    </contour>
  </outline>
</glyph>
<glyph name="section" format="2">
  <advance width="260.8"/>
  <unicode hex="00A7"/>
  <outline>
    <contour>
      <point x="112.9" y="-200" type="line"/>
      <point x="112.9" y="-155.8468"/>
      <point x="77.0532" y="-120.0"/>
      <point x="32.9" y="-120.0" type="curve"/>
      <point x="32.9" y="-200" type="line"/>
    </contour>
    <contour>
      <point x="32.9" y="180.0" type="line"/>
      <point x="32.9" y="135.8468"/>
      <point x="68.74680000000001" y="100.0"/>
      <point x="112.9" y="100.0" type="curve"/>
      <point x="112.9" y="180.0" type="line"/>
    </contour>
    <contour>
      <point x="32.9" y="180.0" type="line"/>
      <point x="112.9" y="180.0" type="line"/>
      <point x="112.9" y="300.0" type="line"/>
      <point x="32.9" y="300.0" type="line"/>
    </contour>
    <contour>
      <point x="112.9" y="500.0" type="line"/>
      <point x="68.74680000000001" y="500.0"/>
      <point x="32.9" y="464.1532"/>
      <point x="32.9" y="420.0" type="curve"/>
      <point x="112.9" y="420.0" type="line"/>
    </contour>
    <contour>
      <point x="32.9" y="300.0" type="line"/>
      <point x="112.9" y="300.0" type="line"/>
      <point x="112.9" y="420.0" type="line"/>
      <point x="32.9" y="420.0" type="line"/>
    </contour>
    <contour>
      <point x="32.9" y="540.0" type="line"/>
      <point x="32.9" y="495.8468"/>
      <point x="68.74680000000001" y="460.0"/>
      <point x="112.9" y="460.0" type="curve"/>
      <point x="112.9" y="540.0" type="line"/>
    </contour>
    <contour>
      <point x="32.9" y="540.0" type="line"/>
      <point x="112.9" y="540.0" type="line"/>
      <point x="112.9" y="600.0" type="line"/>
      <point x="32.9" y="600.0" type="line"/>
    </contour>
    <contour>
      <point x="112.9" y="800.0" type="line"/>
      <point x="68.74680000000001" y="800.0"/>
      <point x="32.9" y="764.1532"/>
      <point x="32.9" y="720.0" type="curve"/>
      <point x="112.9" y="720.0" type="line"/>
    </contour>
    <contour>
      <point x="32.9" y="600" type="line"/>
      <point x="112.9" y="600" type="line"/>
      <point x="112.9" y="720.0" type="line"/>
      <point x="32.9" y="720.0" type="line"/>
    </contour>
    <contour>
      <point x="147.9" y="-200.0" type="line"/>
      <point x="192.0532" y="-200.0"/>
      <point x="227.9" y="-164.1532"/>
      <point x="227.9" y="-120.0" type="curve"/>
      <point x="147.9" y="-120.0" type="line"/>
    </contour>
    <contour>
      <point x="147.9" y="-120.0" type="line"/>
      <point x="227.9" y="-120.0" type="line"/>
      <point x="227.9" y="0.0" type="line"/>
      <point x="147.9" y="0.0" type="line"/>
    </contour>
    <contour>
      <point x="227.9" y="60.0" type="line"/>
      <point x="227.9" y="104.1532"/>
      <point x="192.0532" y="140.0"/>
      <point x="147.9" y="140.0" type="curve"/>
      <point x="147.9" y="60.0" type="line"/>
    </contour>
    <contour>
      <point x="147.9" y="0" type="line"/>
      <point x="227.9" y="0" type="line"/>
      <point x="227.9" y="60.0" type="line"/>
      <point x="147.9" y="60.0" type="line"/>
    </contour>
    <contour>
      <point x="147.9" y="100.0" type="line"/>
      <point x="192.0532" y="100.0"/>
      <point x="227.9" y="135.8468"/>
      <point x="227.9" y="180.0" type="curve"/>
      <point x="147.9" y="180.0" type="line"/>
    </contour>
    <contour>
      <point x="147.9" y="180.0" type="line"/>
      <point x="227.9" y="180.0" type="line"/>
      <point x="227.9" y="300.0" type="line"/>
      <point x="147.9" y="300.0" type="line"/>
    </contour>
    <contour>
      <point x="227.9" y="420.0" type="line"/>
      <point x="227.9" y="464.1532"/>
      <point x="192.0532" y="500.0"/>
      <point x="147.9" y="500.0" type="curve"/>
      <point x="147.9" y="420.0" type="line"/>
    </contour>
    <contour>
      <point x="147.9" y="300.0" type="line"/>
      <point x="227.9" y="300.0" type="line"/>
      <point x="227.9" y="420.0" type="line"/>
      <point x="147.9" y="420.0" type="line"/>
    </contour>
    <contour>
      <point x="147.9" y="800.0" type="line"/>
      <point x="147.9" y="755.8468"/>
      <point x="183.7468" y="720.0"/>
      <point x="227.9" y="720.0" type="curve"/>
      <point x="227.9" y="800.0" type="line"/>
    </contour>
  </outline>
</glyph>
<glyph name="ordinalfeminine" format="2">
  <advance width="260.8"/>
  <unicode hex="00AA"/>
  <outline>
    <contour>
      <point x="32.9" y="480.0" type="line"/>
      <point x="32.9" y="435.8468"/>
      <point x="68.74680000000001" y="400.0"/>
      <point x="112.9" y="400.0" type="curve"/>
      <point x="112.9" y="480.0" type="line"/>
    </contour>
    <contour>
      <point x="32.9" y="480.0" type="line"/>
      <point x="112.9" y="480.0" type="line"/>
      <point x="112.9" y="600.0" type="line"/>
      <point x="32.9" y="600.0" type="line"/>
    </contour>
    <contour>
      <point x="112.9" y="800.0" type="line"/>
      <point x="68.74680000000001" y="800.0"/>
      <point x="32.9" y="764.1532"/>
      <point x="32.9" y="720.0" type="curve"/>
      <point x="112.9" y="720.0" type="line"/>
    </contour>
    <contour>
      <point x="32.9" y="600" type="line"/>
      <point x="112.9" y="600" type="line"/>
      <point x="112.9" y="720.0" type="line"/>
      <point x="32.9" y="720.0" type="line"/>
    </contour>
    <contour>
      <point x="147.9" y="480.0" type="line"/>
      <point x="147.9" y="435.8468"/>
      <point x="183.7468" y="400.0"/>
      <point x="227.9" y="400.0" type="curve"/>
      <point x="227.9" y="480.0" type="line"/>
    </contour>
    <contour>
      <point x="147.9" y="480.0" type="line"/>
      <point x="227.9" y="480.0" type="line"/>
      <point x="227.9" y="600.0" type="line"/>
      <point x="147.9" y="600.0" type="line"/>
    </contour>
    <contour>
      <point x="147.9" y="600" type="line"/>
      <point x="227.9" y="600" type="line"/>
      <point x="227.9" y="800" type="line"/>
      <point x="147.9" y="800" type="line"/>
    </contour>
  </outline>
</glyph>
<glyph name="angledblleft" format="2">
  <advance width="260.8"/>
  <unicode hex="00AB"/>
  <outline>
    <contour>
      <point x="32.9" y="400.0" type="line"/>
      <point x="32.9" y="355.8468"/>
      <point x="68.74680000000001" y="320.0"/>
      <point x="112.9" y="320.0" type="curve"/>
      <point x="112.9" y="400.0" type="line"/>
    </contour>
    <contour>
      <point x="112.9" y="480.0" type="line"/>
      <point x="68.74680000000001" y="480.0"/>
      <point x="32.9" y="444.1532"/>
      <point x="32.9" y="400.0" type="curve"/>
      <point x="112.9" y="400.0" type="line"/>
    </contour>
    <contour>
      <point x="147.9" y="400.0" type="line"/>
      <point x="147.9" y="355.8468"/>
      <point x="183.7468" y="320.0"/>
      <point x="227.9" y="320.0" type="curve"/>
      <point x="227.9" y="400.0" type="line"/>
    </contour>
    <contour>
      <point x="227.9" y="480.0" type="line"/>
      <point x="183.7468" y="480.0"/>
      <point x="147.9" y="444.1532"/>
      <point x="147.9" y="400.0" type="curve"/>
      <point x="227.9" y="400.0" type="line"/>
    </contour>
  </outline>
</glyph>
<glyph name="registered" format="2">
  <advance width="792.0197800000001"/>
  <unicode hex="00AE"/>
  <outline>
    <contour>
      <point x="308.50989000000004" y="200" type="line"/>
      <point x="308.50989000000004" y="400" type="line"/>
      <point x="388.50989000000004" y="400" type="line"/>
      <point x="388.50989000000004" y="200" type="line"/>
    </contour>
    <contour>
      <point x="308.50989000000004" y="400" type="line"/>
      <point x="308.50989000000004" y="600" type="line"/>
      <point x="388.50989000000004" y="600" type="line"/>
      <point x="388.50989000000004" y="400" type="line"/>
    </contour>
    <contour>
      <point x="503.50989000000004" y="560.0" type="curve" smooth="yes"/>
      <point x="503.50989000000004" y="537.9234"/>
      <point x="485.58649" y="520.0"/>
      <point x="463.50989000000004" y="520.0" type="curve" smooth="yes"/>
      <point x="441.43328999999994" y="520.0"/>
      <point x="423.50989000000004" y="537.9234"/>
      <point x="423.50989000000004" y="560.0" type="curve" smooth="yes"/>
      <point x="423.50989000000004" y="582.0766"/>
      <point x="441.43328999999994" y="600.0"/>
      <point x="463.50989000000004" y="600.0" type="curve" smooth="yes"/>
      <point x="485.58649" y="600.0"/>
      <point x="503.50989000000004" y="582.0766"/>
    </contour>
    <contour>
      <point x="719.11978" y="400.0" type="curve" smooth="yes"/>
      <point x="719.11978" y="578.3292"/>
      <point x="574.33909" y="723.10989"/>
      <point x="396.00989000000004" y="723.10989" type="curve" smooth="yes"/>
      <point x="217.68069" y="723.10989"/>
      <point x="72.9" y="578.3292"/>
      <point x="72.9" y="400.0" type="curve" smooth="yes"/>
      <point x="72.9" y="221.6708"/>
      <point x="217.68069" y="76.89011"/>
      <point x="396.00989000000004" y="76.89011" type="curve" smooth="yes"/>
      <point x="574.33909" y="76.89011"/>
      <point x="719.11978" y="221.6708"/>
    </contour>
  </outline>
</glyph>
<glyph name="macron" format="2">
  <advance width="260.8"/>
  <unicode hex="00AF"/>
  <outline>
    <contour>
      <point x="50.4" y="800" type="line"/>
      <point x="130.4" y="800" type="line"/>
      <point x="130.4" y="880.0" type="line"/>
      <point x="50.4" y="880.0" type="line"/>
    </contour>
    <contour>
      <point x="130.4" y="800" type="line"/>
      <point x="210.4" y="800" type="line"/>
      <point x="210.4" y="880.0" type="line"/>
      <point x="130.4" y="880.0" type="line"/>
    </contour>
  </outline>
</glyph>
<glyph name="degree" format="2">
  <advance width="190.8"/>
  <unicode hex="00B0"/>
  <outline>
    <contour>
      <point x="77.9" y="805.0" type="line"/>
      <point x="53.06382" y="805.0"/>
      <point x="32.9" y="784.83618"/>
      <point x="32.9" y="760.0" type="curve" smooth="yes"/>
      <point x="32.9" y="735.16382"/>
      <point x="53.06382" y="715.0"/>
      <point x="77.9" y="715.0" type="curve"/>
    </contour>
    <contour>
      <point x="112.9" y="715.0" type="line"/>
      <point x="137.73618000000002" y="715.0"/>
      <point x="157.9" y="735.16382"/>
      <point x="157.9" y="760.0" type="curve" smooth="yes"/>
      <point x="157.9" y="784.83618"/>
      <point x="137.73618000000002" y="805.0"/>
      <point x="112.9" y="805.0" type="curve"/>
    </contour>
  </outline>
</glyph>
<glyph name="plus_minus" format="2">
  <advance width="375.8"/>
  <unicode hex="00B1"/>
  <outline>
    <contour>
      <point x="67.9" y="160.0" type="line"/>
      <point x="147.9" y="160.0" type="line"/>
      <point x="147.9" y="240.0" type="line"/>
      <point x="67.9" y="240.0" type="line"/>
    </contour>
    <contour>
      <point x="67.9" y="460.0" type="line"/>
      <point x="147.9" y="460.0" type="line"/>
      <point x="147.9" y="540.0" type="line"/>
      <point x="67.9" y="540.0" type="line"/>
    </contour>
    <contour>
      <point x="147.9" y="160.0" type="line"/>
      <point x="227.9" y="160.0" type="line"/>
      <point x="227.9" y="240.0" type="line"/>
      <point x="147.9" y="240.0" type="line"/>
    </contour>
    <contour>
      <point x="147.9" y="300.0" type="line"/>
      <point x="227.9" y="300.0" type="line"/>
      <point x="227.9" y="400.0" type="line"/>
      <point x="147.9" y="400.0" type="line"/>
    </contour>
    <contour>
      <point x="147.9" y="400" type="line"/>
      <point x="227.9" y="400" type="line"/>
      <point x="227.9" y="600" type="line"/>
      <point x="147.9" y="600" type="line"/>
    </contour>
    <contour>
      <point x="147.9" y="600" type="line"/>
      <point x="227.9" y="600" type="line"/>
      <point x="227.9" y="700.0" type="line"/>
      <point x="147.9" y="700.0" type="line"/>
    </contour>
    <contour>
      <point x="227.9" y="160.0" type="line"/>
      <point x="307.9" y="160.0" type="line"/>
      <point x="307.9" y="240.0" type="line"/>
      <point x="227.9" y="240.0" type="line"/>
    </contour>
    <contour>
      <point x="227.9" y="460.0" type="line"/>
      <point x="307.9" y="460.0" type="line"/>
      <point x="307.9" y="540.0" type="line"/>
      <point x="227.9" y="540.0" type="line"/>
    </contour>
  </outline>
</glyph>
<glyph name="sup_two" format="2">
  <advance width="260.8"/>
  <unicode hex="00B2"/>
  <outline>
    <contour>
      <point x="112.9" y="280.0" type="line"/>
      <point x="68.74680000000001" y="280.0"/>
      <point x="32.9" y="244.1532"/>
      <point x="32.9" y="200.0" type="curve"/>
      <point x="112.9" y="200.0" type="line"/>
    </contour>
    <contour>
      <point x="112.9" y="200" type="line"/>
      <point x="147.9" y="200" type="line"/>
      <point x="147.9" y="280.0" type="line"/>
      <point x="112.9" y="280.0" type="line"/>
    </contour>
    <contour>
      <point x="120.4" y="760.0" type="curve" smooth="yes"/>
      <point x="120.4" y="784.83618"/>
      <point x="100.23617999999999" y="805.0"/>
      <point x="75.4" y="805.0" type="curve" smooth="yes"/>
      <point x="50.56382" y="805.0"/>
      <point x="30.4" y="784.83618"/>
      <point x="30.4" y="760.0" type="curve" smooth="yes"/>
      <point x="30.4" y="735.16382"/>
      <point x="50.56382" y="715.0"/>
      <point x="75.4" y="715.0" type="curve" smooth="yes"/>
      <point x="100.23617999999999" y="715.0"/>
      <point x="120.4" y="735.16382"/>
    </contour>
    <contour>
      <point x="147.9" y="200" type="line"/>
      <point x="227.9" y="200" type="line"/>
      <point x="227.9" y="280.0" type="line"/>
      <point x="147.9" y="280.0" type="line"/>
    </contour>
    <contour>
      <point x="147.9" y="333.0" type="line"/>
      <point x="192.0532" y="333.0"/>
      <point x="227.9" y="368.8468"/>
      <point x="227.9" y="413.0" type="curve"/>
      <point x="147.9" y="413.0" type="line"/>
    </contour>
    <contour>
      <point x="147.9" y="413.0" type="line"/>
      <point x="227.9" y="413.0" type="line"/>
      <point x="227.9" y="605.0" type="line"/>
      <point x="147.9" y="605.0" type="line"/>
    </contour>
    <contour>
      <point x="227.9" y="725.0" type="line"/>
      <point x="227.9" y="769.1532"/>
      <point x="192.0532" y="805.0"/>
      <point x="147.9" y="805.0" type="curve"/>
      <point x="147.9" y="725.0" type="line"/>
    </contour>
    <contour>
      <point x="147.9" y="605.0" type="line"/>
      <point x="227.9" y="605.0" type="line"/>
      <point x="227.9" y="725.0" type="line"/>
      <point x="147.9" y="725.0" type="line"/>
    </contour>
  </outline>
</glyph>
<glyph name="sup_three" format="2">
  <advance width="260.8"/>
  <unicode hex="00B3"/>
  <outline>
    <contour>
      <point x="117.9" y="240.0" type="curve" smooth="yes"/>
      <point x="117.9" y="264.83618"/>
      <point x="97.73617999999999" y="285.0"/>
      <point x="72.9" y="285.0" type="curve" smooth="yes"/>
      <point x="48.06382" y="285.0"/>
      <point x="27.9" y="264.83618"/>
      <point x="27.9" y="240.0" type="curve" smooth="yes"/>
      <point x="27.9" y="215.16382"/>
      <point x="48.06382" y="195.0"/>
      <point x="72.9" y="195.0" type="curve" smooth="yes"/>
      <point x="97.73617999999999" y="195.0"/>
      <point x="117.9" y="215.16382"/>
    </contour>
    <contour>
      <point x="117.9" y="760.0" type="curve" smooth="yes"/>
      <point x="117.9" y="784.83618"/>
      <point x="97.73617999999999" y="805.0"/>
      <point x="72.9" y="805.0" type="curve" smooth="yes"/>
      <point x="48.06382" y="805.0"/>
      <point x="27.9" y="784.83618"/>
      <point x="27.9" y="760.0" type="curve" smooth="yes"/>
      <point x="27.9" y="735.16382"/>
      <point x="48.06382" y="715.0"/>
      <point x="72.9" y="715.0" type="curve" smooth="yes"/>
      <point x="97.73617999999999" y="715.0"/>
      <point x="117.9" y="735.16382"/>
    </contour>
    <contour>
      <point x="147.9" y="195.0" type="line"/>
      <point x="192.0532" y="195.0"/>
      <point x="227.9" y="230.8468"/>
      <point x="227.9" y="275.0" type="curve"/>
      <point x="147.9" y="275.0" type="line"/>
    </contour>
    <contour>
      <point x="147.9" y="275.0" type="line"/>
      <point x="227.9" y="275.0" type="line"/>
      <point x="227.9" y="400.0" type="line"/>
      <point x="147.9" y="400.0" type="line"/>
    </contour>
    <contour>
      <point x="227.9" y="520.0" type="line"/>
      <point x="227.9" y="564.1532"/>
      <point x="192.0532" y="600.0"/>
      <point x="147.9" y="600.0" type="curve"/>
      <point x="147.9" y="520.0" type="line"/>
    </contour>
    <contour>
      <point x="147.9" y="400" type="line"/>
      <point x="227.9" y="400" type="line"/>
      <point x="227.9" y="520.0" type="line"/>
      <point x="147.9" y="520.0" type="line"/>
    </contour>
    <contour>
      <point x="147.9" y="600.0" type="line"/>
      <point x="192.0532" y="600.0"/>
      <point x="227.9" y="635.8468"/>
      <point x="227.9" y="680.0" type="curve"/>
      <point x="147.9" y="680.0" type="line"/>
    </contour>
    <contour>
      <point x="147.9" y="680.0" type="line"/>
      <point x="227.9" y="680.0" type="line"/>
      <point x="227.9" y="800.0" type="line"/>
      <point x="147.9" y="800.0" type="line"/>
    </contour>
  </outline>
</glyph>
<glyph name="acute" format="2">
  <advance width="145.8"/>
  <unicode hex="00B4"/>
  <outline>
    <contour>
      <point x="67.9" y="800.0" type="line"/>
      <point x="112.0532" y="800.0"/>
      <point x="147.9" y="835.8468"/>
      <point x="147.9" y="880.0" type="curve"/>
      <point x="67.9" y="880.0" type="line"/>
    </contour>
  </outline>
</glyph>
<glyph name="mu" format="2">
  <advance width="295.8"/>
  <unicode hex="00B5"/>
  <outline>
    <contour>
      <point x="32.9" y="-200" type="line"/>
      <point x="112.9" y="-200" type="line"/>
      <point x="112.9" y="0" type="line"/>
      <point x="32.9" y="0" type="line"/>
    </contour>
    <contour>
      <point x="32.9" y="0" type="line"/>
      <point x="112.9" y="0" type="line"/>
      <point x="112.9" y="200" type="line"/>
      <point x="32.9" y="200" type="line"/>
    </contour>
    <contour>
      <point x="32.9" y="200" type="line"/>
      <point x="112.9" y="200" type="line"/>
      <point x="112.9" y="400" type="line"/>
      <point x="32.9" y="400" type="line"/>
    </contour>
    <contour>
      <point x="32.9" y="400" type="line"/>
      <point x="112.9" y="400" type="line"/>
      <point x="112.9" y="600" type="line"/>
      <point x="32.9" y="600" type="line"/>
    </contour>
    <contour>
      <point x="147.9" y="80.0" type="line"/>
      <point x="147.9" y="35.8468"/>
      <point x="183.7468" y="0.0"/>
      <point x="227.9" y="0.0" type="curve"/>
      <point x="227.9" y="80.0" type="line"/>
    </contour>
    <contour>
      <point x="147.9" y="80.0" type="line"/>
      <point x="227.9" y="80.0" type="line"/>
      <point x="227.9" y="200.0" type="line"/>
      <point x="147.9" y="200.0" type="line"/>
    </contour>
    <contour>
      <point x="227.9" y="0" type="line"/>
      <point x="262.9" y="0" type="line"/>
      <point x="262.9" y="80.0" type="line"/>
      <point x="227.9" y="80.0" type="line"/>
    </contour>
    <contour>
      <point x="147.9" y="200" type="line"/>
      <point x="227.9" y="200" type="line"/>
      <point x="227.9" y="400" type="line"/>
      <point x="147.9" y="400" type="line"/>
    </contour>
    <contour>
      <point x="147.9" y="400" type="line"/>
      <point x="227.9" y="400" type="line"/>
      <point x="227.9" y="600" type="line"/>
      <point x="147.9" y="600" type="line"/>
    </contour>
  </outline>
</glyph>
<glyph name="periodcentered" format="2">
  <advance width="145.8"/>
  <unicode hex="00B7"/>
  <outline>
    <contour>
      <point x="117.9" y="400.0" type="curve" smooth="yes"/>
      <point x="117.9" y="424.83618"/>
      <point x="97.73617999999999" y="445.0"/>
      <point x="72.9" y="445.0" type="curve" smooth="yes"/>
      <point x="48.06382" y="445.0"/>
      <point x="27.9" y="424.83618"/>
      <point x="27.9" y="400.0" type="curve" smooth="yes"/>
      <point x="27.9" y="375.16382"/>
      <point x="48.06382" y="355.0"/>
      <point x="72.9" y="355.0" type="curve" smooth="yes"/>
      <point x="97.73617999999999" y="355.0"/>
      <point x="117.9" y="375.16382"/>
    </contour>
  </outline>
</glyph>
<glyph name="cedilla" format="2">
  <advance width="145.8"/>
  <unicode hex="00B8"/>
  <outline>
    <contour>
      <point x="147.9" y="-80.0" type="line"/>
      <point x="147.9" y="-35.8468"/>
      <point x="112.0532" y="0.0"/>
      <point x="67.9" y="0.0" type="curve"/>
      <point x="67.9" y="-80.0" type="line"/>
    </contour>
  </outline>
</glyph>
<glyph name="ordinalmasculine" format="2">
  <advance width="260.8"/>
  <unicode hex="00BA"/>
  <outline>
    <contour>
      <point x="32.9" y="480.0" type="line"/>
      <point x="32.9" y="435.8468"/>
      <point x="68.74680000000001" y="400.0"/>
      <point x="112.9" y="400.0" type="curve"/>
      <point x="112.9" y="480.0" type="line"/>
    </contour>
    <contour>
      <point x="32.9" y="480.0" type="line"/>
      <point x="112.9" y="480.0" type="line"/>
      <point x="112.9" y="600.0" type="line"/>
      <point x="32.9" y="600.0" type="line"/>
    </contour>
    <contour>
      <point x="112.9" y="800.0" type="line"/>
      <point x="68.74680000000001" y="800.0"/>
      <point x="32.9" y="764.1532"/>
      <point x="32.9" y="720.0" type="curve"/>
      <point x="112.9" y="720.0" type="line"/>
    </contour>
    <contour>
      <point x="32.9" y="600" type="line"/>
      <point x="112.9" y="600" type="line"/>
      <point x="112.9" y="720.0" type="line"/>
      <point x="32.9" y="720.0" type="line"/>
    </contour>
    <contour>
      <point x="147.9" y="400.0" type="line"/>
      <point x="192.0532" y="400.0"/>
      <point x="227.9" y="435.8468"/>
      <point x="227.9" y="480.0" type="curve"/>
      <point x="147.9" y="480.0" type="line"/>
    </contour>
    <contour>
      <point x="147.9" y="480.0" type="line"/>
      <point x="227.9" y="480.0" type="line"/>
      <point x="227.9" y="600.0" type="line"/>
      <point x="147.9" y="600.0" type="line"/>
    </contour>
    <contour>
      <point x="227.9" y="720.0" type="line"/>
      <point x="227.9" y="764.1532"/>
      <point x="192.0532" y="800.0"/>
      <point x="147.9" y="800.0" type="curve"/>
      <point x="147.9" y="720.0" type="line"/>
    </contour>
    <contour>
      <point x="147.9" y="600" type="line"/>
      <point x="227.9" y="600" type="line"/>
      <point x="227.9" y="720.0" type="line"/>
      <point x="147.9" y="720.0" type="line"/>
    </contour>
  </outline>
</glyph>
<glyph name="angledblright" format="2">
  <advance width="260.8"/>
  <unicode hex="00BB"/>
  <outline>
    <contour>
      <point x="32.9" y="320.0" type="line"/>
      <point x="77.0532" y="320.0"/>
      <point x="112.9" y="355.8468"/>
      <point x="112.9" y="400.0" type="curve"/>
      <point x="32.9" y="400.0" type="line"/>
    </contour>
    <contour>
      <point x="112.9" y="400" type="line"/>
      <point x="112.9" y="444.1532"/>
      <point x="77.0532" y="480.0"/>
      <point x="32.9" y="480.0" type="curve"/>
      <point x="32.9" y="400" type="line"/>
    </contour>
    <contour>
      <point x="147.9" y="320.0" type="line"/>
      <point x="192.0532" y="320.0"/>
      <point x="227.9" y="355.8468"/>
      <point x="227.9" y="400.0" type="curve"/>
      <point x="147.9" y="400.0" type="line"/>
    </contour>
    <contour>
      <point x="227.9" y="400" type="line"/>
      <point x="227.9" y="444.1532"/>
      <point x="192.0532" y="480.0"/>
      <point x="147.9" y="480.0" type="curve"/>
      <point x="147.9" y="400" type="line"/>
    </contour>
  </outline>
</glyph>
<glyph name="one_over_two" format="2">
  <advance width="490.8"/>
  <unicode hex="00BD"/>
  <outline>
    <contour>
      <point x="15.399999999999999" y="200" type="line"/>
      <point x="95.4" y="200" type="line"/>
      <point x="95.4" y="400" type="line"/>
      <point x="15.399999999999999" y="400" type="line"/>
    </contour>
    <contour>
      <point x="15.399999999999999" y="400" type="line"/>
      <point x="95.4" y="400" type="line"/>
      <point x="95.4" y="600" type="line"/>
      <point x="15.399999999999999" y="600" type="line"/>
    </contour>
    <contour>
      <point x="15.399999999999999" y="600" type="line"/>
      <point x="95.4" y="600" type="line"/>
      <point x="95.4" y="800" type="line"/>
      <point x="15.399999999999999" y="800" type="line"/>
    </contour>
    <contour>
      <point x="147.9" y="-200.0" type="line"/>
      <point x="192.0532" y="-200.0"/>
      <point x="227.9" y="-164.1532"/>
      <point x="227.9" y="-120.0" type="curve"/>
      <point x="147.9" y="-120.0" type="line"/>
    </contour>
    <contour>
      <point x="147.9" y="-120.0" type="line"/>
      <point x="227.9" y="-120.0" type="line"/>
      <point x="227.9" y="0.0" type="line"/>
      <point x="147.9" y="0.0" type="line"/>
    </contour>
    <contour>
      <point x="147.9" y="0" type="line"/>
      <point x="227.9" y="0" type="line"/>
      <point x="227.9" y="200" type="line"/>
      <point x="147.9" y="200" type="line"/>
    </contour>
    <contour>
      <point x="147.9" y="200" type="line"/>
      <point x="227.9" y="200" type="line"/>
      <point x="227.9" y="400" type="line"/>
      <point x="147.9" y="400" type="line"/>
    </contour>
    <contour>
      <point x="147.9" y="400" type="line"/>
      <point x="227.9" y="400" type="line"/>
      <point x="227.9" y="600" type="line"/>
      <point x="147.9" y="600" type="line"/>
    </contour>
    <contour>
      <point x="227.9" y="800.0" type="line"/>
      <point x="183.7468" y="800.0"/>
      <point x="147.9" y="764.1532"/>
      <point x="147.9" y="720.0" type="curve"/>
      <point x="227.9" y="720.0" type="line"/>
    </contour>
    <contour>
      <point x="147.9" y="600" type="line"/>
      <point x="227.9" y="600" type="line"/>
      <point x="227.9" y="720.0" type="line"/>
      <point x="147.9" y="720.0" type="line"/>
    </contour>
    <contour>
      <point x="360.4" y="-120.0" type="line"/>
      <point x="316.24679999999995" y="-120.0"/>
      <point x="280.4" y="-155.8468"/>
      <point x="280.4" y="-200.0" type="curve"/>
      <point x="360.4" y="-200.0" type="line"/>
    </contour>
    <contour>
      <point x="360.4" y="-200" type="line"/>
      <point x="395.4" y="-200" type="line"/>
      <point x="395.4" y="-120.0" type="line"/>
      <point x="360.4" y="-120.0" type="line"/>
    </contour>
    <contour>
      <point x="367.9" y="360.0" type="curve" smooth="yes"/>
      <point x="367.9" y="384.83618"/>
      <point x="347.73618" y="405.0"/>
      <point x="322.9" y="405.0" type="curve" smooth="yes"/>
      <point x="298.06381999999996" y="405.0"/>
      <point x="277.9" y="384.83618"/>
      <point x="277.9" y="360.0" type="curve" smooth="yes"/>
      <point x="277.9" y="335.16382"/>
      <point x="298.06381999999996" y="315.0"/>
      <point x="322.9" y="315.0" type="curve" smooth="yes"/>
      <point x="347.73618" y="315.0"/>
      <point x="367.9" y="335.16382"/>
    </contour>
    <contour>
      <point x="395.4" y="-200" type="line"/>
      <point x="475.4" y="-200" type="line"/>
      <point x="475.4" y="-120.0" type="line"/>
      <point x="395.4" y="-120.0" type="line"/>
    </contour>
    <contour>
      <point x="395.4" y="-67.0" type="line"/>
      <point x="439.5532" y="-67.0"/>
      <point x="475.4" y="-31.1532"/>
      <point x="475.4" y="13.0" type="curve"/>
      <point x="395.4" y="13.0" type="line"/>
    </contour>
    <contour>
      <point x="395.4" y="13.0" type="line"/>
      <point x="475.4" y="13.0" type="line"/>
      <point x="475.4" y="205.0" type="line"/>
      <point x="395.4" y="205.0" type="line"/>
    </contour>
    <contour>
      <point x="475.4" y="325.0" type="line"/>
      <point x="475.4" y="369.1532"/>
      <point x="439.5532" y="405.0"/>
      <point x="395.4" y="405.0" type="curve"/>
      <point x="395.4" y="325.0" type="line"/>
    </contour>
    <contour>
      <point x="395.4" y="205.0" type="line"/>
      <point x="475.4" y="205.0" type="line"/>
      <point x="475.4" y="325.0" type="line"/>
      <point x="395.4" y="325.0" type="line"/>
    </contour>
  </outline>
</glyph>
<glyph name="three_over_four" format="2">
  <advance width="605.8"/>
  <unicode hex="00BE"/>
  <outline>
    <contour>
      <point x="100.4" y="240.0" type="curve" smooth="yes"/>
      <point x="100.4" y="264.83618"/>
      <point x="80.23617999999999" y="285.0"/>
      <point x="55.4" y="285.0" type="curve" smooth="yes"/>
      <point x="30.56382" y="285.0"/>
      <point x="10.399999999999999" y="264.83618"/>
      <point x="10.399999999999999" y="240.0" type="curve" smooth="yes"/>
      <point x="10.399999999999999" y="215.16382"/>
      <point x="30.56382" y="195.0"/>
      <point x="55.4" y="195.0" type="curve" smooth="yes"/>
      <point x="80.23617999999999" y="195.0"/>
      <point x="100.4" y="215.16382"/>
    </contour>
    <contour>
      <point x="100.4" y="760.0" type="curve" smooth="yes"/>
      <point x="100.4" y="784.83618"/>
      <point x="80.23617999999999" y="805.0"/>
      <point x="55.4" y="805.0" type="curve" smooth="yes"/>
      <point x="30.56382" y="805.0"/>
      <point x="10.399999999999999" y="784.83618"/>
      <point x="10.399999999999999" y="760.0" type="curve" smooth="yes"/>
      <point x="10.399999999999999" y="735.16382"/>
      <point x="30.56382" y="715.0"/>
      <point x="55.4" y="715.0" type="curve" smooth="yes"/>
      <point x="80.23617999999999" y="715.0"/>
      <point x="100.4" y="735.16382"/>
    </contour>
    <contour>
      <point x="130.4" y="195.0" type="line"/>
      <point x="174.5532" y="195.0"/>
      <point x="210.4" y="230.8468"/>
      <point x="210.4" y="275.0" type="curve"/>
      <point x="130.4" y="275.0" type="line"/>
    </contour>
    <contour>
      <point x="130.4" y="275.0" type="line"/>
      <point x="210.4" y="275.0" type="line"/>
      <point x="210.4" y="400.0" type="line"/>
      <point x="130.4" y="400.0" type="line"/>
    </contour>
    <contour>
      <point x="210.4" y="520.0" type="line"/>
      <point x="210.4" y="564.1532"/>
      <point x="174.5532" y="600.0"/>
      <point x="130.4" y="600.0" type="curve"/>
      <point x="130.4" y="520.0" type="line"/>
    </contour>
    <contour>
      <point x="130.4" y="400" type="line"/>
      <point x="210.4" y="400" type="line"/>
      <point x="210.4" y="520.0" type="line"/>
      <point x="130.4" y="520.0" type="line"/>
    </contour>
    <contour>
      <point x="130.4" y="600.0" type="line"/>
      <point x="174.5532" y="600.0"/>
      <point x="210.4" y="635.8468"/>
      <point x="210.4" y="680.0" type="curve"/>
      <point x="130.4" y="680.0" type="line"/>
    </contour>
    <contour>
      <point x="130.4" y="680.0" type="line"/>
      <point x="210.4" y="680.0" type="line"/>
      <point x="210.4" y="800.0" type="line"/>
      <point x="130.4" y="800.0" type="line"/>
    </contour>
    <contour>
      <point x="262.9" y="-200.0" type="line"/>
      <point x="307.0532" y="-200.0"/>
      <point x="342.9" y="-164.1532"/>
      <point x="342.9" y="-120.0" type="curve"/>
      <point x="262.9" y="-120.0" type="line"/>
    </contour>
    <contour>
      <point x="262.9" y="-120.0" type="line"/>
      <point x="342.9" y="-120.0" type="line"/>
      <point x="342.9" y="0.0" type="line"/>
      <point x="262.9" y="0.0" type="line"/>
    </contour>
    <contour>
      <point x="262.9" y="0" type="line"/>
      <point x="342.9" y="0" type="line"/>
      <point x="342.9" y="200" type="line"/>
      <point x="262.9" y="200" type="line"/>
    </contour>
    <contour>
      <point x="262.9" y="200" type="line"/>
      <point x="342.9" y="200" type="line"/>
      <point x="342.9" y="400" type="line"/>
      <point x="262.9" y="400" type="line"/>
    </contour>
    <contour>
      <point x="262.9" y="400" type="line"/>
      <point x="342.9" y="400" type="line"/>
      <point x="342.9" y="600" type="line"/>
      <point x="262.9" y="600" type="line"/>
    </contour>
    <contour>
      <point x="342.9" y="800.0" type="line"/>
      <point x="298.74679999999995" y="800.0"/>
      <point x="262.9" y="764.1532"/>
      <point x="262.9" y="720.0" type="curve"/>
      <point x="342.9" y="720.0" type="line"/>
    </contour>
    <contour>
      <point x="262.9" y="600" type="line"/>
      <point x="342.9" y="600" type="line"/>
      <point x="342.9" y="720.0" type="line"/>
      <point x="262.9" y="720.0" type="line"/>
    </contour>
    <contour>
      <point x="395.4" y="0.0" type="line"/>
      <point x="439.5532" y="0.0"/>
      <point x="475.4" y="35.8468"/>
      <point x="475.4" y="80.0" type="curve"/>
      <point x="395.4" y="80.0" type="line"/>
    </contour>
    <contour>
      <point x="395.4" y="80.0" type="line"/>
      <point x="475.4" y="80.0" type="line"/>
      <point x="475.4" y="200.0" type="line"/>
      <point x="395.4" y="200.0" type="line"/>
    </contour>
    <contour>
      <point x="395.4" y="200" type="line"/>
      <point x="475.4" y="200" type="line"/>
      <point x="475.4" y="400" type="line"/>
      <point x="395.4" y="400" type="line"/>
    </contour>
    <contour>
      <point x="510.4" y="-200" type="line"/>
      <point x="590.4" y="-200" type="line"/>
      <point x="590.4" y="0" type="line"/>
      <point x="510.4" y="0" type="line"/>
    </contour>
    <contour>
      <point x="510.4" y="0" type="line"/>
      <point x="590.4" y="0" type="line"/>
      <point x="590.4" y="200" type="line"/>
      <point x="510.4" y="200" type="line"/>
    </contour>
  </outline>
</glyph>
<glyph name="invquestion" format="2">
  <advance width="260.8"/>
  <unicode hex="00BF"/>
  <outline>
    <contour>
      <point x="32.9" y="-125.0" type="line"/>
      <point x="32.9" y="-169.1532"/>
      <point x="68.74680000000001" y="-205.0"/>
      <point x="112.9" y="-205.0" type="curve"/>
      <point x="112.9" y="-125.0" type="line"/>
    </contour>
    <contour>
      <point x="32.9" y="-125.0" type="line"/>
      <point x="112.9" y="-125.0" type="line"/>
      <point x="112.9" y="-5.0" type="line"/>
      <point x="32.9" y="-5.0" type="line"/>
    </contour>
    <contour>
      <point x="112.9" y="195.0" type="line"/>
      <point x="68.74680000000001" y="195.0"/>
      <point x="32.9" y="159.1532"/>
      <point x="32.9" y="115.0" type="curve"/>
      <point x="112.9" y="115.0" type="line"/>
    </contour>
    <contour>
      <point x="32.9" y="-5.0" type="line"/>
      <point x="112.9" y="-5.0" type="line"/>
      <point x="112.9" y="115.0" type="line"/>
      <point x="32.9" y="115.0" type="line"/>
    </contour>
    <contour>
      <point x="232.9" y="-172.5" type="curve" smooth="yes"/>
      <point x="232.9" y="-147.66382"/>
      <point x="212.73618000000002" y="-127.5"/>
      <point x="187.9" y="-127.5" type="curve" smooth="yes"/>
      <point x="163.06382" y="-127.5"/>
      <point x="142.9" y="-147.66382"/>
      <point x="142.9" y="-172.5" type="curve" smooth="yes"/>
      <point x="142.9" y="-197.33618"/>
      <point x="163.06382" y="-217.5"/>
      <point x="187.9" y="-217.5" type="curve" smooth="yes"/>
      <point x="212.73618000000002" y="-217.5"/>
      <point x="232.9" y="-197.33618"/>
    </contour>
    <contour>
      <point x="147.9" y="120.0" type="line"/>
      <point x="192.0532" y="120.0"/>
      <point x="227.9" y="155.8468"/>
      <point x="227.9" y="200.0" type="curve"/>
      <point x="147.9" y="200.0" type="line"/>
    </contour>
    <contour>
      <point x="147.9" y="200" type="line"/>
      <point x="227.9" y="200" type="line"/>
      <point x="227.9" y="412.5" type="line"/>
      <point x="147.9" y="412.5" type="line"/>
    </contour>
    <contour>
      <point x="232.9" y="566.25" type="curve" smooth="yes"/>
      <point x="232.9" y="591.08618"/>
      <point x="212.73618000000002" y="611.25"/>
      <point x="187.9" y="611.25" type="curve" smooth="yes"/>
      <point x="163.06382" y="611.25"/>
      <point x="142.9" y="591.08618"/>
      <point x="142.9" y="566.25" type="curve" smooth="yes"/>
      <point x="142.9" y="541.41382"/>
      <point x="163.06382" y="521.25"/>
      <point x="187.9" y="521.25" type="curve" smooth="yes"/>
      <point x="212.73618000000002" y="521.25"/>
      <point x="232.9" y="541.41382"/>
    </contour>
  </outline>
</glyph>
<glyph name="A_with_ring" format="2">
  <advance width="260.8"/>
  <unicode hex="00C5"/>
  <outline>
    <contour>
      <point x="32.9" y="0" type="line"/>
      <point x="112.9" y="0" type="line"/>
      <point x="112.9" y="200" type="line"/>
      <point x="32.9" y="200" type="line"/>
    </contour>
    <contour>
      <point x="32.9" y="200" type="line"/>
      <point x="112.9" y="200" type="line"/>
      <point x="112.9" y="400" type="line"/>
      <point x="32.9" y="400" type="line"/>
    </contour>
    <contour>
      <point x="32.9" y="400" type="line"/>
      <point x="112.9" y="400" type="line"/>
      <point x="112.9" y="605.0" type="line"/>
      <point x="32.9" y="605.0" type="line"/>
    </contour>
    <contour>
      <point x="112.9" y="805.0" type="line"/>
      <point x="68.74680000000001" y="805.0"/>
      <point x="32.9" y="769.1532"/>
      <point x="32.9" y="725.0" type="curve"/>
      <point x="112.9" y="725.0" type="line"/>
    </contour>
    <contour>
      <point x="32.9" y="605.0" type="line"/>
      <point x="112.9" y="605.0" type="line"/>
      <point x="112.9" y="725.0" type="line"/>
      <point x="32.9" y="725.0" type="line"/>
    </contour>
    <contour>
      <point x="147.9" y="0" type="line"/>
      <point x="227.9" y="0" type="line"/>
      <point x="227.9" y="200" type="line"/>
      <point x="147.9" y="200" type="line"/>
    </contour>
    <contour>
      <point x="147.9" y="200" type="line"/>
      <point x="227.9" y="200" type="line"/>
      <point x="227.9" y="400" type="line"/>
      <point x="147.9" y="400" type="line"/>
    </contour>
    <contour>
      <point x="147.9" y="400" type="line"/>
      <point x="227.9" y="400" type="line"/>
      <point x="227.9" y="605.0" type="line"/>
      <point x="147.9" y="605.0" type="line"/>
    </contour>
    <contour>
      <point x="227.9" y="725.0" type="line"/>
      <point x="227.9" y="769.1532"/>
      <point x="192.0532" y="805.0"/>
      <point x="147.9" y="805.0" type="curve"/>
      <point x="147.9" y="725.0" type="line"/>
    </contour>
    <contour>
      <point x="147.9" y="605.0" type="line"/>
      <point x="227.9" y="605.0" type="line"/>
      <point x="227.9" y="725.0" type="line"/>
      <point x="147.9" y="725.0" type="line"/>
    </contour>
    <contour>
      <point x="112.9" y="935.0" type="line"/>
      <point x="88.06382" y="935.0"/>
      <point x="67.9" y="914.83618"/>
      <point x="67.9" y="890.0" type="curve" smooth="yes"/>
      <point x="67.9" y="865.16382"/>
      <point x="88.06382" y="845.0"/>
      <point x="112.9" y="845.0" type="curve"/>
    </contour>
    <contour>
      <point x="147.9" y="845.0" type="line"/>
      <point x="172.73618000000002" y="845.0"/>
      <point x="192.9" y="865.16382"/>
      <point x="192.9" y="890.0" type="curve" smooth="yes"/>
      <point x="192.9" y="914.83618"/>
      <point x="172.73618000000002" y="935.0"/>
      <point x="147.9" y="935.0" type="curve"/>
    </contour>
  </outline>
</glyph>
<glyph name="C_with_cedilla" format="2">
  <advance width="260.8"/>
  <unicode hex="00C7"/>
  <outline>
    <contour>
      <point x="32.9" y="80.0" type="line"/>
      <point x="32.9" y="35.8468"/>
      <point x="68.74680000000001" y="0.0"/>
      <point x="112.9" y="0.0" type="curve"/>
      <point x="112.9" y="80.0" type="line"/>
    </contour>
    <contour>
      <point x="32.9" y="80.0" type="line"/>
      <point x="112.9" y="80.0" type="line"/>
      <point x="112.9" y="200.0" type="line"/>
      <point x="32.9" y="200.0" type="line"/>
    </contour>
    <contour>
      <point x="32.9" y="200" type="line"/>
      <point x="112.9" y="200" type="line"/>
      <point x="112.9" y="400" type="line"/>
      <point x="32.9" y="400" type="line"/>
    </contour>
    <contour>
      <point x="32.9" y="400" type="line"/>
      <point x="112.9" y="400" type="line"/>
      <point x="112.9" y="600" type="line"/>
      <point x="32.9" y="600" type="line"/>
    </contour>
    <contour>
      <point x="112.9" y="800.0" type="line"/>
      <point x="68.74680000000001" y="800.0"/>
      <point x="32.9" y="764.1532"/>
      <point x="32.9" y="720.0" type="curve"/>
      <point x="112.9" y="720.0" type="line"/>
    </contour>
    <contour>
      <point x="32.9" y="600" type="line"/>
      <point x="112.9" y="600" type="line"/>
      <point x="112.9" y="720.0" type="line"/>
      <point x="32.9" y="720.0" type="line"/>
    </contour>
    <contour>
      <point x="227.9" y="80.0" type="line"/>
      <point x="183.7468" y="80.0"/>
      <point x="147.9" y="44.1532"/>
      <point x="147.9" y="0.0" type="curve"/>
      <point x="227.9" y="0.0" type="line"/>
    </contour>
    <contour>
      <point x="147.9" y="600.0" type="line"/>
      <point x="147.9" y="555.8468"/>
      <point x="183.7468" y="520.0"/>
      <point x="227.9" y="520.0" type="curve"/>
      <point x="227.9" y="600.0" type="line"/>
    </contour>
    <contour>
      <point x="147.9" y="600" type="line"/>
      <point x="227.9" y="600" type="line"/>
      <point x="227.9" y="800" type="line"/>
      <point x="147.9" y="800" type="line"/>
    </contour>
    <contour>
      <point x="205.4" y="-105.0" type="line"/>
      <point x="205.4" y="-60.8468"/>
      <point x="169.5532" y="-25.0"/>
      <point x="125.4" y="-25.0" type="curve"/>
      <point x="125.4" y="-105.0" type="line"/>
    </contour>
  </outline>
</glyph>
<glyph name="I_with_grave" format="2">
  <advance width="145.8"/>
  <unicode hex="00CC"/>
  <outline>
    <contour>
      <point x="32.9" y="0" type="line"/>
      <point x="112.9" y="0" type="line"/>
      <point x="112.9" y="200" type="line"/>
      <point x="32.9" y="200" type="line"/>
    </contour>
    <contour>
      <point x="32.9" y="200" type="line"/>
      <point x="112.9" y="200" type="line"/>
      <point x="112.9" y="400" type="line"/>
      <point x="32.9" y="400" type="line"/>
    </contour>
    <contour>
      <point x="32.9" y="400" type="line"/>
      <point x="112.9" y="400" type="line"/>
      <point x="112.9" y="600" type="line"/>
      <point x="32.9" y="600" type="line"/>
    </contour>
    <contour>
      <point x="32.9" y="600" type="line"/>
      <point x="112.9" y="600" type="line"/>
      <point x="112.9" y="800" type="line"/>
      <point x="32.9" y="800" type="line"/>
    </contour>
    <contour>
      <point x="-2.0999999999999943" y="930.0" type="line"/>
      <point x="-2.0999999999999943" y="885.8468"/>
      <point x="33.74680000000001" y="850.0"/>
      <point x="77.9" y="850.0" type="curve"/>
      <point x="77.9" y="930.0" type="line"/>
    </contour>
  </outline>
</glyph>
<glyph name="I_with_acute" format="2">
  <advance width="145.8"/>
  <unicode hex="00CD"/>
  <outline>
    <contour>
      <point x="32.9" y="0" type="line"/>
      <point x="112.9" y="0" type="line"/>
      <point x="112.9" y="200" type="line"/>
      <point x="32.9" y="200" type="line"/>
    </contour>
    <contour>
      <point x="32.9" y="200" type="line"/>
      <point x="112.9" y="200" type="line"/>
      <point x="112.9" y="400" type="line"/>
      <point x="32.9" y="400" type="line"/>
    </contour>
    <contour>
      <point x="32.9" y="400" type="line"/>
      <point x="112.9" y="400" type="line"/>
      <point x="112.9" y="600" type="line"/>
      <point x="32.9" y="600" type="line"/>
    </contour>
    <contour>
      <point x="32.9" y="600" type="line"/>
      <point x="112.9" y="600" type="line"/>
      <point x="112.9" y="800" type="line"/>
      <point x="32.9" y="800" type="line"/>
    </contour>
    <contour>
      <point x="67.9" y="850.0" type="line"/>
      <point x="112.0532" y="850.0"/>
      <point x="147.9" y="885.8468"/>
      <point x="147.9" y="930.0" type="curve"/>
      <point x="67.9" y="930.0" type="line"/>
    </contour>
  </outline>
</glyph>
<glyph name="I_with_circumflex" format="2">
  <advance width="145.8"/>
  <unicode hex="00CE"/>
  <outline>
    <contour>
      <point x="32.9" y="0" type="line"/>
      <point x="112.9" y="0" type="line"/>
      <point x="112.9" y="200" type="line"/>
      <point x="32.9" y="200" type="line"/>
    </contour>
    <contour>
      <point x="32.9" y="200" type="line"/>
      <point x="112.9" y="200" type="line"/>
      <point x="112.9" y="400" type="line"/>
      <point x="32.9" y="400" type="line"/>
    </contour>
    <contour>
      <point x="32.9" y="400" type="line"/>
      <point x="112.9" y="400" type="line"/>
      <point x="112.9" y="600" type="line"/>
      <point x="32.9" y="600" type="line"/>
    </contour>
    <contour>
      <point x="32.9" y="600" type="line"/>
      <point x="112.9" y="600" type="line"/>
      <point x="112.9" y="800" type="line"/>
      <point x="32.9" y="800" type="line"/>
    </contour>
    <contour>
      <point x="-9.599999999999994" y="850.0" type="line"/>
      <point x="34.553200000000004" y="850.0"/>
      <point x="70.4" y="885.8468"/>
      <point x="70.4" y="930.0" type="curve"/>
      <point x="-9.599999999999994" y="930.0" type="line"/>
    </contour>
    <contour>
      <point x="75.4" y="930.0" type="line"/>
      <point x="75.4" y="885.8468"/>
      <point x="111.24680000000001" y="850.0"/>
      <point x="155.4" y="850.0" type="curve"/>
      <point x="155.4" y="930.0" type="line"/>
    </contour>
  </outline>
</glyph>
<glyph name="I_with_diaeresis" format="2">
  <advance width="145.8"/>
  <unicode hex="00CF"/>
  <outline>
    <contour>
      <point x="32.9" y="0" type="line"/>
      <point x="112.9" y="0" type="line"/>
      <point x="112.9" y="200" type="line"/>
      <point x="32.9" y="200" type="line"/>
    </contour>
    <contour>
      <point x="32.9" y="200" type="line"/>
      <point x="112.9" y="200" type="line"/>
      <point x="112.9" y="400" type="line"/>
      <point x="32.9" y="400" type="line"/>
    </contour>
    <contour>
      <point x="32.9" y="400" type="line"/>
      <point x="112.9" y="400" type="line"/>
      <point x="112.9" y="600" type="line"/>
      <point x="32.9" y="600" type="line"/>
    </contour>
    <contour>
      <point x="32.9" y="600" type="line"/>
      <point x="112.9" y="600" type="line"/>
      <point x="112.9" y="800" type="line"/>
      <point x="32.9" y="800" type="line"/>
    </contour>
    <contour>
      <point x="60.400000000000006" y="890.0" type="curve" smooth="yes"/>
      <point x="60.400000000000006" y="914.83618"/>
      <point x="40.236180000000004" y="935.0"/>
      <point x="15.400000000000006" y="935.0" type="curve" smooth="yes"/>
      <point x="-9.436179999999995" y="935.0"/>
      <point x="-29.599999999999994" y="914.83618"/>
      <point x="-29.599999999999994" y="890.0" type="curve" smooth="yes"/>
      <point x="-29.599999999999994" y="865.16382"/>
      <point x="-9.436179999999995" y="845.0"/>
      <point x="15.400000000000006" y="845.0" type="curve" smooth="yes"/>
      <point x="40.236180000000004" y="845.0"/>
      <point x="60.400000000000006" y="865.16382"/>
    </contour>
    <contour>
      <point x="175.4" y="890.0" type="curve" smooth="yes"/>
      <point x="175.4" y="914.83618"/>
      <point x="155.23618000000002" y="935.0"/>
      <point x="130.4" y="935.0" type="curve" smooth="yes"/>
      <point x="105.56381999999999" y="935.0"/>
      <point x="85.4" y="914.83618"/>
      <point x="85.4" y="890.0" type="curve" smooth="yes"/>
      <point x="85.4" y="865.16382"/>
      <point x="105.56381999999999" y="845.0"/>
      <point x="130.4" y="845.0" type="curve" smooth="yes"/>
      <point x="155.23618000000002" y="845.0"/>
      <point x="175.4" y="865.16382"/>
    </contour>
  </outline>
</glyph>
<glyph name="ETH" format="2">
  <advance width="375.8"/>
  <unicode hex="00D0"/>
  <outline>
    <contour>
      <point x="162.9" y="440.0" type="line"/>
      <point x="118.74680000000001" y="440.0"/>
      <point x="82.9" y="404.1532"/>
      <point x="82.9" y="360.0" type="curve"/>
      <point x="162.9" y="360.0" type="line"/>
    </contour>
    <contour>
      <point x="147.9" y="0" type="line"/>
      <point x="227.9" y="0" type="line"/>
      <point x="227.9" y="200" type="line"/>
      <point x="147.9" y="200" type="line"/>
    </contour>
    <contour>
      <point x="147.9" y="200" type="line"/>
      <point x="227.9" y="200" type="line"/>
      <point x="227.9" y="400" type="line"/>
      <point x="147.9" y="400" type="line"/>
    </contour>
    <contour>
      <point x="147.9" y="400" type="line"/>
      <point x="227.9" y="400" type="line"/>
      <point x="227.9" y="600" type="line"/>
      <point x="147.9" y="600" type="line"/>
    </contour>
    <contour>
      <point x="147.9" y="600" type="line"/>
      <point x="227.9" y="600" type="line"/>
      <point x="227.9" y="800" type="line"/>
      <point x="147.9" y="800" type="line"/>
    </contour>
    <contour>
      <point x="262.9" y="0.0" type="line"/>
      <point x="307.0532" y="0.0"/>
      <point x="342.9" y="35.8468"/>
      <point x="342.9" y="80.0" type="curve"/>
      <point x="262.9" y="80.0" type="line"/>
    </contour>
    <contour>
      <point x="262.9" y="80.0" type="line"/>
      <point x="342.9" y="80.0" type="line"/>
      <point x="342.9" y="200.0" type="line"/>
      <point x="262.9" y="200.0" type="line"/>
    </contour>
    <contour>
      <point x="262.9" y="200" type="line"/>
      <point x="342.9" y="200" type="line"/>
      <point x="342.9" y="400" type="line"/>
      <point x="262.9" y="400" type="line"/>
    </contour>
    <contour>
      <point x="262.9" y="400" type="line"/>
      <point x="342.9" y="400" type="line"/>
      <point x="342.9" y="600" type="line"/>
      <point x="262.9" y="600" type="line"/>
    </contour>
    <contour>
      <point x="342.9" y="720.0" type="line"/>
      <point x="342.9" y="764.1532"/>
      <point x="307.0532" y="800.0"/>
      <point x="262.9" y="800.0" type="curve"/>
      <point x="262.9" y="720.0" type="line"/>
    </contour>
    <contour>
      <point x="262.9" y="600" type="line"/>
      <point x="342.9" y="600" type="line"/>
      <point x="342.9" y="720.0" type="line"/>
      <point x="262.9" y="720.0" type="line"/>
    </contour>
  </outline>
</glyph>
<glyph name="N_with_smalltilde" format="2">
  <advance width="260.8"/>
  <unicode hex="00D1"/>
  <outline>
    <contour>
      <point x="32.9" y="0" type="line"/>
      <point x="112.9" y="0" type="line"/>
      <point x="112.9" y="200" type="line"/>
      <point x="32.9" y="200" type="line"/>
    </contour>
    <contour>
      <point x="32.9" y="200" type="line"/>
      <point x="112.9" y="200" type="line"/>
      <point x="112.9" y="400" type="line"/>
      <point x="32.9" y="400" type="line"/>
    </contour>
    <contour>
      <point x="32.9" y="400" type="line"/>
      <point x="112.9" y="400" type="line"/>
      <point x="112.9" y="600" type="line"/>
      <point x="32.9" y="600" type="line"/>
    </contour>
    <contour>
      <point x="32.9" y="600" type="line"/>
      <point x="112.9" y="600" type="line"/>
      <point x="112.9" y="800" type="line"/>
      <point x="32.9" y="800" type="line"/>
    </contour>
    <contour>
      <point x="147.9" y="0" type="line"/>
      <point x="227.9" y="0" type="line"/>
      <point x="227.9" y="200" type="line"/>
      <point x="147.9" y="200" type="line"/>
    </contour>
    <contour>
      <point x="147.9" y="200" type="line"/>
      <point x="227.9" y="200" type="line"/>
      <point x="227.9" y="400" type="line"/>
      <point x="147.9" y="400" type="line"/>
    </contour>
    <contour>
      <point x="147.9" y="400" type="line"/>
      <point x="227.9" y="400" type="line"/>
      <point x="227.9" y="600" type="line"/>
      <point x="147.9" y="600" type="line"/>
    </contour>
    <contour>
      <point x="227.9" y="720.0" type="line"/>
      <point x="227.9" y="764.1532"/>
      <point x="192.0532" y="800.0"/>
      <point x="147.9" y="800.0" type="curve"/>
      <point x="147.9" y="720.0" type="line"/>
    </contour>
    <contour>
      <point x="147.9" y="600" type="line"/>
      <point x="227.9" y="600" type="line"/>
      <point x="227.9" y="720.0" type="line"/>
      <point x="147.9" y="720.0" type="line"/>
    </contour>
    <contour>
      <point x="130.4" y="930.0" type="line"/>
      <point x="86.24680000000001" y="930.0"/>
      <point x="50.400000000000006" y="894.1532"/>
      <point x="50.400000000000006" y="850.0" type="curve"/>
      <point x="130.4" y="850.0" type="line"/>
    </contour>
    <contour>
      <point x="130.4" y="850.0" type="line"/>
      <point x="174.5532" y="850.0"/>
      <point x="210.4" y="885.8468"/>
      <point x="210.4" y="930.0" type="curve"/>
      <point x="130.4" y="930.0" type="line"/>
    </contour>
  </outline>
</glyph>
<glyph name="O_with_grave" format="2">
  <advance width="260.8"/>
  <unicode hex="00D2"/>
  <outline>
    <contour>
      <point x="32.9" y="75.0" type="line"/>
      <point x="32.9" y="30.8468"/>
      <point x="68.74680000000001" y="-5.0"/>
      <point x="112.9" y="-5.0" type="curve"/>
      <point x="112.9" y="75.0" type="line"/>
    </contour>
    <contour>
      <point x="32.9" y="75.0" type="line"/>
      <point x="112.9" y="75.0" type="line"/>
      <point x="112.9" y="195.0" type="line"/>
      <point x="32.9" y="195.0" type="line"/>
    </contour>
    <contour>
      <point x="32.9" y="195.0" type="line"/>
      <point x="112.9" y="195.0" type="line"/>
      <point x="112.9" y="400.0" type="line"/>
      <point x="32.9" y="400.0" type="line"/>
    </contour>
    <contour>
      <point x="32.9" y="400" type="line"/>
      <point x="112.9" y="400" type="line"/>
      <point x="112.9" y="605.0" type="line"/>
      <point x="32.9" y="605.0" type="line"/>
    </contour>
    <contour>
      <point x="112.9" y="805.0" type="line"/>
      <point x="68.74680000000001" y="805.0"/>
      <point x="32.9" y="769.1532"/>
      <point x="32.9" y="725.0" type="curve"/>
      <point x="112.9" y="725.0" type="line"/>
    </contour>
    <contour>
      <point x="32.9" y="605.0" type="line"/>
      <point x="112.9" y="605.0" type="line"/>
      <point x="112.9" y="725.0" type="line"/>
      <point x="32.9" y="725.0" type="line"/>
    </contour>
    <contour>
      <point x="147.9" y="-5.0" type="line"/>
      <point x="192.0532" y="-5.0"/>
      <point x="227.9" y="30.8468"/>
      <point x="227.9" y="75.0" type="curve"/>
      <point x="147.9" y="75.0" type="line"/>
    </contour>
    <contour>
      <point x="147.9" y="75.0" type="line"/>
      <point x="227.9" y="75.0" type="line"/>
      <point x="227.9" y="195.0" type="line"/>
      <point x="147.9" y="195.0" type="line"/>
    </contour>
    <contour>
      <point x="147.9" y="195.0" type="line"/>
      <point x="227.9" y="195.0" type="line"/>
      <point x="227.9" y="400.0" type="line"/>
      <point x="147.9" y="400.0" type="line"/>
    </contour>
    <contour>
      <point x="147.9" y="400" type="line"/>
      <point x="227.9" y="400" type="line"/>
      <point x="227.9" y="605.0" type="line"/>
      <point x="147.9" y="605.0" type="line"/>
    </contour>
    <contour>
      <point x="227.9" y="725.0" type="line"/>
      <point x="227.9" y="769.1532"/>
      <point x="192.0532" y="805.0"/>
      <point x="147.9" y="805.0" type="curve"/>
      <point x="147.9" y="725.0" type="line"/>
    </contour>
    <contour>
      <point x="147.9" y="605.0" type="line"/>
      <point x="227.9" y="605.0" type="line"/>
      <point x="227.9" y="725.0" type="line"/>
      <point x="147.9" y="725.0" type="line"/>
    </contour>
    <contour>
      <point x="55.400000000000006" y="930.0" type="line"/>
      <point x="55.400000000000006" y="885.8468"/>
      <point x="91.24680000000001" y="850.0"/>
      <point x="135.4" y="850.0" type="curve"/>
      <point x="135.4" y="930.0" type="line"/>
    </contour>
  </outline>
</glyph>
<glyph name="O_with_stroke" format="2">
  <advance width="260.8"/>
  <unicode hex="00D8"/>
  <outline>
    <contour>
      <point x="32.9" y="75.0" type="line"/>
      <point x="32.9" y="30.8468"/>
      <point x="68.74680000000001" y="-5.0"/>
      <point x="112.9" y="-5.0" type="curve"/>
      <point x="112.9" y="75.0" type="line"/>
    </contour>
    <contour>
      <point x="32.9" y="75.0" type="line"/>
      <point x="112.9" y="75.0" type="line"/>
      <point x="112.9" y="195.0" type="line"/>
      <point x="32.9" y="195.0" type="line"/>
    </contour>
    <contour>
      <point x="32.9" y="195.0" type="line"/>
      <point x="112.9" y="195.0" type="line"/>
      <point x="112.9" y="400.0" type="line"/>
      <point x="32.9" y="400.0" type="line"/>
    </contour>
    <contour>
      <point x="32.9" y="400" type="line"/>
      <point x="112.9" y="400" type="line"/>
      <point x="112.9" y="605.0" type="line"/>
      <point x="32.9" y="605.0" type="line"/>
    </contour>
    <contour>
      <point x="112.9" y="805.0" type="line"/>
      <point x="68.74680000000001" y="805.0"/>
      <point x="32.9" y="769.1532"/>
      <point x="32.9" y="725.0" type="curve"/>
      <point x="112.9" y="725.0" type="line"/>
    </contour>
    <contour>
      <point x="32.9" y="605.0" type="line"/>
      <point x="112.9" y="605.0" type="line"/>
      <point x="112.9" y="725.0" type="line"/>
      <point x="32.9" y="725.0" type="line"/>
    </contour>
    <contour>
      <point x="92.9" y="40.0" type="line"/>
      <point x="48.7468" y="40.0"/>
      <point x="12.899999999999999" y="4.1532"/>
      <point x="12.899999999999999" y="-40.0" type="curve"/>
      <point x="92.9" y="-40.0" type="line"/>
    </contour>
    <contour>
      <point x="147.9" y="-5.0" type="line"/>
      <point x="192.0532" y="-5.0"/>
      <point x="227.9" y="30.8468"/>
      <point x="227.9" y="75.0" type="curve"/>
      <point x="147.9" y="75.0" type="line"/>
    </contour>
    <contour>
      <point x="147.9" y="75.0" type="line"/>
      <point x="227.9" y="75.0" type="line"/>
      <point x="227.9" y="195.0" type="line"/>
      <point x="147.9" y="195.0" type="line"/>
    </contour>
    <contour>
      <point x="147.9" y="195.0" type="line"/>
      <point x="227.9" y="195.0" type="line"/>
      <point x="227.9" y="400.0" type="line"/>
      <point x="147.9" y="400.0" type="line"/>
    </contour>
    <contour>
      <point x="147.9" y="400" type="line"/>
      <point x="227.9" y="400" type="line"/>
      <point x="227.9" y="605.0" type="line"/>
      <point x="147.9" y="605.0" type="line"/>
    </contour>
    <contour>
      <point x="227.9" y="725.0" type="line"/>
      <point x="227.9" y="769.1532"/>
      <point x="192.0532" y="805.0"/>
      <point x="147.9" y="805.0" type="curve"/>
      <point x="147.9" y="725.0" type="line"/>
    </contour>
    <contour>
      <point x="147.9" y="605.0" type="line"/>
      <point x="227.9" y="605.0" type="line"/>
      <point x="227.9" y="725.0" type="line"/>
      <point x="147.9" y="725.0" type="line"/>
    </contour>
    <contour>
      <point x="167.9" y="760.0" type="line"/>
      <point x="212.0532" y="760.0"/>
      <point x="247.9" y="795.8468"/>
      <point x="247.9" y="840.0" type="curve"/>
      <point x="167.9" y="840.0" type="line"/>
    </contour>
  </outline>
</glyph>
<glyph name="U_with_acute" format="2">
  <advance width="260.8"/>
  <unicode hex="00DA"/>
  <outline>
    <contour>
      <point x="32.9" y="75.0" type="line"/>
      <point x="32.9" y="30.8468"/>
      <point x="68.74680000000001" y="-5.0"/>
      <point x="112.9" y="-5.0" type="curve"/>
      <point x="112.9" y="75.0" type="line"/>
    </contour>
    <contour>
      <point x="32.9" y="75.0" type="line"/>
      <point x="112.9" y="75.0" type="line"/>
      <point x="112.9" y="195.0" type="line"/>
      <point x="32.9" y="195.0" type="line"/>
    </contour>
    <contour>
      <point x="32.9" y="195.0" type="line"/>
      <point x="112.9" y="195.0" type="line"/>
      <point x="112.9" y="400.0" type="line"/>
      <point x="32.9" y="400.0" type="line"/>
    </contour>
    <contour>
      <point x="32.9" y="400" type="line"/>
      <point x="112.9" y="400" type="line"/>
      <point x="112.9" y="600" type="line"/>
      <point x="32.9" y="600" type="line"/>
    </contour>
    <contour>
      <point x="32.9" y="600" type="line"/>
      <point x="112.9" y="600" type="line"/>
      <point x="112.9" y="800" type="line"/>
      <point x="32.9" y="800" type="line"/>
    </contour>
    <contour>
      <point x="147.9" y="-5.0" type="line"/>
      <point x="192.0532" y="-5.0"/>
      <point x="227.9" y="30.8468"/>
      <point x="227.9" y="75.0" type="curve"/>
      <point x="147.9" y="75.0" type="line"/>
    </contour>
    <contour>
      <point x="147.9" y="75.0" type="line"/>
      <point x="227.9" y="75.0" type="line"/>
      <point x="227.9" y="195.0" type="line"/>
      <point x="147.9" y="195.0" type="line"/>
    </contour>
    <contour>
      <point x="147.9" y="195.0" type="line"/>
      <point x="227.9" y="195.0" type="line"/>
      <point x="227.9" y="400.0" type="line"/>
      <point x="147.9" y="400.0" type="line"/>
    </contour>
    <contour>
      <point x="147.9" y="400" type="line"/>
      <point x="227.9" y="400" type="line"/>
      <point x="227.9" y="600" type="line"/>
      <point x="147.9" y="600" type="line"/>
    </contour>
    <contour>
      <point x="147.9" y="600" type="line"/>
      <point x="227.9" y="600" type="line"/>
      <point x="227.9" y="800" type="line"/>
      <point x="147.9" y="800" type="line"/>
    </contour>
    <contour>
      <point x="125.4" y="850.0" type="line"/>
      <point x="169.5532" y="850.0"/>
      <point x="205.4" y="885.8468"/>
      <point x="205.4" y="930.0" type="curve"/>
      <point x="125.4" y="930.0" type="line"/>
    </contour>
  </outline>
</glyph>
<glyph name="U_with_circumflex" format="2">
  <advance width="260.8"/>
  <unicode hex="00DB"/>
  <outline>
    <contour>
      <point x="32.9" y="75.0" type="line"/>
      <point x="32.9" y="30.8468"/>
      <point x="68.74680000000001" y="-5.0"/>
      <point x="112.9" y="-5.0" type="curve"/>
      <point x="112.9" y="75.0" type="line"/>
    </contour>
    <contour>
      <point x="32.9" y="75.0" type="line"/>
      <point x="112.9" y="75.0" type="line"/>
      <point x="112.9" y="195.0" type="line"/>
      <point x="32.9" y="195.0" type="line"/>
    </contour>
    <contour>
      <point x="32.9" y="195.0" type="line"/>
      <point x="112.9" y="195.0" type="line"/>
      <point x="112.9" y="400.0" type="line"/>
      <point x="32.9" y="400.0" type="line"/>
    </contour>
    <contour>
      <point x="32.9" y="400" type="line"/>
      <point x="112.9" y="400" type="line"/>
      <point x="112.9" y="600" type="line"/>
      <point x="32.9" y="600" type="line"/>
    </contour>
    <contour>
      <point x="32.9" y="600" type="line"/>
      <point x="112.9" y="600" type="line"/>
      <point x="112.9" y="800" type="line"/>
      <point x="32.9" y="800" type="line"/>
    </contour>
    <contour>
      <point x="147.9" y="-5.0" type="line"/>
      <point x="192.0532" y="-5.0"/>
      <point x="227.9" y="30.8468"/>
      <point x="227.9" y="75.0" type="curve"/>
      <point x="147.9" y="75.0" type="line"/>
    </contour>
    <contour>
      <point x="147.9" y="75.0" type="line"/>
      <point x="227.9" y="75.0" type="line"/>
      <point x="227.9" y="195.0" type="line"/>
      <point x="147.9" y="195.0" type="line"/>
    </contour>
    <contour>
      <point x="147.9" y="195.0" type="line"/>
      <point x="227.9" y="195.0" type="line"/>
      <point x="227.9" y="400.0" type="line"/>
      <point x="147.9" y="400.0" type="line"/>
    </contour>
    <contour>
      <point x="147.9" y="400" type="line"/>
      <point x="227.9" y="400" type="line"/>
      <point x="227.9" y="600" type="line"/>
      <point x="147.9" y="600" type="line"/>
    </contour>
    <contour>
      <point x="147.9" y="600" type="line"/>
      <point x="227.9" y="600" type="line"/>
      <point x="227.9" y="800" type="line"/>
      <point x="147.9" y="800" type="line"/>
    </contour>
    <contour>
      <point x="47.900000000000006" y="850.0" type="line"/>
      <point x="92.0532" y="850.0"/>
      <point x="127.9" y="885.8468"/>
      <point x="127.9" y="930.0" type="curve"/>
      <point x="47.900000000000006" y="930.0" type="line"/>
    </contour>
    <contour>
      <point x="132.9" y="930.0" type="line"/>
      <point x="132.9" y="885.8468"/>
      <point x="168.7468" y="850.0"/>
      <point x="212.9" y="850.0" type="curve"/>
      <point x="212.9" y="930.0" type="line"/>
    </contour>
  </outline>
</glyph>
<glyph name="THORN" format="2">
  <advance width="260.8"/>
  <unicode hex="00DE"/>
  <outline>
    <contour>
      <point x="32.9" y="0" type="line"/>
      <point x="112.9" y="0" type="line"/>
      <point x="112.9" y="200" type="line"/>
      <point x="32.9" y="200" type="line"/>
    </contour>
    <contour>
      <point x="32.9" y="200" type="line"/>
      <point x="112.9" y="200" type="line"/>
      <point x="112.9" y="400" type="line"/>
      <point x="32.9" y="400" type="line"/>
    </contour>
    <contour>
      <point x="32.9" y="400" type="line"/>
      <point x="112.9" y="400" type="line"/>
      <point x="112.9" y="600" type="line"/>
      <point x="32.9" y="600" type="line"/>
    </contour>
    <contour>
      <point x="32.9" y="600" type="line"/>
      <point x="112.9" y="600" type="line"/>
      <point x="112.9" y="800" type="line"/>
      <point x="32.9" y="800" type="line"/>
    </contour>
    <contour>
      <point x="147.9" y="100.0" type="line"/>
      <point x="192.0532" y="100.0"/>
      <point x="227.9" y="135.8468"/>
      <point x="227.9" y="180.0" type="curve"/>
      <point x="147.9" y="180.0" type="line"/>
    </contour>
    <contour>
      <point x="147.9" y="180.0" type="line"/>
      <point x="227.9" y="180.0" type="line"/>
      <point x="227.9" y="300.0" type="line"/>
      <point x="147.9" y="300.0" type="line"/>
    </contour>
    <contour>
      <point x="147.9" y="300.0" type="line"/>
      <point x="227.9" y="300.0" type="line"/>
      <point x="227.9" y="500.0" type="line"/>
      <point x="147.9" y="500.0" type="line"/>
    </contour>
    <contour>
      <point x="227.9" y="620.0" type="line"/>
      <point x="227.9" y="664.1532"/>
      <point x="192.0532" y="700.0"/>
      <point x="147.9" y="700.0" type="curve"/>
      <point x="147.9" y="620.0" type="line"/>
    </contour>
    <contour>
      <point x="147.9" y="500.0" type="line"/>
      <point x="227.9" y="500.0" type="line"/>
      <point x="227.9" y="620.0" type="line"/>
      <point x="147.9" y="620.0" type="line"/>
    </contour>
  </outline>
</glyph>
<glyph name="a_with_ring" format="2">
  <advance width="260.8"/>
  <unicode hex="00E5"/>
  <outline>
    <contour>
      <point x="32.9" y="80.0" type="line"/>
      <point x="32.9" y="35.8468"/>
      <point x="68.74680000000001" y="0.0"/>
      <point x="112.9" y="0.0" type="curve"/>
      <point x="112.9" y="80.0" type="line"/>
    </contour>
    <contour>
      <point x="32.9" y="80.0" type="line"/>
      <point x="112.9" y="80.0" type="line"/>
      <point x="112.9" y="200.0" type="line"/>
      <point x="32.9" y="200.0" type="line"/>
    </contour>
    <contour>
      <point x="112.9" y="400.0" type="line"/>
      <point x="68.74680000000001" y="400.0"/>
      <point x="32.9" y="364.1532"/>
      <point x="32.9" y="320.0" type="curve"/>
      <point x="112.9" y="320.0" type="line"/>
    </contour>
    <contour>
      <point x="32.9" y="200" type="line"/>
      <point x="112.9" y="200" type="line"/>
      <point x="112.9" y="320.0" type="line"/>
      <point x="32.9" y="320.0" type="line"/>
    </contour>
    <contour>
      <point x="119.15" y="560.0" type="curve" smooth="yes"/>
      <point x="119.15" y="584.83618"/>
      <point x="98.98617999999999" y="605.0"/>
      <point x="74.15" y="605.0" type="curve" smooth="yes"/>
      <point x="49.31382" y="605.0"/>
      <point x="29.15" y="584.83618"/>
      <point x="29.15" y="560.0" type="curve" smooth="yes"/>
      <point x="29.15" y="535.16382"/>
      <point x="49.31382" y="515.0"/>
      <point x="74.15" y="515.0" type="curve" smooth="yes"/>
      <point x="98.98617999999999" y="515.0"/>
      <point x="119.15" y="535.16382"/>
    </contour>
    <contour>
      <point x="147.9" y="75.0" type="line"/>
      <point x="147.9" y="30.8468"/>
      <point x="183.7468" y="-5.0"/>
      <point x="227.9" y="-5.0" type="curve"/>
      <point x="227.9" y="75.0" type="line"/>
    </contour>
    <contour>
      <point x="147.9" y="75.0" type="line"/>
      <point x="227.9" y="75.0" type="line"/>
      <point x="227.9" y="200.0" type="line"/>
      <point x="147.9" y="200.0" type="line"/>
    </contour>
    <contour>
      <point x="147.9" y="200" type="line"/>
      <point x="227.9" y="200" type="line"/>
      <point x="227.9" y="400" type="line"/>
      <point x="147.9" y="400" type="line"/>
    </contour>
    <contour>
      <point x="227.9" y="522.5" type="line"/>
      <point x="227.9" y="566.6532"/>
      <point x="192.0532" y="602.5"/>
      <point x="147.9" y="602.5" type="curve"/>
      <point x="147.9" y="522.5" type="line"/>
    </contour>
    <contour>
      <point x="147.9" y="400" type="line"/>
      <point x="227.9" y="400" type="line"/>
      <point x="227.9" y="522.5" type="line"/>
      <point x="147.9" y="522.5" type="line"/>
    </contour>
    <contour>
      <point x="111.025" y="735.0" type="line"/>
      <point x="86.18882" y="735.0"/>
      <point x="66.025" y="714.83618"/>
      <point x="66.025" y="690.0" type="curve" smooth="yes"/>
      <point x="66.025" y="665.16382"/>
      <point x="86.18882" y="645.0"/>
      <point x="111.025" y="645.0" type="curve"/>
    </contour>
    <contour>
      <point x="146.025" y="645.0" type="line"/>
      <point x="170.86118000000002" y="645.0"/>
      <point x="191.025" y="665.16382"/>
      <point x="191.025" y="690.0" type="curve" smooth="yes"/>
      <point x="191.025" y="714.83618"/>
      <point x="170.86118000000002" y="735.0"/>
      <point x="146.025" y="735.0" type="curve"/>
    </contour>
  </outline>
</glyph>
<glyph name="e_with_grave" format="2">
  <advance width="260.8"/>
  <unicode hex="00E8"/>
  <outline>
    <contour>
      <point x="32.9" y="75.0" type="line"/>
      <point x="32.9" y="30.8468"/>
      <point x="68.74680000000001" y="-5.0"/>
      <point x="112.9" y="-5.0" type="curve"/>
      <point x="112.9" y="75.0" type="line"/>
    </contour>
    <contour>
      <point x="32.9" y="75.0" type="line"/>
      <point x="112.9" y="75.0" type="line"/>
      <point x="112.9" y="195.0" type="line"/>
      <point x="32.9" y="195.0" type="line"/>
    </contour>
    <contour>
      <point x="32.9" y="195.0" type="line"/>
      <point x="112.9" y="195.0" type="line"/>
      <point x="112.9" y="405.0" type="line"/>
      <point x="32.9" y="405.0" type="line"/>
    </contour>
    <contour>
      <point x="112.9" y="605.0" type="line"/>
      <point x="68.74680000000001" y="605.0"/>
      <point x="32.9" y="569.1532"/>
      <point x="32.9" y="525.0" type="curve"/>
      <point x="112.9" y="525.0" type="line"/>
    </contour>
    <contour>
      <point x="32.9" y="405.0" type="line"/>
      <point x="112.9" y="405.0" type="line"/>
      <point x="112.9" y="525.0" type="line"/>
      <point x="32.9" y="525.0" type="line"/>
    </contour>
    <contour>
      <point x="147.9" y="195.0" type="line"/>
      <point x="227.9" y="195.0" type="line"/>
      <point x="227.9" y="405.0" type="line"/>
      <point x="147.9" y="405.0" type="line"/>
    </contour>
    <contour>
      <point x="227.9" y="525.0" type="line"/>
      <point x="227.9" y="569.1532"/>
      <point x="192.0532" y="605.0"/>
      <point x="147.9" y="605.0" type="curve"/>
      <point x="147.9" y="525.0" type="line"/>
    </contour>
    <contour>
      <point x="147.9" y="405.0" type="line"/>
      <point x="227.9" y="405.0" type="line"/>
      <point x="227.9" y="525.0" type="line"/>
      <point x="147.9" y="525.0" type="line"/>
    </contour>
    <contour>
      <point x="55.400000000000006" y="730.0" type="line"/>
      <point x="55.400000000000006" y="685.8468"/>
      <point x="91.24680000000001" y="650.0"/>
      <point x="135.4" y="650.0" type="curve"/>
      <point x="135.4" y="730.0" type="line"/>
    </contour>
  </outline>
</glyph>
<glyph name="i_with_circumflex" format="2">
  <advance width="145.8"/>
  <unicode hex="00EE"/>
  <outline>
    <contour>
      <point x="32.9" y="0" type="line"/>
      <point x="112.9" y="0" type="line"/>
      <point x="112.9" y="200" type="line"/>
      <point x="32.9" y="200" type="line"/>
    </contour>
    <contour>
      <point x="32.9" y="200" type="line"/>
      <point x="112.9" y="200" type="line"/>
      <point x="112.9" y="400" type="line"/>
      <point x="32.9" y="400" type="line"/>
    </contour>
    <contour>
      <point x="32.9" y="400" type="line"/>
      <point x="112.9" y="400" type="line"/>
      <point x="112.9" y="600" type="line"/>
      <point x="32.9" y="600" type="line"/>
    </contour>
    <contour>
      <point x="-9.599999999999994" y="650.0" type="line"/>
      <point x="34.553200000000004" y="650.0"/>
      <point x="70.4" y="685.8468"/>
      <point x="70.4" y="730.0" type="curve"/>
      <point x="-9.599999999999994" y="730.0" type="line"/>
    </contour>
    <contour>
      <point x="75.4" y="730.0" type="line"/>
      <point x="75.4" y="685.8468"/>
      <point x="111.24680000000001" y="650.0"/>
      <point x="155.4" y="650.0" type="curve"/>
      <point x="155.4" y="730.0" type="line"/>
    </contour>
  </outline>
</glyph>
<glyph name="eth" format="2">
  <advance width="260.8"/>
  <unicode hex="00F0"/>
  <outline>
    <contour>
      <point x="32.9" y="75.0" type="line"/>
      <point x="32.9" y="30.8468"/>
      <point x="68.74680000000001" y="-5.0"/>
      <point x="112.9" y="-5.0" type="curve"/>
      <point x="112.9" y="75.0" type="line"/>
    </contour>
    <contour>
      <point x="32.9" y="75.0" type="line"/>
      <point x="112.9" y="75.0" type="line"/>
      <point x="112.9" y="195.0" type="line"/>
      <point x="32.9" y="195.0" type="line"/>
    </contour>
    <contour>
      <point x="32.9" y="195.0" type="line"/>
      <point x="112.9" y="195.0" type="line"/>
      <point x="112.9" y="400.0" type="line"/>
      <point x="32.9" y="400.0" type="line"/>
    </contour>
    <contour>
      <point x="112.9" y="600.0" type="line"/>
      <point x="68.74680000000001" y="600.0"/>
      <point x="32.9" y="564.1532"/>
      <point x="32.9" y="520.0" type="curve"/>
      <point x="112.9" y="520.0" type="line"/>
    </contour>
    <contour>
      <point x="32.9" y="400" type="line"/>
      <point x="112.9" y="400" type="line"/>
      <point x="112.9" y="520.0" type="line"/>
      <point x="32.9" y="520.0" type="line"/>
    </contour>
    <contour>
      <point x="147.9" y="-5.0" type="line"/>
      <point x="192.0532" y="-5.0"/>
      <point x="227.9" y="30.8468"/>
      <point x="227.9" y="75.0" type="curve"/>
      <point x="147.9" y="75.0" type="line"/>
    </contour>
    <contour>
      <point x="147.9" y="75.0" type="line"/>
      <point x="227.9" y="75.0" type="line"/>
      <point x="227.9" y="195.0" type="line"/>
      <point x="147.9" y="195.0" type="line"/>
    </contour>
    <contour>
      <point x="147.9" y="195.0" type="line"/>
      <point x="227.9" y="195.0" type="line"/>
      <point x="227.9" y="400.0" type="line"/>
      <point x="147.9" y="400.0" type="line"/>
    </contour>
    <contour>
      <point x="147.9" y="400" type="line"/>
      <point x="227.9" y="400" type="line"/>
      <point x="227.9" y="605.0" type="line"/>
      <point x="147.9" y="605.0" type="line"/>
    </contour>
    <contour>
      <point x="227.9" y="725.0" type="line"/>
      <point x="227.9" y="769.1532"/>
      <point x="192.0532" y="805.0"/>
      <point x="147.9" y="805.0" type="curve"/>
      <point x="147.9" y="725.0" type="line"/>
    </contour>
    <contour>
      <point x="147.9" y="605.0" type="line"/>
      <point x="227.9" y="605.0" type="line"/>
      <point x="227.9" y="725.0" type="line"/>
      <point x="147.9" y="725.0" type="line"/>
    </contour>
  </outline>
</glyph>
<glyph name="o_with_circumflex" format="2">
  <advance width="260.8"/>
  <unicode hex="00F4"/>
  <outline>
    <contour>
      <point x="32.9" y="75.0" type="line"/>
      <point x="32.9" y="30.8468"/>
      <point x="68.74680000000001" y="-5.0"/>
      <point x="112.9" y="-5.0" type="curve"/>
      <point x="112.9" y="75.0" type="line"/>
    </contour>
    <contour>
      <point x="32.9" y="75.0" type="line"/>
      <point x="112.9" y="75.0" type="line"/>
      <point x="112.9" y="195.0" type="line"/>
      <point x="32.9" y="195.0" type="line"/>
    </contour>
    <contour>
      <point x="32.9" y="195.0" type="line"/>
      <point x="112.9" y="195.0" type="line"/>
      <point x="112.9" y="405.0" type="line"/>
      <point x="32.9" y="405.0" type="line"/>
    </contour>
    <contour>
      <point x="112.9" y="605.0" type="line"/>
      <point x="68.74680000000001" y="605.0"/>
      <point x="32.9" y="569.1532"/>
      <point x="32.9" y="525.0" type="curve"/>
      <point x="112.9" y="525.0" type="line"/>
    </contour>
    <contour>
      <point x="32.9" y="405.0" type="line"/>
      <point x="112.9" y="405.0" type="line"/>
      <point x="112.9" y="525.0" type="line"/>
      <point x="32.9" y="525.0" type="line"/>
    </contour>
    <contour>
      <point x="147.9" y="-5.0" type="line"/>
      <point x="192.0532" y="-5.0"/>
      <point x="227.9" y="30.8468"/>
      <point x="227.9" y="75.0" type="curve"/>
      <point x="147.9" y="75.0" type="line"/>
    </contour>
    <contour>
      <point x="147.9" y="75.0" type="line"/>
      <point x="227.9" y="75.0" type="line"/>
      <point x="227.9" y="195.0" type="line"/>
      <point x="147.9" y="195.0" type="line"/>
    </contour>
    <contour>
      <point x="147.9" y="195.0" type="line"/>
      <point x="227.9" y="195.0" type="line"/>
      <point x="227.9" y="405.0" type="line"/>
      <point x="147.9" y="405.0" type="line"/>
    </contour>
    <contour>
      <point x="227.9" y="525.0" type="line"/>
      <point x="227.9" y="569.1532"/>
      <point x="192.0532" y="605.0"/>
      <point x="147.9" y="605.0" type="curve"/>
      <point x="147.9" y="525.0" type="line"/>
    </contour>
    <contour>
      <point x="147.9" y="405.0" type="line"/>
      <point x="227.9" y="405.0" type="line"/>
      <point x="227.9" y="525.0" type="line"/>
      <point x="147.9" y="525.0" type="line"/>
    </contour>
    <contour>
      <point x="47.900000000000006" y="650.0" type="line"/>
      <point x="92.0532" y="650.0"/>
      <point x="127.9" y="685.8468"/>
      <point x="127.9" y="730.0" type="curve"/>
      <point x="47.900000000000006" y="730.0" type="line"/>
    </contour>
    <contour>
      <point x="132.9" y="730.0" type="line"/>
      <point x="132.9" y="685.8468"/>
      <point x="168.7468" y="650.0"/>
      <point x="212.9" y="650.0" type="curve"/>
      <point x="212.9" y="730.0" type="line"/>
    </contour>
  </outline>
</glyph>
<glyph name="o_with_smalltilde" format="2">
  <advance width="260.8"/>
  <unicode hex="00F5"/>
  <outline>
    <contour>
      <point x="32.9" y="75.0" type="line"/>
      <point x="32.9" y="30.8468"/>
      <point x="68.74680000000001" y="-5.0"/>
      <point x="112.9" y="-5.0" type="curve"/>
      <point x="112.9" y="75.0" type="line"/>
    </contour>
    <contour>
      <point x="32.9" y="75.0" type="line"/>
      <point x="112.9" y="75.0" type="line"/>
      <point x="112.9" y="195.0" type="line"/>
      <point x="32.9" y="195.0" type="line"/>
    </contour>
    <contour>
      <point x="32.9" y="195.0" type="line"/>
      <point x="112.9" y="195.0" type="line"/>
      <point x="112.9" y="405.0" type="line"/>
      <point x="32.9" y="405.0" type="line"/>
    </contour>
    <contour>
      <point x="112.9" y="605.0" type="line"/>
      <point x="68.74680000000001" y="605.0"/>
      <point x="32.9" y="569.1532"/>
      <point x="32.9" y="525.0" type="curve"/>
      <point x="112.9" y="525.0" type="line"/>
    </contour>
    <contour>
      <point x="32.9" y="405.0" type="line"/>
      <point x="112.9" y="405.0" type="line"/>
      <point x="112.9" y="525.0" type="line"/>
      <point x="32.9" y="525.0" type="line"/>
    </contour>
    <contour>
      <point x="147.9" y="-5.0" type="line"/>
      <point x="192.0532" y="-5.0"/>
      <point x="227.9" y="30.8468"/>
      <point x="227.9" y="75.0" type="curve"/>
      <point x="147.9" y="75.0" type="line"/>
    </contour>
    <contour>
      <point x="147.9" y="75.0" type="line"/>
      <point x="227.9" y="75.0" type="line"/>
      <point x="227.9" y="195.0" type="line"/>
      <point x="147.9" y="195.0" type="line"/>
    </contour>
    <contour>
      <point x="147.9" y="195.0" type="line"/>
      <point x="227.9" y="195.0" type="line"/>
      <point x="227.9" y="405.0" type="line"/>
      <point x="147.9" y="405.0" type="line"/>
    </contour>
    <contour>
      <point x="227.9" y="525.0" type="line"/>
      <point x="227.9" y="569.1532"/>
      <point x="192.0532" y="605.0"/>
      <point x="147.9" y="605.0" type="curve"/>
      <point x="147.9" y="525.0" type="line"/>
    </contour>
    <contour>
      <point x="147.9" y="405.0" type="line"/>
      <point x="227.9" y="405.0" type="line"/>
      <point x="227.9" y="525.0" type="line"/>
      <point x="147.9" y="525.0" type="line"/>
    </contour>
    <contour>
      <point x="130.4" y="730.0" type="line"/>
      <point x="86.24680000000001" y="730.0"/>
      <point x="50.400000000000006" y="694.1532"/>
      <point x="50.400000000000006" y="650.0" type="curve"/>
      <point x="130.4" y="650.0" type="line"/>
    </contour>
    <contour>
      <point x="130.4" y="650.0" type="line"/>
      <point x="174.5532" y="650.0"/>
      <point x="210.4" y="685.8468"/>
      <point x="210.4" y="730.0" type="curve"/>
      <point x="130.4" y="730.0" type="line"/>
    </contour>
  </outline>
</glyph>
<glyph name="o_with_diaeresis" format="2">
  <advance width="260.8"/>
  <unicode hex="00F6"/>
  <outline>
    <contour>
      <point x="32.9" y="75.0" type="line"/>
      <point x="32.9" y="30.8468"/>
      <point x="68.74680000000001" y="-5.0"/>
      <point x="112.9" y="-5.0" type="curve"/>
      <point x="112.9" y="75.0" type="line"/>
    </contour>
    <contour>
      <point x="32.9" y="75.0" type="line"/>
      <point x="112.9" y="75.0" type="line"/>
      <point x="112.9" y="195.0" type="line"/>
      <point x="32.9" y="195.0" type="line"/>
    </contour>
    <contour>
      <point x="32.9" y="195.0" type="line"/>
      <point x="112.9" y="195.0" type="line"/>
      <point x="112.9" y="405.0" type="line"/>
      <point x="32.9" y="405.0" type="line"/>
    </contour>
    <contour>
      <point x="112.9" y="605.0" type="line"/>
      <point x="68.74680000000001" y="605.0"/>
      <point x="32.9" y="569.1532"/>
      <point x="32.9" y="525.0" type="curve"/>
      <point x="112.9" y="525.0" type="line"/>
    </contour>
    <contour>
      <point x="32.9" y="405.0" type="line"/>
      <point x="112.9" y="405.0" type="line"/>
      <point x="112.9" y="525.0" type="line"/>
      <point x="32.9" y="525.0" type="line"/>
    </contour>
    <contour>
      <point x="147.9" y="-5.0" type="line"/>
      <point x="192.0532" y="-5.0"/>
      <point x="227.9" y="30.8468"/>
      <point x="227.9" y="75.0" type="curve"/>
      <point x="147.9" y="75.0" type="line"/>
    </contour>
    <contour>
      <point x="147.9" y="75.0" type="line"/>
      <point x="227.9" y="75.0" type="line"/>
      <point x="227.9" y="195.0" type="line"/>
      <point x="147.9" y="195.0" type="line"/>
    </contour>
    <contour>
      <point x="147.9" y="195.0" type="line"/>
      <point x="227.9" y="195.0" type="line"/>
      <point x="227.9" y="405.0" type="line"/>
      <point x="147.9" y="405.0" type="line"/>
    </contour>
    <contour>
      <point x="227.9" y="525.0" type="line"/>
      <point x="227.9" y="569.1532"/>
      <point x="192.0532" y="605.0"/>
      <point x="147.9" y="605.0" type="curve"/>
      <point x="147.9" y="525.0" type="line"/>
    </contour>
    <contour>
      <point x="147.9" y="405.0" type="line"/>
      <point x="227.9" y="405.0" type="line"/>
      <point x="227.9" y="525.0" type="line"/>
      <point x="147.9" y="525.0" type="line"/>
    </contour>
    <contour>
      <point x="117.9" y="690.0" type="curve" smooth="yes"/>
      <point x="117.9" y="714.83618"/>
      <point x="97.73618" y="735.0"/>
      <point x="72.9" y="735.0" type="curve" smooth="yes"/>
      <point x="48.06382000000001" y="735.0"/>
      <point x="27.900000000000006" y="714.83618"/>
      <point x="27.900000000000006" y="690.0" type="curve" smooth="yes"/>
      <point x="27.900000000000006" y="665.16382"/>
      <point x="48.06382000000001" y="645.0"/>
      <point x="72.9" y="645.0" type="curve" smooth="yes"/>
      <point x="97.73618" y="645.0"/>
      <point x="117.9" y="665.16382"/>
    </contour>
    <contour>
      <point x="232.9" y="690.0" type="curve" smooth="yes"/>
      <point x="232.9" y="714.83618"/>
      <point x="212.73618000000002" y="735.0"/>
      <point x="187.9" y="735.0" type="curve" smooth="yes"/>
      <point x="163.06382" y="735.0"/>
      <point x="142.9" y="714.83618"/>
      <point x="142.9" y="690.0" type="curve" smooth="yes"/>
      <point x="142.9" y="665.16382"/>
      <point x="163.06382" y="645.0"/>
      <point x="187.9" y="645.0" type="curve" smooth="yes"/>
      <point x="212.73618000000002" y="645.0"/>
      <point x="232.9" y="665.16382"/>
    </contour>
  </outline>
</glyph>
<glyph name="divide" format="2">
  <advance width="375.8"/>
  <unicode hex="00F7"/>
  <outline>
    <contour>
      <point x="67.9" y="360.0" type="line"/>
      <point x="147.9" y="360.0" type="line"/>
      <point x="147.9" y="440.0" type="line"/>
      <point x="67.9" y="440.0" type="line"/>
    </contour>
    <contour>
      <point x="232.9" y="210.0" type="curve" smooth="yes"/>
      <point x="232.9" y="234.83618"/>
      <point x="212.73618000000002" y="255.0"/>
      <point x="187.9" y="255.0" type="curve" smooth="yes"/>
      <point x="163.06382" y="255.0"/>
      <point x="142.9" y="234.83618"/>
      <point x="142.9" y="210.0" type="curve" smooth="yes"/>
      <point x="142.9" y="185.16382"/>
      <point x="163.06382" y="165.0"/>
      <point x="187.9" y="165.0" type="curve" smooth="yes"/>
      <point x="212.73618000000002" y="165.0"/>
      <point x="232.9" y="185.16382"/>
    </contour>
    <contour>
      <point x="147.9" y="360.0" type="line"/>
      <point x="227.9" y="360.0" type="line"/>
      <point x="227.9" y="440.0" type="line"/>
      <point x="147.9" y="440.0" type="line"/>
    </contour>
    <contour>
      <point x="232.9" y="590.0" type="curve" smooth="yes"/>
      <point x="232.9" y="614.83618"/>
      <point x="212.73618000000002" y="635.0"/>
      <point x="187.9" y="635.0" type="curve" smooth="yes"/>
      <point x="163.06382" y="635.0"/>
      <point x="142.9" y="614.83618"/>
      <point x="142.9" y="590.0" type="curve" smooth="yes"/>
      <point x="142.9" y="565.16382"/>
      <point x="163.06382" y="545.0"/>
      <point x="187.9" y="545.0" type="curve" smooth="yes"/>
      <point x="212.73618000000002" y="545.0"/>
      <point x="232.9" y="565.16382"/>
    </contour>
    <contour>
      <point x="227.9" y="360.0" type="line"/>
      <point x="307.9" y="360.0" type="line"/>
      <point x="307.9" y="440.0" type="line"/>
      <point x="227.9" y="440.0" type="line"/>
    </contour>
  </outline>
</glyph>
<glyph name="o_with_stroke" format="2">
  <advance width="260.8"/>
  <unicode hex="00F8"/>
  <outline>
    <contour>
      <point x="32.9" y="75.0" type="line"/>
      <point x="32.9" y="30.8468"/>
      <point x="68.74680000000001" y="-5.0"/>
      <point x="112.9" y="-5.0" type="curve"/>
      <point x="112.9" y="75.0" type="line"/>
    </contour>
    <contour>
      <point x="32.9" y="75.0" type="line"/>
      <point x="112.9" y="75.0" type="line"/>
      <point x="112.9" y="195.0" type="line"/>
      <point x="32.9" y="195.0" type="line"/>
    </contour>
    <contour>
      <point x="32.9" y="195.0" type="line"/>
      <point x="112.9" y="195.0" type="line"/>
      <point x="112.9" y="405.0" type="line"/>
      <point x="32.9" y="405.0" type="line"/>
    </contour>
    <contour>
      <point x="112.9" y="605.0" type="line"/>
      <point x="68.74680000000001" y="605.0"/>
      <point x="32.9" y="569.1532"/>
      <point x="32.9" y="525.0" type="curve"/>
      <point x="112.9" y="525.0" type="line"/>
    </contour>
    <contour>
      <point x="32.9" y="405.0" type="line"/>
      <point x="112.9" y="405.0" type="line"/>
      <point x="112.9" y="525.0" type="line"/>
      <point x="32.9" y="525.0" type="line"/>
    </contour>
    <contour>
      <point x="92.9" y="40.0" type="line"/>
      <point x="48.7468" y="40.0"/>
      <point x="12.899999999999999" y="4.1532"/>
      <point x="12.899999999999999" y="-40.0" type="curve"/>
      <point x="92.9" y="-40.0" type="line"/>
    </contour>
    <contour>
      <point x="147.9" y="-5.0" type="line"/>
      <point x="192.0532" y="-5.0"/>
      <point x="227.9" y="30.8468"/>
      <point x="227.9" y="75.0" type="curve"/>
      <point x="147.9" y="75.0" type="line"/>
    </contour>
    <contour>
      <point x="147.9" y="75.0" type="line"/>
      <point x="227.9" y="75.0" type="line"/>
      <point x="227.9" y="195.0" type="line"/>
      <point x="147.9" y="195.0" type="line"/>
    </contour>
    <contour>
      <point x="147.9" y="195.0" type="line"/>
      <point x="227.9" y="195.0" type="line"/>
      <point x="227.9" y="405.0" type="line"/>
      <point x="147.9" y="405.0" type="line"/>
    </contour>
    <contour>
      <point x="227.9" y="525.0" type="line"/>
      <point x="227.9" y="569.1532"/>
      <point x="192.0532" y="605.0"/>
      <point x="147.9" y="605.0" type="curve"/>
      <point x="147.9" y="525.0" type="line"/>
    </contour>
    <contour>
      <point x="147.9" y="405.0" type="line"/>
      <point x="227.9" y="405.0" type="line"/>
      <point x="227.9" y="525.0" type="line"/>
      <point x="147.9" y="525.0" type="line"/>
    </contour>
    <contour>
      <point x="167.9" y="560.0" type="line"/>
      <point x="212.0532" y="560.0"/>
      <point x="247.9" y="595.8468"/>
      <point x="247.9" y="640.0" type="curve"/>
      <point x="167.9" y="640.0" type="line"/>
    </contour>
  </outline>
</glyph>
<glyph name="y_with_diaeresis" format="2">
  <advance width="260.8"/>
  <unicode hex="00FF"/>
  <outline>
    <contour>
      <point x="115.4" y="-170.0" type="curve" smooth="yes"/>
      <point x="115.4" y="-147.9234"/>
      <point x="97.47659999999999" y="-130.0"/>
      <point x="75.4" y="-130.0" type="curve" smooth="yes"/>
      <point x="53.3234" y="-130.0"/>
      <point x="35.4" y="-147.9234"/>
      <point x="35.4" y="-170.0" type="curve" smooth="yes"/>
      <point x="35.4" y="-192.0766"/>
      <point x="53.3234" y="-210.0"/>
      <point x="75.4" y="-210.0" type="curve" smooth="yes"/>
      <point x="97.47659999999999" y="-210.0"/>
      <point x="115.4" y="-192.0766"/>
    </contour>
    <contour>
      <point x="32.9" y="80.0" type="line"/>
      <point x="32.9" y="35.8468"/>
      <point x="68.74680000000001" y="0.0"/>
      <point x="112.9" y="0.0" type="curve"/>
      <point x="112.9" y="80.0" type="line"/>
    </contour>
    <contour>
      <point x="32.9" y="80.0" type="line"/>
      <point x="112.9" y="80.0" type="line"/>
      <point x="112.9" y="200.0" type="line"/>
      <point x="32.9" y="200.0" type="line"/>
    </contour>
    <contour>
      <point x="32.9" y="200" type="line"/>
      <point x="112.9" y="200" type="line"/>
      <point x="112.9" y="405.0" type="line"/>
      <point x="32.9" y="405.0" type="line"/>
    </contour>
    <contour>
      <point x="112.9" y="525.0" type="line"/>
      <point x="112.9" y="569.1532"/>
      <point x="77.0532" y="605.0"/>
      <point x="32.9" y="605.0" type="curve"/>
      <point x="32.9" y="525.0" type="line"/>
    </contour>
    <contour>
      <point x="32.9" y="405.0" type="line"/>
      <point x="112.9" y="405.0" type="line"/>
      <point x="112.9" y="525.0" type="line"/>
      <point x="32.9" y="525.0" type="line"/>
    </contour>
    <contour>
      <point x="147.9" y="-210.0" type="line"/>
      <point x="192.0532" y="-210.0"/>
      <point x="227.9" y="-174.1532"/>
      <point x="227.9" y="-130.0" type="curve"/>
      <point x="147.9" y="-130.0" type="line"/>
    </contour>
    <contour>
      <point x="147.9" y="-130.0" type="line"/>
      <point x="227.9" y="-130.0" type="line"/>
      <point x="227.9" y="-10.0" type="line"/>
      <point x="147.9" y="-10.0" type="line"/>
    </contour>
    <contour>
      <point x="147.9" y="-10.0" type="line"/>
      <point x="227.9" y="-10.0" type="line"/>
      <point x="227.9" y="200.0" type="line"/>
      <point x="147.9" y="200.0" type="line"/>
    </contour>
    <contour>
      <point x="147.9" y="200" type="line"/>
      <point x="227.9" y="200" type="line"/>
      <point x="227.9" y="400" type="line"/>
      <point x="147.9" y="400" type="line"/>
    </contour>
    <contour>
      <point x="147.9" y="400" type="line"/>
      <point x="227.9" y="400" type="line"/>
      <point x="227.9" y="600" type="line"/>
      <point x="147.9" y="600" type="line"/>
    </contour>
    <contour>
      <point x="117.9" y="690.0" type="curve" smooth="yes"/>
      <point x="117.9" y="714.83618"/>
      <point x="97.73618" y="735.0"/>
      <point x="72.9" y="735.0" type="curve" smooth="yes"/>
      <point x="48.06382000000001" y="735.0"/>
      <point x="27.900000000000006" y="714.83618"/>
      <point x="27.900000000000006" y="690.0" type="curve" smooth="yes"/>
      <point x="27.900000000000006" y="665.16382"/>
      <point x="48.06382000000001" y="645.0"/>
      <point x="72.9" y="645.0" type="curve" smooth="yes"/>
      <point x="97.73618" y="645.0"/>
      <point x="117.9" y="665.16382"/>
    </contour>
    <contour>
      <point x="232.9" y="690.0" type="curve" smooth="yes"/>
      <point x="232.9" y="714.83618"/>
      <point x="212.73618000000002" y="735.0"/>
      <point x="187.9" y="735.0" type="curve" smooth="yes"/>
      <point x="163.06382" y="735.0"/>
      <point x="142.9" y="714.83618"/>
      <point x="142.9" y="690.0" type="curve" smooth="yes"/>
      <point x="142.9" y="665.16382"/>
      <point x="163.06382" y="645.0"/>
      <point x="187.9" y="645.0" type="curve" smooth="yes"/>
      <point x="212.73618000000002" y="645.0"/>
      <point x="232.9" y="665.16382"/>
    </contour>
  </outline>
</glyph>
<glyph name="a_with_ogonek" format="2">
  <advance width="260.8"/>
  <unicode hex="0105"/>
  <outline>
    <contour>
      <point x="32.9" y="80.0" type="line"/>
      <point x="32.9" y="35.8468"/>
      <point x="68.74680000000001" y="0.0"/>
      <point x="112.9" y="0.0" type="curve"/>
      <point x="112.9" y="80.0" type="line"/>
    </contour>
    <contour>
      <point x="32.9" y="80.0" type="line"/>
      <point x="112.9" y="80.0" type="line"/>
      <point x="112.9" y="200.0" type="line"/>
      <point x="32.9" y="200.0" type="line"/>
    </contour>
    <contour>
      <point x="112.9" y="400.0" type="line"/>
      <point x="68.74680000000001" y="400.0"/>
      <point x="32.9" y="364.1532"/>
      <point x="32.9" y="320.0" type="curve"/>
      <point x="112.9" y="320.0" type="line"/>
    </contour>
    <contour>
      <point x="32.9" y="200" type="line"/>
      <point x="112.9" y="200" type="line"/>
      <point x="112.9" y="320.0" type="line"/>
      <point x="32.9" y="320.0" type="line"/>
    </contour>
    <contour>
      <point x="119.15" y="560.0" type="curve" smooth="yes"/>
      <point x="119.15" y="584.83618"/>
      <point x="98.98617999999999" y="605.0"/>
      <point x="74.15" y="605.0" type="curve" smooth="yes"/>
      <point x="49.31382" y="605.0"/>
      <point x="29.15" y="584.83618"/>
      <point x="29.15" y="560.0" type="curve" smooth="yes"/>
      <point x="29.15" y="535.16382"/>
      <point x="49.31382" y="515.0"/>
      <point x="74.15" y="515.0" type="curve" smooth="yes"/>
      <point x="98.98617999999999" y="515.0"/>
      <point x="119.15" y="535.16382"/>
    </contour>
    <contour>
      <point x="147.9" y="75.0" type="line"/>
      <point x="147.9" y="30.8468"/>
      <point x="183.7468" y="-5.0"/>
      <point x="227.9" y="-5.0" type="curve"/>
      <point x="227.9" y="75.0" type="line"/>
    </contour>
    <contour>
      <point x="147.9" y="75.0" type="line"/>
      <point x="227.9" y="75.0" type="line"/>
      <point x="227.9" y="200.0" type="line"/>
      <point x="147.9" y="200.0" type="line"/>
    </contour>
    <contour>
      <point x="147.9" y="200" type="line"/>
      <point x="227.9" y="200" type="line"/>
      <point x="227.9" y="400" type="line"/>
      <point x="147.9" y="400" type="line"/>
    </contour>
    <contour>
      <point x="227.9" y="522.5" type="line"/>
      <point x="227.9" y="566.6532"/>
      <point x="192.0532" y="602.5"/>
      <point x="147.9" y="602.5" type="curve"/>
      <point x="147.9" y="522.5" type="line"/>
    </contour>
    <contour>
      <point x="147.9" y="400" type="line"/>
      <point x="227.9" y="400" type="line"/>
      <point x="227.9" y="522.5" type="line"/>
      <point x="147.9" y="522.5" type="line"/>
    </contour>
    <contour>
      <point x="227.9" y="-30.0" type="line"/>
      <point x="183.7468" y="-30.0"/>
      <point x="147.9" y="-65.8468"/>
      <point x="147.9" y="-110.0" type="curve"/>
      <point x="227.9" y="-110.0" type="line"/>
    </contour>
  </outline>
</glyph>
<glyph name="c_with_acute" format="2">
  <advance width="260.8"/>
  <unicode hex="0107"/>
  <outline>
    <contour>
      <point x="32.9" y="80.0" type="line"/>
      <point x="32.9" y="35.8468"/>
      <point x="68.74680000000001" y="0.0"/>
      <point x="112.9" y="0.0" type="curve"/>
      <point x="112.9" y="80.0" type="line"/>
    </contour>
    <contour>
      <point x="32.9" y="80.0" type="line"/>
      <point x="112.9" y="80.0" type="line"/>
      <point x="112.9" y="200.0" type="line"/>
      <point x="32.9" y="200.0" type="line"/>
    </contour>
    <contour>
      <point x="32.9" y="200" type="line"/>
      <point x="112.9" y="200" type="line"/>
      <point x="112.9" y="405.0" type="line"/>
      <point x="32.9" y="405.0" type="line"/>
    </contour>
    <contour>
      <point x="112.9" y="605.0" type="line"/>
      <point x="68.74680000000001" y="605.0"/>
      <point x="32.9" y="569.1532"/>
      <point x="32.9" y="525.0" type="curve"/>
      <point x="112.9" y="525.0" type="line"/>
    </contour>
    <contour>
      <point x="32.9" y="405.0" type="line"/>
      <point x="112.9" y="405.0" type="line"/>
      <point x="112.9" y="525.0" type="line"/>
      <point x="32.9" y="525.0" type="line"/>
    </contour>
    <contour>
      <point x="226.65" y="80.0" type="line"/>
      <point x="182.4968" y="80.0"/>
      <point x="146.65" y="44.1532"/>
      <point x="146.65" y="0.0" type="curve"/>
      <point x="226.65" y="0.0" type="line"/>
    </contour>
    <contour>
      <point x="232.9" y="560.0" type="curve" smooth="yes"/>
      <point x="232.9" y="584.83618"/>
      <point x="212.73618000000002" y="605.0"/>
      <point x="187.9" y="605.0" type="curve" smooth="yes"/>
      <point x="163.06382" y="605.0"/>
      <point x="142.9" y="584.83618"/>
      <point x="142.9" y="560.0" type="curve" smooth="yes"/>
      <point x="142.9" y="535.16382"/>
      <point x="163.06382" y="515.0"/>
      <point x="187.9" y="515.0" type="curve" smooth="yes"/>
      <point x="212.73618000000002" y="515.0"/>
      <point x="232.9" y="535.16382"/>
    </contour>
    <contour>
      <point x="127.9" y="650.0" type="line"/>
      <point x="172.0532" y="650.0"/>
      <point x="207.9" y="685.8468"/>
      <point x="207.9" y="730.0" type="curve"/>
      <point x="127.9" y="730.0" type="line"/>
    </contour>
  </outline>
</glyph>
<glyph name="c_with_caron" format="2">
  <advance width="260.8"/>
  <unicode hex="010D"/>
  <outline>
    <contour>
      <point x="32.9" y="80.0" type="line"/>
      <point x="32.9" y="35.8468"/>
      <point x="68.74680000000001" y="0.0"/>
      <point x="112.9" y="0.0" type="curve"/>
      <point x="112.9" y="80.0" type="line"/>
    </contour>
    <contour>
      <point x="32.9" y="80.0" type="line"/>
      <point x="112.9" y="80.0" type="line"/>
      <point x="112.9" y="200.0" type="line"/>
      <point x="32.9" y="200.0" type="line"/>
    </contour>
    <contour>
      <point x="32.9" y="200" type="line"/>
      <point x="112.9" y="200" type="line"/>
      <point x="112.9" y="405.0" type="line"/>
      <point x="32.9" y="405.0" type="line"/>
    </contour>
    <contour>
      <point x="112.9" y="605.0" type="line"/>
      <point x="68.74680000000001" y="605.0"/>
      <point x="32.9" y="569.1532"/>
      <point x="32.9" y="525.0" type="curve"/>
      <point x="112.9" y="525.0" type="line"/>
    </contour>
    <contour>
      <point x="32.9" y="405.0" type="line"/>
      <point x="112.9" y="405.0" type="line"/>
      <point x="112.9" y="525.0" type="line"/>
      <point x="32.9" y="525.0" type="line"/>
    </contour>
    <contour>
      <point x="226.65" y="80.0" type="line"/>
      <point x="182.4968" y="80.0"/>
      <point x="146.65" y="44.1532"/>
      <point x="146.65" y="0.0" type="curve"/>
      <point x="226.65" y="0.0" type="line"/>
    </contour>
    <contour>
      <point x="232.9" y="560.0" type="curve" smooth="yes"/>
      <point x="232.9" y="584.83618"/>
      <point x="212.73618000000002" y="605.0"/>
      <point x="187.9" y="605.0" type="curve" smooth="yes"/>
      <point x="163.06382" y="605.0"/>
      <point x="142.9" y="584.83618"/>
      <point x="142.9" y="560.0" type="curve" smooth="yes"/>
      <point x="142.9" y="535.16382"/>
      <point x="163.06382" y="515.0"/>
      <point x="187.9" y="515.0" type="curve" smooth="yes"/>
      <point x="212.73618000000002" y="515.0"/>
      <point x="232.9" y="535.16382"/>
    </contour>
    <contour>
      <point x="130.4" y="650.0" type="line"/>
      <point x="130.4" y="694.1532"/>
      <point x="94.5532" y="730.0"/>
      <point x="50.400000000000006" y="730.0" type="curve"/>
      <point x="50.400000000000006" y="650.0" type="line"/>
    </contour>
    <contour>
      <point x="215.4" y="730.0" type="line"/>
      <point x="171.2468" y="730.0"/>
      <point x="135.4" y="694.1532"/>
      <point x="135.4" y="650.0" type="curve"/>
      <point x="215.4" y="650.0" type="line"/>
    </contour>
  </outline>
</glyph>
<glyph name="e_with_dotabove" format="2">
  <advance width="260.8"/>
  <unicode hex="0117"/>
  <outline>
    <contour>
      <point x="32.9" y="75.0" type="line"/>
      <point x="32.9" y="30.8468"/>
      <point x="68.74680000000001" y="-5.0"/>
      <point x="112.9" y="-5.0" type="curve"/>
      <point x="112.9" y="75.0" type="line"/>
    </contour>
    <contour>
      <point x="32.9" y="75.0" type="line"/>
      <point x="112.9" y="75.0" type="line"/>
      <point x="112.9" y="195.0" type="line"/>
      <point x="32.9" y="195.0" type="line"/>
    </contour>
    <contour>
      <point x="32.9" y="195.0" type="line"/>
      <point x="112.9" y="195.0" type="line"/>
      <point x="112.9" y="405.0" type="line"/>
      <point x="32.9" y="405.0" type="line"/>
    </contour>
    <contour>
      <point x="112.9" y="605.0" type="line"/>
      <point x="68.74680000000001" y="605.0"/>
      <point x="32.9" y="569.1532"/>
      <point x="32.9" y="525.0" type="curve"/>
      <point x="112.9" y="525.0" type="line"/>
    </contour>
    <contour>
      <point x="32.9" y="405.0" type="line"/>
      <point x="112.9" y="405.0" type="line"/>
      <point x="112.9" y="525.0" type="line"/>
      <point x="32.9" y="525.0" type="line"/>
    </contour>
    <contour>
      <point x="147.9" y="195.0" type="line"/>
      <point x="227.9" y="195.0" type="line"/>
      <point x="227.9" y="405.0" type="line"/>
      <point x="147.9" y="405.0" type="line"/>
    </contour>
    <contour>
      <point x="227.9" y="525.0" type="line"/>
      <point x="227.9" y="569.1532"/>
      <point x="192.0532" y="605.0"/>
      <point x="147.9" y="605.0" type="curve"/>
      <point x="147.9" y="525.0" type="line"/>
    </contour>
    <contour>
      <point x="147.9" y="405.0" type="line"/>
      <point x="227.9" y="405.0" type="line"/>
      <point x="227.9" y="525.0" type="line"/>
      <point x="147.9" y="525.0" type="line"/>
    </contour>
    <contour>
      <point x="175.4" y="690.0" type="curve" smooth="yes"/>
      <point x="175.4" y="714.83618"/>
      <point x="155.23618" y="735.0"/>
      <point x="130.4" y="735.0" type="curve" smooth="yes"/>
      <point x="105.56382" y="735.0"/>
      <point x="85.4" y="714.83618"/>
      <point x="85.4" y="690.0" type="curve" smooth="yes"/>
      <point x="85.4" y="665.16382"/>
      <point x="105.56382" y="645.0"/>
      <point x="130.4" y="645.0" type="curve" smooth="yes"/>
      <point x="155.23618" y="645.0"/>
      <point x="175.4" y="665.16382"/>
    </contour>
  </outline>
</glyph>
